<svg width="540" height="179" viewBox="0 0 540 179" fill="none" xmlns="http://www.w3.org/2000/svg">
<mask id="mask0_1_9001" style="mask-type:alpha" maskUnits="userSpaceOnUse" x="0" y="0" width="541" height="179">
<rect opacity="0.8" x="0.980469" y="0.335938" width="539.022" height="178.489" rx="13.2927" fill="#6C5FBC"/>
</mask>
<g mask="url(#mask0_1_9001)">
<g opacity="0.25">
<path d="M417.185 102.354C414.869 100.909 413.47 98.2296 413.816 95.3508C414.293 91.3758 417.931 88.5301 421.929 89.0047C425.486 89.427 428.142 92.3334 428.35 95.7807C426.18 95.639 424.217 97.0013 423.577 99.0137C423.322 98.9448 423.057 98.8843 422.789 98.8524C420.277 98.5542 417.965 100.068 417.185 102.354Z" stroke="#151254" stroke-width="1.61235" stroke-linecap="round" stroke-linejoin="round"/>
<path d="M425.372 93.6929C425.443 93.1114 425.021 92.5782 424.437 92.5091C423.853 92.4401 423.317 92.8601 423.246 93.4416C423.176 94.0231 423.598 94.5563 424.182 94.6254C424.775 94.6956 425.302 94.2744 425.372 93.6929Z" fill="#201D67"/>
<path d="M431.204 92.0161C431.275 91.4346 430.853 90.9014 430.269 90.8324C429.685 90.7633 429.149 91.1834 429.078 91.7648C429.008 92.3463 429.43 92.8796 430.014 92.9486C430.609 93.0093 431.134 92.5976 431.204 92.0161Z" fill="#201D67"/>
<path d="M421.736 96.3823C421.806 95.8008 421.384 95.2676 420.8 95.1986C420.216 95.1295 419.68 95.5496 419.61 96.1311C419.54 96.7125 419.961 97.2458 420.545 97.3148C421.139 97.385 421.666 96.9638 421.736 96.3823Z" fill="#201D67"/>
<path d="M417.359 96.7935C417.359 96.7935 417.268 96.5798 417.146 96.3044C417.032 96.0396 416.932 95.8152 416.932 95.8152C416.932 95.8152 417.023 96.0289 417.146 96.3044C417.269 96.5703 417.359 96.7935 417.359 96.7935Z" stroke="#151254" stroke-width="1.61235" stroke-linecap="round" stroke-linejoin="round"/>
<path d="M420.691 92.2695C420.691 92.2695 420.569 92.4773 420.422 92.7304C420.275 92.9835 420.153 93.1912 420.153 93.1912C420.153 93.1912 420.275 92.9835 420.422 92.7304C420.569 92.4773 420.691 92.2695 420.691 92.2695Z" stroke="#151254" stroke-width="1.61235" stroke-linecap="round" stroke-linejoin="round"/>
<path d="M427.286 88.2582C427.286 88.2582 427.429 88.4492 427.605 88.683C427.782 88.9168 427.924 89.1079 427.924 89.1079C427.924 89.1079 427.782 88.9168 427.605 88.683C427.429 88.4492 427.286 88.2582 427.286 88.2582Z" stroke="#151254" stroke-width="1.61235" stroke-linecap="round" stroke-linejoin="round"/>
<path d="M422.067 86.6617C423.317 85.8046 424.866 85.3794 426.486 85.5717C430.024 85.9917 432.548 89.1822 432.126 92.6997C431.785 95.5403 429.626 97.7301 426.938 98.2426" stroke="#151254" stroke-width="1.61235" stroke-linecap="round" stroke-linejoin="round"/>
<path d="M353.375 -6.12109L342.065 -3.47435L352.425 1.72537" stroke="#151254" stroke-width="1.61235" stroke-linecap="round" stroke-linejoin="round"/>
<path d="M352.677 3.74886C352.697 3.58679 352.705 3.44267 352.702 3.30695C352.657 2.23802 351.894 2.00288 352.053 0.687237C352.231 -0.790475 353.211 -0.674736 353.388 -2.13338C353.566 -3.61109 352.586 -3.72683 352.762 -5.18548C352.921 -6.50112 353.708 -6.54357 354.016 -7.58045C354.05 -7.70214 354.078 -7.85355 354.098 -8.01562" stroke="#151254" stroke-width="1.61235" stroke-linecap="round" stroke-linejoin="round"/>
<path d="M354.277 2.94838C353.761 2.88764 353.253 2.75056 352.804 2.53323C352.742 1.60645 351.971 1.39971 352.107 0.27369C352.261 -0.995464 353.247 -0.879615 353.399 -2.12968C353.553 -3.39884 352.567 -3.51469 352.719 -4.76475C352.855 -5.89077 353.645 -5.92372 353.936 -6.79934C354.424 -6.89691 354.951 -6.92206 355.468 -6.86132C358.186 -6.54189 360.12 -4.08843 359.792 -1.37835C359.463 1.33172 356.995 3.2678 354.277 2.94838Z" stroke="#151254" stroke-width="1.61235" stroke-linecap="round" stroke-linejoin="round"/>
<path d="M351.331 2.59033L352.508 -7.20898" stroke="#151254" stroke-width="1.61235" stroke-linecap="round" stroke-linejoin="round"/>
<path d="M339.859 94.5757L340.711 87.5205L339.699 87.401L338.848 94.4562L339.859 94.5757Z" stroke="#151254" stroke-width="1.61235" stroke-linecap="round" stroke-linejoin="round"/>
<path d="M347.446 99.8081C347.368 100.457 346.696 100.88 346.083 100.653C342.272 99.1885 339.794 95.2888 340.306 91.0548C340.818 86.8209 344.156 83.6068 348.21 83.0689C348.861 82.9812 349.413 83.5493 349.333 84.2073L347.446 99.8081V99.8081Z" stroke="#151254" stroke-width="1.61235" stroke-linecap="round" stroke-linejoin="round"/>
<path d="M348.856 88.2125C348.722 89.3242 349.517 90.332 350.633 90.4635C351.749 90.5949 352.763 89.8004 352.897 88.6887C353.032 87.577 352.236 86.5692 351.12 86.4377C350.004 86.3062 348.991 87.1008 348.856 88.2125Z" stroke="#151254" stroke-width="1.61235" stroke-linecap="round" stroke-linejoin="round"/>
<path d="M348.095 95.8346C347.96 96.9462 348.756 97.954 349.871 98.0855C350.987 98.217 352.001 97.4224 352.135 96.3107C352.27 95.199 351.474 94.1913 350.358 94.0598C349.243 93.9283 348.229 94.7229 348.095 95.8346Z" stroke="#151254" stroke-width="1.61235" stroke-linecap="round" stroke-linejoin="round"/>
<path d="M348.506 92.3445C348.404 93.1822 349.004 93.9417 349.845 94.0408C350.686 94.1398 351.449 93.541 351.551 92.7033C351.652 91.8656 351.053 91.1062 350.212 91.0071C349.371 90.908 348.607 91.5068 348.506 92.3445Z" stroke="#151254" stroke-width="1.61235" stroke-linecap="round" stroke-linejoin="round"/>
<path d="M352.899 87.58L356.461 84.79" stroke="#151254" stroke-width="1.61235" stroke-linecap="round" stroke-linejoin="round"/>
<path d="M346.285 84.1035L344.472 99.2029" stroke="#151254" stroke-width="1.61235" stroke-linecap="round" stroke-linejoin="round"/>
<path d="M392.109 59.4949L394.176 42.3369C392.588 42.149 391.153 43.2747 390.962 44.857L389.584 56.2957C389.393 57.8781 390.521 59.307 392.109 59.4949Z" stroke="#151254" stroke-width="1.61235" stroke-linecap="round" stroke-linejoin="round"/>
<path d="M401.771 51.9382C402.28 47.7239 399.263 43.9053 395.03 43.4049L394.072 43.2917L392.232 58.5469L393.19 58.6601C397.423 59.1605 401.263 56.1524 401.771 51.9382Z" stroke="#151254" stroke-width="1.61235" stroke-linecap="round" stroke-linejoin="round"/>
<path d="M401.059 51.8584C400.948 52.78 401.608 53.6159 402.534 53.7253C403.46 53.8348 404.301 53.1763 404.412 52.2547C404.523 51.3331 403.863 50.4972 402.937 50.3878C402.011 50.2784 401.17 50.9368 401.059 51.8584Z" fill="#201D67"/>
<path d="M413.703 -7.33594C413.223 -4.71481 411.746 -2.21206 409.367 -0.377143C407.009 1.44098 404.188 2.25664 401.483 2.10952" stroke="#151254" stroke-width="1.61235" stroke-linecap="round" stroke-linejoin="round"/>
<path d="M400.731 3.12362L400.584 1.91714L399.089 -10.3249C398.888 -11.9728 400.494 -13.2031 402.076 -12.6094L405.426 -11.3609L405.64 -11.2776L408.552 -10.1875L408.832 -10.0866L413.716 -8.25006L414.906 -7.79939C416.051 -7.37347 416.672 -6.14935 416.341 -5.0093C415.528 -2.20571 413.882 0.32502 411.439 2.21006C409.016 4.08784 406.129 5.05021 403.169 5.1724C401.957 5.22191 400.879 4.32056 400.731 3.12362Z" stroke="#151254" stroke-width="1.61235" stroke-linecap="round" stroke-linejoin="round"/>
<path d="M389.542 144.496C388.09 142.4 387.38 139.695 387.744 136.847C388.105 134.017 389.458 131.556 391.391 129.831" stroke="#151254" stroke-width="1.61235" stroke-linecap="round" stroke-linejoin="round"/>
<path d="M387.392 129.821C385.899 131.725 384.905 133.999 384.583 136.496C384.21 139.423 384.819 142.253 386.173 144.706C386.723 145.7 387.985 146.109 389.052 145.635L390.171 145.138L394.734 143.072C394.734 143.072 397.98 141.606 401.042 140.225C402.521 139.557 402.774 137.632 401.513 136.652L392.159 129.356L391.236 128.638C390.321 127.93 388.977 128.043 388.193 128.899C387.906 129.184 387.644 129.502 387.392 129.821Z" stroke="#151254" stroke-width="1.61235" stroke-linecap="round" stroke-linejoin="round"/>
<path d="M392.825 133.993C392.948 133.776 392.979 133.518 392.911 133.278C392.878 133.149 392.823 133.045 392.748 132.94C392.587 132.747 392.361 132.614 392.112 132.584C391.853 132.554 391.612 132.622 391.408 132.782C391.205 132.942 391.081 133.159 391.05 133.417C391.019 133.674 391.087 133.914 391.247 134.117C391.407 134.32 391.634 134.443 391.883 134.473C392.132 134.502 392.384 134.425 392.587 134.275C392.693 134.2 392.773 134.103 392.825 133.993Z" fill="#201D67"/>
<path d="M391.434 137.635C391.558 137.417 391.589 137.16 391.521 136.92C391.487 136.8 391.432 136.687 391.358 136.581C391.197 136.388 390.97 136.255 390.721 136.226C390.463 136.195 390.222 136.264 390.018 136.423C389.814 136.583 389.691 136.801 389.659 137.058C389.628 137.316 389.696 137.556 389.856 137.759C390.016 137.961 390.234 138.084 390.493 138.114C390.742 138.143 390.994 138.067 391.196 137.917C391.293 137.841 391.371 137.753 391.434 137.635Z" fill="#201D67"/>
<path d="M391.692 141.805C392.089 141.494 392.165 140.864 391.853 140.47C391.692 140.277 391.466 140.144 391.217 140.114C390.958 140.084 390.717 140.152 390.513 140.312C390.309 140.472 390.186 140.689 390.155 140.947C390.14 141.071 390.154 141.198 390.189 141.309C390.223 141.429 390.277 141.542 390.352 141.647C390.512 141.85 390.73 141.972 390.988 142.003C391.229 142.021 391.49 141.946 391.692 141.805Z" fill="#201D67"/>
<path d="M395.367 140.528C395.497 140.495 395.601 140.439 395.707 140.365C396.104 140.053 396.18 139.424 395.869 139.029C395.784 138.932 395.696 138.854 395.577 138.792C395.468 138.731 395.347 138.687 395.232 138.674C395.108 138.659 394.98 138.673 394.869 138.709C394.748 138.743 394.635 138.797 394.529 138.872C394.325 139.031 394.202 139.249 394.17 139.506C394.155 139.63 394.169 139.758 394.204 139.868C394.238 139.988 394.293 140.101 394.367 140.207C394.527 140.409 394.745 140.532 395.004 140.562C395.119 140.576 395.247 140.562 395.367 140.528Z" fill="#201D67"/>
<path d="M395.82 136.766C395.941 136.732 396.054 136.677 396.16 136.603C396.558 136.282 396.635 135.653 396.322 135.268C396.237 135.171 396.149 135.093 396.03 135.03C395.921 134.969 395.8 134.926 395.685 134.912C395.427 134.882 395.186 134.95 394.982 135.11C394.884 135.195 394.805 135.292 394.743 135.401C394.681 135.51 394.637 135.63 394.622 135.754C394.591 136.012 394.659 136.252 394.819 136.455C394.905 136.552 395.002 136.631 395.111 136.692C395.219 136.763 395.341 136.797 395.456 136.81C395.572 136.814 395.699 136.81 395.82 136.766Z" fill="#201D67"/>
<path d="M398.531 137.444C398.327 137.603 398.203 137.821 398.172 138.078C398.157 138.202 398.171 138.33 398.206 138.44C398.24 138.56 398.294 138.673 398.369 138.779C398.454 138.876 398.552 138.955 398.661 139.016C398.77 139.077 398.891 139.121 399.006 139.134C399.264 139.165 399.506 139.087 399.709 138.937C400 138.7 400.145 138.301 400.035 137.93C400.002 137.801 399.946 137.697 399.872 137.592C399.711 137.399 399.484 137.266 399.235 137.236C399.111 137.222 398.983 137.236 398.872 137.271C398.75 137.315 398.637 137.369 398.531 137.444Z" fill="#201D67"/>
<path d="M273.432 99.2573C271.981 97.1615 271.271 94.4571 271.634 91.6085C271.995 88.7791 273.349 86.3181 275.281 84.5928" stroke="#151254" stroke-width="1.61235" stroke-linecap="round" stroke-linejoin="round"/>
<path d="M271.283 84.5823C269.79 86.487 268.796 88.7602 268.474 91.2578C268.1 94.1847 268.71 97.0145 270.064 99.4675C270.614 100.461 271.876 100.871 272.943 100.397L274.062 99.8997L278.624 97.834C278.624 97.834 281.871 96.3681 284.933 94.9868C286.412 94.3192 286.664 92.3941 285.404 91.4134L276.05 84.1181L275.127 83.3996C274.212 82.6919 272.868 82.8045 272.084 83.6606C271.797 83.9461 271.535 84.2637 271.283 84.5823Z" stroke="#151254" stroke-width="1.61235" stroke-linecap="round" stroke-linejoin="round"/>
<path d="M276.719 88.7561C276.843 88.5385 276.874 88.281 276.806 88.0408C276.773 87.9112 276.718 87.808 276.643 87.7025C276.482 87.5094 276.255 87.3763 276.006 87.3469C275.748 87.3165 275.507 87.3848 275.303 87.5446C275.099 87.7044 274.976 87.922 274.944 88.1795C274.913 88.437 274.981 88.6771 275.141 88.8798C275.301 89.0824 275.529 89.2059 275.778 89.2353C276.027 89.2646 276.279 89.1879 276.481 89.0376C276.587 88.9631 276.667 88.866 276.719 88.7561Z" fill="#201D67"/>
<path d="M275.329 92.3997C275.452 92.1821 275.483 91.9246 275.415 91.6844C275.381 91.5643 275.327 91.4515 275.252 91.346C275.091 91.1529 274.865 91.0198 274.616 90.9905C274.357 90.9601 274.116 91.0284 273.912 91.1881C273.708 91.3479 273.585 91.5655 273.554 91.823C273.523 92.0805 273.591 92.3207 273.751 92.5233C273.911 92.7259 274.129 92.8484 274.387 92.8788C274.636 92.9081 274.888 92.8314 275.091 92.6812C275.187 92.6055 275.266 92.518 275.329 92.3997Z" fill="#201D67"/>
<path d="M275.586 96.5707C275.983 96.2595 276.059 95.6301 275.748 95.2355C275.587 95.0424 275.36 94.9093 275.111 94.88C274.853 94.8496 274.612 94.9179 274.408 95.0777C274.204 95.2374 274.08 95.455 274.049 95.7125C274.034 95.8365 274.048 95.9639 274.083 96.0744C274.117 96.1945 274.172 96.3073 274.246 96.4128C274.406 96.6154 274.624 96.7379 274.883 96.7683C275.123 96.787 275.385 96.7114 275.586 96.5707Z" fill="#201D67"/>
<path d="M279.258 95.2953C279.388 95.2623 279.492 95.2068 279.598 95.1322C279.995 94.8211 280.071 94.1916 279.759 93.797C279.674 93.6999 279.587 93.6219 279.468 93.5596C279.359 93.4983 279.238 93.4551 279.123 93.4415C278.999 93.4269 278.871 93.4408 278.76 93.4761C278.639 93.5103 278.526 93.5646 278.419 93.6392C278.216 93.799 278.092 94.0166 278.061 94.2741C278.046 94.3981 278.06 94.5254 278.095 94.636C278.129 94.756 278.183 94.8688 278.258 94.9744C278.418 95.177 278.636 95.2994 278.894 95.3299C279.009 95.3434 279.137 95.3294 279.258 95.2953Z" fill="#201D67"/>
<path d="M279.711 91.5306C279.832 91.4965 279.945 91.4421 280.051 91.3676C280.449 91.0469 280.525 90.4174 280.213 90.0324C280.127 89.9353 280.04 89.8573 279.921 89.7949C279.812 89.7337 279.691 89.6904 279.576 89.6769C279.318 89.6464 279.076 89.7148 278.873 89.8745C278.775 89.9598 278.695 90.0568 278.633 90.1656C278.572 90.2744 278.528 90.395 278.513 90.519C278.482 90.7765 278.55 91.0166 278.71 91.2192C278.795 91.3163 278.892 91.3955 279.001 91.4567C279.109 91.5275 279.232 91.5612 279.346 91.5747C279.462 91.5787 279.589 91.5743 279.711 91.5306Z" fill="#201D67"/>
<path d="M282.421 92.2082C282.217 92.368 282.094 92.5856 282.063 92.8431C282.048 92.9671 282.062 93.0945 282.097 93.205C282.131 93.3251 282.185 93.4379 282.26 93.5434C282.345 93.6405 282.442 93.7197 282.551 93.7809C282.66 93.8421 282.781 93.8854 282.896 93.8989C283.155 93.9293 283.397 93.8515 283.6 93.7013C283.89 93.4647 284.036 93.0658 283.925 92.6949C283.892 92.5653 283.837 92.4621 283.762 92.3565C283.601 92.1635 283.375 92.0304 283.126 92.001C283.001 91.9864 282.874 92.0003 282.762 92.0356C282.641 92.0793 282.527 92.1337 282.421 92.2082Z" fill="#201D67"/>
<path d="M328.732 45.4519C326.416 44.0071 325.017 41.3272 325.363 38.4484C325.84 34.4734 329.478 31.6278 333.476 32.1024C337.033 32.5247 339.689 35.4311 339.897 38.8784C337.726 38.7367 335.764 40.099 335.123 42.1113C334.869 42.0424 334.604 41.982 334.336 41.9501C331.824 41.6519 329.512 43.1661 328.732 45.4519Z" stroke="#151254" stroke-width="1.61235" stroke-linecap="round" stroke-linejoin="round"/>
<path d="M336.919 36.7954C336.989 36.214 336.568 35.6807 335.984 35.6117C335.4 35.5426 334.863 35.9627 334.793 36.5442C334.723 37.1257 335.144 37.6589 335.729 37.7279C336.322 37.7981 336.849 37.3769 336.919 36.7954Z" fill="#201D67"/>
<path d="M342.751 35.1187C342.821 34.5372 342.4 34.004 341.816 33.9349C341.232 33.8659 340.695 34.2859 340.625 34.8674C340.555 35.4489 340.977 35.9821 341.561 36.0512C342.156 36.1118 342.681 35.7002 342.751 35.1187Z" fill="#201D67"/>
<path d="M333.283 39.4839C333.353 38.9024 332.931 38.3692 332.347 38.3001C331.763 38.2311 331.227 38.6511 331.157 39.2326C331.086 39.8141 331.508 40.3474 332.092 40.4164C332.686 40.4866 333.212 40.0654 333.283 39.4839Z" fill="#201D67"/>
<path d="M328.906 39.8902C328.906 39.8902 328.815 39.6765 328.692 39.401C328.578 39.1363 328.479 38.9119 328.479 38.9119C328.479 38.9119 328.57 39.1256 328.692 39.401C328.816 39.6669 328.906 39.8902 328.906 39.8902Z" stroke="#151254" stroke-width="1.61235" stroke-linecap="round" stroke-linejoin="round"/>
<path d="M332.242 35.3672C332.242 35.3672 332.12 35.5749 331.973 35.828C331.826 36.0811 331.704 36.2889 331.704 36.2889C331.704 36.2889 331.826 36.0811 331.973 35.828C332.12 35.5749 332.242 35.3672 332.242 35.3672Z" stroke="#151254" stroke-width="1.61235" stroke-linecap="round" stroke-linejoin="round"/>
<path d="M338.837 31.3548C338.837 31.3548 338.98 31.5459 339.156 31.7797C339.332 32.0135 339.475 32.2045 339.475 32.2045C339.475 32.2045 339.332 32.0135 339.156 31.7797C338.98 31.5459 338.837 31.3548 338.837 31.3548Z" stroke="#151254" stroke-width="1.61235" stroke-linecap="round" stroke-linejoin="round"/>
<path d="M333.61 29.7603C334.86 28.9033 336.409 28.478 338.029 28.6703C341.567 29.0903 344.091 32.2808 343.669 35.7983C343.328 38.639 341.169 40.8287 338.481 41.3412" stroke="#151254" stroke-width="1.61235" stroke-linecap="round" stroke-linejoin="round"/>
<path d="M356.769 176.722C356.98 176.125 357.037 175.486 356.936 174.862C356.835 174.238 356.579 173.65 356.191 173.151C356.018 172.938 355.768 172.801 355.494 172.769C355.221 172.737 354.946 172.812 354.726 172.978L353.465 173.933" stroke="#151254" stroke-width="1.61235" stroke-linecap="round" stroke-linejoin="round"/>
<path d="M348.64 182.968C348.002 183.026 347.359 182.924 346.771 182.672C346.182 182.421 345.666 182.027 345.27 181.526C345.185 181.42 345.122 181.298 345.085 181.167C345.048 181.037 345.038 180.9 345.054 180.765C345.07 180.63 345.113 180.5 345.181 180.382C345.248 180.263 345.338 180.159 345.445 180.076L346.709 179.102" stroke="#151254" stroke-width="1.61235" stroke-linecap="round" stroke-linejoin="round"/>
<path d="M347.086 173.938C346.414 174.258 345.665 174.382 344.926 174.294C344.427 174.235 343.945 174.078 343.508 173.832C343.071 173.586 342.687 173.256 342.379 172.861C342.327 172.787 342.304 172.697 342.314 172.607C342.325 172.517 342.369 172.434 342.438 172.375C342.793 172.1 343.197 171.894 343.628 171.77C343.948 171.647 344.284 171.576 344.625 171.558C344.832 171.56 345.037 171.584 345.238 171.63C346.149 171.911 346.94 172.484 347.489 173.26C346.881 172.529 346.528 171.622 346.481 170.673C346.486 170.468 346.511 170.263 346.555 170.062C346.661 169.736 346.816 169.428 347.015 169.149C347.26 168.761 347.578 168.424 347.951 168.156C348.026 168.103 348.117 168.08 348.207 168.091C348.297 168.101 348.38 168.145 348.44 168.213C349.054 169.01 349.33 170.015 349.208 171.014C349.115 171.746 348.812 172.436 348.336 173.002" stroke="#151254" stroke-width="1.61235" stroke-linecap="round" stroke-linejoin="round"/>
<path d="M357.762 186.296C357.906 186.198 358.037 186.084 358.153 185.955C358.452 185.592 358.675 185.173 358.809 184.724C358.943 184.274 358.987 183.803 358.936 183.337C358.903 182.246 358.675 181.17 358.262 180.16C357.614 178.277 356.435 176.619 354.867 175.386C353.275 174.268 351.448 173.527 349.524 173.218C349.39 173.202 348.404 172.921 348.324 173.018L347.104 173.949C346.991 174.003 346.976 175.008 347.008 175.147C346.824 177.089 347.096 179.047 347.802 180.864C348.602 182.679 349.918 184.22 351.588 185.298C353.239 186.344 355.911 187.626 357.762 186.296Z" stroke="#151254" stroke-width="1.61235" stroke-linecap="round" stroke-linejoin="round"/>
<path d="M357.453 179.524C356.099 179.757 354.822 180.314 353.73 181.147C352.641 181.985 351.775 183.076 351.209 184.325" stroke="#151254" stroke-width="1.61235" stroke-linecap="round" stroke-linejoin="round"/>
<path d="M251.21 133.804C251.421 133.207 251.479 132.568 251.378 131.944C251.277 131.32 251.021 130.732 250.633 130.233C250.459 130.02 250.209 129.883 249.936 129.851C249.662 129.819 249.387 129.894 249.168 130.06L247.906 131.015" stroke="#151254" stroke-width="1.61235" stroke-linecap="round" stroke-linejoin="round"/>
<path d="M243.081 140.05C242.443 140.108 241.801 140.006 241.212 139.754C240.624 139.503 240.108 139.109 239.711 138.608C239.627 138.502 239.564 138.38 239.527 138.249C239.49 138.119 239.479 137.982 239.496 137.847C239.512 137.712 239.555 137.582 239.622 137.464C239.689 137.345 239.779 137.241 239.887 137.158L241.151 136.184" stroke="#151254" stroke-width="1.61235" stroke-linecap="round" stroke-linejoin="round"/>
<path d="M241.528 131.021C240.855 131.341 240.106 131.465 239.367 131.377C238.868 131.318 238.386 131.161 237.949 130.915C237.512 130.669 237.128 130.339 236.82 129.944C236.768 129.87 236.745 129.78 236.756 129.69C236.767 129.6 236.811 129.517 236.879 129.458C237.234 129.183 237.638 128.977 238.07 128.853C238.389 128.73 238.725 128.659 239.067 128.641C239.273 128.643 239.479 128.667 239.68 128.713C240.59 128.994 241.381 129.567 241.93 130.343C241.323 129.612 240.969 128.705 240.922 127.756C240.928 127.551 240.952 127.346 240.996 127.145C241.102 126.819 241.257 126.511 241.457 126.232C241.702 125.844 242.02 125.507 242.393 125.239C242.467 125.186 242.558 125.163 242.648 125.174C242.739 125.184 242.822 125.228 242.881 125.296C243.496 126.093 243.771 127.098 243.65 128.097C243.556 128.829 243.254 129.519 242.778 130.085" stroke="#151254" stroke-width="1.61235" stroke-linecap="round" stroke-linejoin="round"/>
<path d="M252.203 143.378C252.347 143.28 252.478 143.166 252.594 143.037C252.893 142.674 253.116 142.255 253.25 141.806C253.385 141.356 253.428 140.885 253.378 140.419C253.345 139.328 253.116 138.252 252.703 137.243C252.055 135.359 250.877 133.701 249.308 132.468C247.716 131.35 245.889 130.609 243.966 130.3C243.831 130.284 242.845 130.003 242.766 130.1L241.546 131.031C241.432 131.085 241.417 132.09 241.449 132.229C241.266 134.172 241.538 136.129 242.244 137.946C243.044 139.761 244.36 141.302 246.03 142.38C247.681 143.426 250.352 144.708 252.203 143.378Z" stroke="#151254" stroke-width="1.61235" stroke-linecap="round" stroke-linejoin="round"/>
<path d="M251.895 136.605C250.541 136.839 249.263 137.396 248.172 138.229C247.082 139.066 246.216 140.157 245.65 141.406" stroke="#151254" stroke-width="1.61235" stroke-linecap="round" stroke-linejoin="round"/>
<path d="M251.372 140.723C251.475 140.645 251.562 140.547 251.626 140.435C251.691 140.323 251.732 140.199 251.748 140.071C251.763 139.943 251.753 139.813 251.717 139.689C251.681 139.565 251.62 139.45 251.538 139.35C251.419 139.204 251.259 139.096 251.078 139.041C250.897 138.985 250.704 138.983 250.522 139.036C250.341 139.089 250.179 139.194 250.056 139.338C249.934 139.482 249.856 139.658 249.833 139.845C249.811 140.033 249.844 140.222 249.929 140.39C250.013 140.559 250.146 140.698 250.31 140.792C250.474 140.885 250.662 140.929 250.851 140.916C251.04 140.904 251.221 140.837 251.372 140.723Z" fill="#201D67"/>
<path d="M264.223 39.1889L265.074 32.1338L264.062 32.0143L263.211 39.0694L264.223 39.1889Z" stroke="#151254" stroke-width="1.61235" stroke-linecap="round" stroke-linejoin="round"/>
<path d="M271.81 44.4223C271.731 45.0708 271.059 45.4945 270.446 45.2675C266.635 43.8028 264.157 39.903 264.669 35.6691C265.181 31.4351 268.52 28.221 272.573 27.6832C273.224 27.5955 273.776 28.1635 273.697 28.8215L271.81 44.4223V44.4223Z" stroke="#151254" stroke-width="1.61235" stroke-linecap="round" stroke-linejoin="round"/>
<path d="M273.223 32.8287C273.089 33.9404 273.884 34.9482 275 35.0797C276.116 35.2112 277.13 34.4166 277.264 33.3049C277.399 32.1932 276.603 31.1854 275.487 31.0539C274.372 30.9224 273.358 31.717 273.223 32.8287Z" stroke="#151254" stroke-width="1.61235" stroke-linecap="round" stroke-linejoin="round"/>
<path d="M272.462 40.4498C272.327 41.5615 273.123 42.5693 274.239 42.7008C275.354 42.8322 276.368 42.0376 276.503 40.9259C276.637 39.8143 275.842 38.8065 274.726 38.675C273.61 38.5435 272.596 39.3381 272.462 40.4498Z" stroke="#151254" stroke-width="1.61235" stroke-linecap="round" stroke-linejoin="round"/>
<path d="M272.873 36.9588C272.772 37.7965 273.371 38.5559 274.212 38.655C275.053 38.7541 275.817 38.1553 275.918 37.3176C276.019 36.4799 275.42 35.7205 274.579 35.6214C273.738 35.5223 272.974 36.1211 272.873 36.9588Z" stroke="#151254" stroke-width="1.61235" stroke-linecap="round" stroke-linejoin="round"/>
<path d="M277.258 32.1952L280.82 29.4053" stroke="#151254" stroke-width="1.61235" stroke-linecap="round" stroke-linejoin="round"/>
<path d="M270.648 28.7207L268.835 43.8201" stroke="#151254" stroke-width="1.61235" stroke-linecap="round" stroke-linejoin="round"/>
<path d="M303.656 2.58964L305.723 -14.5684C304.135 -14.7562 302.7 -13.6306 302.509 -12.0482L301.131 -0.60957C300.94 0.972779 302.068 2.40176 303.656 2.58964Z" stroke="#151254" stroke-width="1.61235" stroke-linecap="round" stroke-linejoin="round"/>
<path d="M313.318 -4.96612C313.827 -9.18039 310.81 -12.999 306.577 -13.4994L305.619 -13.6126L303.779 1.64262L304.737 1.75583C308.97 2.25621 312.81 -0.75186 313.318 -4.96612Z" stroke="#151254" stroke-width="1.61235" stroke-linecap="round" stroke-linejoin="round"/>
<path d="M282.039 180.705L273.406 169.779C272.487 168.617 270.801 168.417 269.631 169.333C268.462 170.249 268.259 171.928 269.178 173.091L277.811 184.016C278.729 185.179 280.416 185.378 281.585 184.462C282.755 183.546 282.957 181.868 282.039 180.705Z" stroke="#151254" stroke-width="1.61235" stroke-linecap="round" stroke-linejoin="round"/>
<path d="M271.854 171.676C272.848 172.935 272.397 173.288 273.39 174.557C274.383 175.816 274.834 175.463 275.838 176.723C276.832 177.982 276.38 178.345 277.373 179.604C278.367 180.863 278.828 180.511 279.821 181.77" stroke="#151254" stroke-width="1.61235" stroke-linecap="round" stroke-linejoin="round"/>
<path d="M283.575 177.467L276.931 169.059C275.827 167.661 273.805 167.422 272.399 168.523L283.023 181.968C284.437 180.877 284.681 178.855 283.575 177.467Z" stroke="#151254" stroke-width="1.61235" stroke-linecap="round" stroke-linejoin="round"/>
<path d="M267.636 176.335L274.28 184.743C275.384 186.141 277.406 186.38 278.812 185.279L268.189 171.834C266.774 172.924 266.53 174.946 267.636 176.335Z" stroke="#151254" stroke-width="1.61235" stroke-linecap="round" stroke-linejoin="round"/>
<path d="M418.186 188.793L419.335 179.26C419.54 177.563 421.084 176.354 422.787 176.555L424.625 176.772L422.736 192.445L420.898 192.228C419.194 192.026 417.981 190.49 418.186 188.793Z" stroke="#151254" stroke-width="1.61235" stroke-linecap="round" stroke-linejoin="round"/>
<path d="M425.748 192.311L427.518 177.612C427.616 176.802 427.035 176.066 426.222 175.97C425.41 175.874 424.67 176.454 424.573 177.264L422.802 191.963C422.704 192.773 423.285 193.509 424.098 193.605C424.911 193.701 425.65 193.121 425.748 192.311Z" stroke="#151254" stroke-width="1.61235" stroke-linecap="round" stroke-linejoin="round"/>
<path d="M434.451 186.4L434.573 185.389C435.061 181.337 432.163 177.668 428.093 177.187L427.586 177.127L425.695 192.801L426.203 192.861C430.273 193.342 433.962 190.452 434.451 186.4Z" stroke="#151254" stroke-width="1.61235" stroke-linecap="round" stroke-linejoin="round"/>
<path d="M424.398 176.646C423.952 176.971 423.375 177.173 423.291 177.869C423.207 178.565 423.719 178.896 424.076 179.315" stroke="#151254" stroke-width="1.61235" stroke-linecap="round" stroke-linejoin="round"/>
<path d="M302.588 139.305L303.738 129.772C303.942 128.075 305.486 126.865 307.19 127.067L309.027 127.284L307.138 142.957L305.3 142.739C303.596 142.538 302.384 141.002 302.588 139.305Z" stroke="#151254" stroke-width="1.61235" stroke-linecap="round" stroke-linejoin="round"/>
<path d="M310.15 142.823L311.921 128.124C312.018 127.314 311.438 126.578 310.625 126.482C309.812 126.386 309.073 126.965 308.975 127.776L307.204 142.474C307.107 143.285 307.687 144.02 308.5 144.117C309.313 144.213 310.052 143.633 310.15 142.823Z" stroke="#151254" stroke-width="1.61235" stroke-linecap="round" stroke-linejoin="round"/>
<path d="M318.853 136.913L318.975 135.902C319.464 131.85 316.565 128.181 312.495 127.7L311.988 127.64L310.098 143.314L310.605 143.374C314.675 143.855 318.365 140.965 318.853 136.913Z" stroke="#151254" stroke-width="1.61235" stroke-linecap="round" stroke-linejoin="round"/>
<path d="M308.797 127.153C308.35 127.478 307.773 127.68 307.689 128.376C307.605 129.071 308.118 129.403 308.475 129.822" stroke="#151254" stroke-width="1.61235" stroke-linecap="round" stroke-linejoin="round"/>
<path d="M307.723 136.106C307.276 136.431 306.699 136.633 306.615 137.329C306.53 138.034 307.043 138.365 307.399 138.784" stroke="#151254" stroke-width="1.61235" stroke-linecap="round" stroke-linejoin="round"/>
<path d="M306.087 141.819C306.171 141.124 306.748 140.921 307.195 140.597" stroke="#151254" stroke-width="1.61235" stroke-linecap="round" stroke-linejoin="round"/>
<path d="M308.258 131.636C307.811 131.96 307.234 132.162 307.15 132.858C307.066 133.554 307.579 133.885 307.936 134.304" stroke="#151254" stroke-width="1.61235" stroke-linecap="round" stroke-linejoin="round"/>
</g>
<g opacity="0.25">
<path d="M217.707 105.594C215.897 103.556 215.319 100.592 216.471 97.9287C218.062 94.2511 222.362 92.547 226.061 94.1285C229.352 95.5356 231.07 99.071 230.288 102.436C228.246 101.688 225.976 102.442 224.788 104.191C224.564 104.054 224.327 103.921 224.078 103.815C221.754 102.821 219.106 103.622 217.707 105.594Z" stroke="#151254" stroke-width="1.61235" stroke-linecap="round" stroke-linejoin="round"/>
<path d="M228.025 99.5948C228.258 99.0565 228.006 98.4262 227.466 98.1957C226.926 97.9651 226.292 98.2173 226.059 98.7557C225.826 99.294 226.078 99.9242 226.618 100.155C227.167 100.389 227.792 100.133 228.025 99.5948Z" fill="#201D67"/>
<path d="M234.095 99.6299C234.328 99.0916 234.077 98.4614 233.537 98.2308C232.997 98.0003 232.363 98.2525 232.129 98.7908C231.896 99.3291 232.148 99.9593 232.688 100.19C233.241 100.415 233.862 100.168 234.095 99.6299Z" fill="#201D67"/>
<path d="M223.771 101.151C224.004 100.613 223.753 99.9829 223.212 99.7523C222.672 99.5217 222.038 99.774 221.805 100.312C221.572 100.851 221.824 101.481 222.364 101.711C222.913 101.946 223.538 101.69 223.771 101.151Z" fill="#201D67"/>
<path d="M219.454 100.314C219.454 100.314 219.428 100.083 219.389 99.7847C219.355 99.4987 219.324 99.2555 219.324 99.2555C219.324 99.2555 219.35 99.4861 219.389 99.7847C219.432 100.075 219.454 100.314 219.454 100.314Z" stroke="#151254" stroke-width="1.61235" stroke-linecap="round" stroke-linejoin="round"/>
<path d="M223.941 96.9111C223.941 96.9111 223.765 97.0759 223.552 97.2773C223.339 97.4786 223.162 97.6434 223.162 97.6434C223.162 97.6434 223.339 97.4786 223.552 97.2773C223.765 97.0759 223.941 96.9111 223.941 96.9111Z" stroke="#151254" stroke-width="1.61235" stroke-linecap="round" stroke-linejoin="round"/>
<path d="M231.411 94.9254C231.411 94.9254 231.494 95.1488 231.596 95.4227C231.698 95.6965 231.781 95.9199 231.781 95.9199C231.781 95.9199 231.698 95.6965 231.596 95.4227C231.494 95.1488 231.411 94.9254 231.411 94.9254Z" stroke="#151254" stroke-width="1.61235" stroke-linecap="round" stroke-linejoin="round"/>
<path d="M226.858 91.9202C228.301 91.4505 229.908 91.479 231.407 92.1199C234.68 93.5193 236.192 97.2903 234.784 100.545C233.647 103.173 230.952 104.664 228.229 104.399" stroke="#151254" stroke-width="1.61235" stroke-linecap="round" stroke-linejoin="round"/>
<path d="M145.771 76.3582L148.598 69.8301L147.661 69.4299L144.835 75.9581L145.771 76.3582Z" stroke="#151254" stroke-width="1.61235" stroke-linecap="round" stroke-linejoin="round"/>
<path d="M151.553 83.5164C151.293 84.1166 150.528 84.3338 150.005 83.9433C146.77 81.4646 145.507 77.0248 147.204 73.1063C148.902 69.1879 153.018 67.0441 157.056 67.6696C157.705 67.7688 158.073 68.4694 157.809 69.0783L151.553 83.5164V83.5164Z" stroke="#151254" stroke-width="1.61235" stroke-linecap="round" stroke-linejoin="round"/>
<path d="M156.217 72.789C155.772 73.818 156.247 75.0091 157.278 75.4494C158.31 75.8898 159.508 75.4126 159.954 74.3836C160.4 73.3547 159.925 72.1635 158.893 71.7232C157.861 71.2828 156.663 71.76 156.217 72.789Z" stroke="#151254" stroke-width="1.61235" stroke-linecap="round" stroke-linejoin="round"/>
<path d="M153.315 79.8895C152.869 80.9185 153.344 82.1096 154.376 82.55C155.408 82.9904 156.606 82.5132 157.052 81.4842C157.498 80.4552 157.023 79.2641 155.991 78.8238C154.959 78.3834 153.761 78.8606 153.315 79.8895Z" stroke="#151254" stroke-width="1.61235" stroke-linecap="round" stroke-linejoin="round"/>
<path d="M154.701 76.6574C154.365 77.4328 154.723 78.3304 155.5 78.6622C156.278 78.994 157.181 78.6344 157.517 77.859C157.853 77.0836 157.495 76.1861 156.717 75.8542C155.939 75.5224 155.037 75.882 154.701 76.6574Z" stroke="#151254" stroke-width="1.61235" stroke-linecap="round" stroke-linejoin="round"/>
<path d="M160.27 73.3239L164.48 71.6484" stroke="#151254" stroke-width="1.61235" stroke-linecap="round" stroke-linejoin="round"/>
<path d="M154.918 68.124L148.876 82.0928" stroke="#151254" stroke-width="1.61235" stroke-linecap="round" stroke-linejoin="round"/>
<path d="M205.862 57.4373L212.734 41.5605C211.266 40.9334 209.57 41.6091 208.936 43.0733L204.354 53.6578C203.72 55.122 204.394 56.8102 205.862 57.4373Z" stroke="#151254" stroke-width="1.61235" stroke-linecap="round" stroke-linejoin="round"/>
<path d="M217.278 52.9095C218.967 49.0089 217.166 44.4964 213.253 42.8256L212.367 42.4476L206.251 56.5675L207.137 56.9455C211.05 58.6162 215.588 56.8101 217.278 52.9095Z" stroke="#151254" stroke-width="1.61235" stroke-linecap="round" stroke-linejoin="round"/>
<path d="M216.621 52.6296C216.252 53.4828 216.646 54.4707 217.502 54.8362C218.358 55.2016 219.352 54.8062 219.721 53.953C220.091 53.0998 219.697 52.112 218.841 51.7465C217.984 51.3811 216.991 51.7765 216.621 52.6296Z" fill="#201D67"/>
<path d="M245.629 -0.568359C244.421 1.8101 242.292 3.79412 239.487 4.88359C236.708 5.963 233.77 5.95057 231.218 5.0474" stroke="#151254" stroke-width="1.61235" stroke-linecap="round" stroke-linejoin="round"/>
<path d="M230.21 5.80304L230.413 4.60465L232.467 -7.55691C232.745 -9.19383 234.636 -9.92128 235.983 -8.90626L238.84 -6.76514L239.021 -6.62501L241.504 -4.7591L241.743 -4.5836L245.904 -1.44643L246.917 -0.678859C247.893 0.0521081 248.14 1.40104 247.497 2.40101C245.919 4.86063 243.619 6.82402 240.739 7.9435C237.88 9.06175 234.838 9.17146 231.963 8.45455C230.787 8.16069 230.01 6.99261 230.21 5.80304Z" stroke="#151254" stroke-width="1.61235" stroke-linecap="round" stroke-linejoin="round"/>
<path d="M235.923 0.369752C235.586 1.14888 235.956 2.0555 236.749 2.39474C237.543 2.73398 238.459 2.37737 238.796 1.59824C239.133 0.819114 238.763 -0.087507 237.97 -0.426745C237.176 -0.765984 236.26 -0.409377 235.923 0.369752Z" stroke="#151254" stroke-width="1.61235" stroke-linecap="round" stroke-linejoin="round"/>
<path d="M179.187 138.227C178.391 135.807 178.481 133.013 179.641 130.382C180.793 127.769 182.792 125.79 185.137 124.68" stroke="#151254" stroke-width="1.61235" stroke-linecap="round" stroke-linejoin="round"/>
<path d="M181.311 123.545C179.337 124.952 177.736 126.854 176.715 129.16C175.523 131.864 175.3 134.751 175.898 137.487C176.142 138.595 177.234 139.344 178.392 139.189L179.606 139.027L184.568 138.329C184.568 138.329 188.097 137.836 191.425 137.373C193.033 137.148 193.824 135.372 192.896 134.076L186.011 124.441L185.332 123.492C184.657 122.555 183.336 122.285 182.341 122.886C181.985 123.079 181.643 123.31 181.311 123.545Z" stroke="#151254" stroke-width="1.61235" stroke-linecap="round" stroke-linejoin="round"/>
<path d="M185.327 129.082C185.508 128.908 185.611 128.67 185.614 128.42C185.62 128.287 185.596 128.172 185.555 128.05C185.455 127.819 185.276 127.628 185.046 127.529C184.807 127.427 184.556 127.425 184.316 127.521C184.075 127.617 183.894 127.791 183.791 128.029C183.688 128.268 183.684 128.517 183.78 128.757C183.875 128.996 184.058 129.179 184.289 129.277C184.519 129.375 184.782 129.373 185.019 129.286C185.142 129.244 185.246 129.173 185.327 129.082Z" fill="#201D67"/>
<path d="M182.952 132.184C183.133 132.01 183.236 131.772 183.239 131.522C183.241 131.397 183.221 131.274 183.18 131.151C183.08 130.921 182.901 130.729 182.671 130.631C182.432 130.529 182.181 130.527 181.941 130.622C181.7 130.718 181.519 130.893 181.416 131.131C181.313 131.369 181.309 131.619 181.405 131.858C181.5 132.098 181.675 132.277 181.914 132.379C182.144 132.477 182.407 132.474 182.644 132.387C182.758 132.342 182.858 132.28 182.952 132.184Z" fill="#201D67"/>
<path d="M182.01 136.257C182.479 136.07 182.732 135.488 182.546 135.021C182.446 134.791 182.267 134.599 182.037 134.501C181.798 134.399 181.547 134.397 181.307 134.493C181.066 134.588 180.885 134.763 180.782 135.001C180.732 135.116 180.709 135.242 180.711 135.358C180.71 135.483 180.73 135.606 180.771 135.728C180.866 135.968 181.041 136.147 181.28 136.249C181.505 136.334 181.777 136.335 182.01 136.257Z" fill="#201D67"/>
<path d="M185.899 136.065C186.034 136.07 186.149 136.046 186.272 136.004C186.741 135.817 186.993 135.235 186.807 134.768C186.753 134.651 186.692 134.552 186.596 134.458C186.509 134.369 186.405 134.293 186.299 134.248C186.184 134.199 186.057 134.176 185.941 134.179C185.815 134.178 185.691 134.198 185.568 134.24C185.327 134.336 185.147 134.51 185.044 134.748C184.994 134.863 184.971 134.989 184.973 135.105C184.971 135.23 184.991 135.353 185.033 135.475C185.128 135.715 185.302 135.894 185.541 135.996C185.648 136.041 185.774 136.064 185.899 136.065Z" fill="#201D67"/>
<path d="M187.407 132.585C187.533 132.587 187.657 132.566 187.78 132.525C188.253 132.329 188.505 131.746 188.315 131.289C188.261 131.172 188.199 131.072 188.104 130.979C188.016 130.889 187.913 130.814 187.807 130.768C187.568 130.667 187.317 130.664 187.076 130.76C186.958 130.814 186.854 130.885 186.764 130.972C186.674 131.059 186.597 131.163 186.548 131.277C186.444 131.516 186.441 131.765 186.537 132.005C186.591 132.122 186.661 132.225 186.748 132.315C186.832 132.413 186.939 132.48 187.045 132.525C187.155 132.562 187.278 132.593 187.407 132.585Z" fill="#201D67"/>
<path d="M189.81 133.998C189.569 134.094 189.389 134.268 189.286 134.506C189.236 134.621 189.213 134.747 189.215 134.863C189.213 134.988 189.233 135.111 189.275 135.234C189.329 135.351 189.399 135.454 189.486 135.544C189.573 135.633 189.677 135.709 189.783 135.754C190.022 135.856 190.277 135.85 190.514 135.763C190.86 135.617 191.113 135.276 191.113 134.888C191.118 134.755 191.095 134.64 191.053 134.518C190.954 134.287 190.775 134.096 190.545 133.997C190.43 133.948 190.303 133.926 190.186 133.928C190.057 133.936 189.933 133.956 189.81 133.998Z" fill="#201D67"/>
<path d="M80.7334 62.1317C79.9379 59.7116 80.0275 56.9168 81.1874 54.2864C82.3398 51.6737 84.3385 49.6942 86.6836 48.584" stroke="#151254" stroke-width="1.61235" stroke-linecap="round" stroke-linejoin="round"/>
<path d="M82.8577 47.4479C80.8835 48.8554 79.2828 50.7572 78.2623 53.0635C77.0696 55.7672 76.8466 58.6545 77.4449 61.3899C77.6885 62.4985 78.7807 63.247 79.939 63.0925L81.153 62.9303L86.1145 62.2324C86.1145 62.2324 89.6439 61.7396 92.9719 61.276C94.5801 61.0518 95.3709 59.2754 94.4426 57.9793L87.5584 48.3444L86.8785 47.395C86.2037 46.4583 84.8833 46.1879 83.8883 46.7889C83.5318 46.9821 83.1903 47.2131 82.8577 47.4479Z" stroke="#151254" stroke-width="1.61235" stroke-linecap="round" stroke-linejoin="round"/>
<path d="M86.8743 52.9857C87.0547 52.8116 87.158 52.5733 87.1613 52.3237C87.1667 52.19 87.143 52.0753 87.1016 51.9531C87.0023 51.7224 86.8231 51.5309 86.593 51.4327C86.354 51.3307 86.1033 51.3283 85.8624 51.4243C85.6215 51.5202 85.4412 51.6943 85.3379 51.9327C85.2346 52.171 85.2313 52.4206 85.3268 52.6601C85.4223 52.8996 85.6053 53.0823 85.8355 53.1805C86.0656 53.2787 86.329 53.276 86.566 53.1889C86.689 53.1472 86.793 53.0766 86.8743 52.9857Z" fill="#201D67"/>
<path d="M84.4993 56.0873C84.6797 55.9132 84.783 55.6749 84.7863 55.4252C84.7879 55.3004 84.768 55.1769 84.7266 55.0546C84.6273 54.8239 84.4481 54.6324 84.2179 54.5342C83.979 54.4322 83.7283 54.4299 83.4874 54.5258C83.2465 54.6218 83.0662 54.7959 82.9629 55.0342C82.8596 55.2726 82.8563 55.5222 82.9518 55.7617C83.0473 56.0012 83.2215 56.1801 83.4604 56.2821C83.6906 56.3803 83.954 56.3776 84.191 56.2905C84.3051 56.245 84.4053 56.1832 84.4993 56.0873Z" fill="#201D67"/>
<path d="M83.557 60.1605C84.0261 59.9736 84.2786 59.391 84.0926 58.9246C83.9933 58.694 83.8141 58.5024 83.584 58.4042C83.345 58.3023 83.0943 58.2999 82.8534 58.3958C82.6125 58.4918 82.4322 58.6659 82.3289 58.9042C82.2792 59.019 82.256 59.1451 82.2582 59.2611C82.2565 59.3859 82.2764 59.5094 82.3178 59.6317C82.4133 59.8712 82.5875 60.0501 82.8265 60.1521C83.0516 60.2377 83.3238 60.2388 83.557 60.1605Z" fill="#201D67"/>
<path d="M87.4463 59.9703C87.5805 59.9752 87.6958 59.9512 87.8187 59.9095C88.2878 59.7226 88.5403 59.14 88.3544 58.6737C88.3003 58.5564 88.2385 58.4569 88.1426 58.3636C88.0555 58.2742 87.9519 58.1986 87.8457 58.1533C87.7306 58.1042 87.6041 58.0815 87.4876 58.0841C87.3622 58.083 87.2381 58.1032 87.1151 58.1449C86.8743 58.2408 86.6939 58.4149 86.5906 58.6533C86.5409 58.768 86.5177 58.8941 86.5199 59.0101C86.5182 59.1349 86.5381 59.2585 86.5795 59.3807C86.675 59.6202 86.8492 59.7991 87.0882 59.9011C87.1944 59.9464 87.321 59.9691 87.4463 59.9703Z" fill="#201D67"/>
<path d="M88.9502 56.4907C89.0756 56.4919 89.1997 56.4717 89.3227 56.43C89.7955 56.2343 90.048 55.6517 89.8583 55.1942C89.8042 55.0769 89.7425 54.9774 89.6465 54.8841C89.5594 54.7947 89.4558 54.7191 89.3496 54.6738C89.1106 54.5718 88.8599 54.5694 88.619 54.6654C88.5011 54.7197 88.3971 54.7903 88.3069 54.8774C88.2168 54.9644 88.1405 55.0678 88.0907 55.1826C87.9874 55.4209 87.9841 55.6706 88.0796 55.9101C88.1337 56.0273 88.2043 56.1306 88.2914 56.2201C88.3746 56.3184 88.4821 56.3851 88.5883 56.4304C88.6983 56.4669 88.8211 56.4984 88.9502 56.4907Z" fill="#201D67"/>
<path d="M91.3571 57.9012C91.1162 57.9972 90.9358 58.1712 90.8326 58.4096C90.7828 58.5243 90.7596 58.6504 90.7618 58.7664C90.7602 58.8912 90.78 59.0148 90.8215 59.137C90.8755 59.2543 90.9461 59.3576 91.0332 59.4471C91.1203 59.5365 91.2239 59.6121 91.3301 59.6574C91.5691 59.7594 91.8236 59.753 92.0607 59.6658C92.4068 59.5206 92.6598 59.1788 92.6598 58.7918C92.6652 58.6581 92.6415 58.5434 92.6001 58.4211C92.5008 58.1905 92.3216 57.999 92.0914 57.9008C91.9764 57.8517 91.8498 57.829 91.7333 57.8316C91.6042 57.8393 91.48 57.8595 91.3571 57.9012Z" fill="#201D67"/>
<path d="M149.093 26.1071C147.284 24.0691 146.706 21.1048 147.858 18.4414C149.448 14.7638 153.749 13.0597 157.447 14.6412C160.738 16.0483 162.457 19.5837 161.674 22.9485C159.633 22.201 157.362 22.9545 156.175 24.704C155.95 24.5663 155.714 24.4337 155.465 24.3275C153.141 23.3338 150.493 24.1348 149.093 26.1071Z" stroke="#151254" stroke-width="1.61235" stroke-linecap="round" stroke-linejoin="round"/>
<path d="M159.415 20.1114C159.649 19.5731 159.397 18.9428 158.857 18.7123C158.317 18.4817 157.683 18.734 157.45 19.2723C157.217 19.8106 157.468 20.4408 158.008 20.6714C158.557 20.9057 159.182 20.6497 159.415 20.1114Z" fill="#201D67"/>
<path d="M165.482 20.1465C165.715 19.6082 165.464 18.978 164.923 18.7474C164.383 18.5169 163.749 18.7691 163.516 19.3074C163.283 19.8457 163.535 20.4759 164.075 20.7065C164.628 20.932 165.249 20.6848 165.482 20.1465Z" fill="#201D67"/>
<path d="M155.154 21.669C155.387 21.1307 155.135 20.5005 154.595 20.2699C154.055 20.0393 153.421 20.2915 153.188 20.8299C152.955 21.3682 153.206 21.9984 153.747 22.229C154.296 22.4633 154.921 22.2073 155.154 21.669Z" fill="#201D67"/>
<path d="M150.845 20.8267C150.845 20.8267 150.819 20.5961 150.78 20.2974C150.746 20.0114 150.714 19.7682 150.714 19.7682C150.714 19.7682 150.741 19.9988 150.78 20.2974C150.822 20.5872 150.845 20.8267 150.845 20.8267Z" stroke="#151254" stroke-width="1.61235" stroke-linecap="round" stroke-linejoin="round"/>
<path d="M155.328 17.4268C155.328 17.4268 155.152 17.5916 154.939 17.7929C154.726 17.9942 154.549 18.159 154.549 18.159C154.549 18.159 154.726 17.9942 154.939 17.7929C155.152 17.5916 155.328 17.4268 155.328 17.4268Z" stroke="#151254" stroke-width="1.61235" stroke-linecap="round" stroke-linejoin="round"/>
<path d="M162.802 15.4372C162.802 15.4372 162.884 15.6605 162.987 15.9344C163.089 16.2082 163.171 16.4316 163.171 16.4316C163.171 16.4316 163.089 16.2082 162.987 15.9344C162.884 15.6605 162.802 15.4372 162.802 15.4372Z" stroke="#151254" stroke-width="1.61235" stroke-linecap="round" stroke-linejoin="round"/>
<path d="M158.245 12.4339C159.688 11.9642 161.294 11.9926 162.793 12.6336C166.067 14.033 167.578 17.8039 166.171 21.0582C165.034 23.6864 162.339 25.1781 159.616 24.9125" stroke="#151254" stroke-width="1.61235" stroke-linecap="round" stroke-linejoin="round"/>
<path d="M138.573 159.896C138.945 159.383 139.183 158.786 139.264 158.159C139.345 157.532 139.267 156.895 139.038 156.307C138.932 156.054 138.732 155.852 138.479 155.745C138.226 155.637 137.941 155.631 137.683 155.729L136.202 156.29" stroke="#151254" stroke-width="1.61235" stroke-linecap="round" stroke-linejoin="round"/>
<path d="M128.998 163.597C128.37 163.472 127.783 163.194 127.291 162.787C126.799 162.379 126.417 161.856 126.18 161.264C126.129 161.138 126.104 161.003 126.105 160.868C126.107 160.732 126.136 160.598 126.19 160.473C126.244 160.348 126.323 160.235 126.421 160.141C126.519 160.046 126.635 159.972 126.762 159.922L128.25 159.343" stroke="#151254" stroke-width="1.61235" stroke-linecap="round" stroke-linejoin="round"/>
<path d="M130.082 154.503C129.346 154.62 128.593 154.528 127.91 154.235C127.448 154.038 127.031 153.752 126.682 153.393C126.334 153.034 126.06 152.609 125.878 152.144C125.848 152.058 125.852 151.965 125.888 151.881C125.924 151.798 125.99 151.731 126.073 151.693C126.491 151.529 126.937 151.446 127.386 151.448C127.727 151.42 128.07 151.446 128.402 151.525C128.599 151.586 128.789 151.667 128.969 151.767C129.761 152.293 130.356 153.066 130.661 153.965C130.287 153.093 130.207 152.122 130.433 151.199C130.496 151.003 130.578 150.814 130.678 150.633C130.872 150.35 131.109 150.098 131.379 149.886C131.725 149.583 132.126 149.349 132.56 149.197C132.646 149.167 132.74 149.171 132.823 149.206C132.907 149.242 132.974 149.307 133.011 149.389C133.373 150.327 133.351 151.369 132.949 152.293C132.651 152.969 132.164 153.546 131.547 153.956" stroke="#151254" stroke-width="1.61235" stroke-linecap="round" stroke-linejoin="round"/>
<path d="M136.792 169.361C136.957 169.308 137.115 169.235 137.263 169.144C137.653 168.88 137.986 168.541 138.243 168.147C138.5 167.754 138.676 167.314 138.76 166.852C139.04 165.796 139.128 164.699 139.02 163.614C138.936 161.623 138.279 159.701 137.128 158.076C135.921 156.555 134.382 155.329 132.626 154.491C132.502 154.438 131.637 153.891 131.533 153.962L130.099 154.511C129.974 154.532 129.674 155.492 129.664 155.634C128.935 157.446 128.637 159.401 128.795 161.344C129.045 163.311 129.867 165.161 131.16 166.665C132.443 168.134 134.638 170.117 136.792 169.361Z" stroke="#151254" stroke-width="1.61235" stroke-linecap="round" stroke-linejoin="round"/>
<path d="M138.434 162.775C137.07 162.618 135.687 162.793 134.403 163.285C133.12 163.782 131.979 164.585 131.08 165.624" stroke="#151254" stroke-width="1.61235" stroke-linecap="round" stroke-linejoin="round"/>
<path d="M136.759 166.578C136.88 166.532 136.991 166.462 137.085 166.373C137.179 166.283 137.253 166.176 137.305 166.058C137.356 165.939 137.383 165.811 137.384 165.682C137.385 165.553 137.359 165.425 137.309 165.306C137.237 165.133 137.114 164.985 136.957 164.88C136.799 164.776 136.615 164.72 136.426 164.72C136.236 164.719 136.051 164.774 135.893 164.878C135.734 164.981 135.61 165.129 135.535 165.302C135.46 165.475 135.437 165.667 135.47 165.852C135.504 166.037 135.591 166.209 135.721 166.345C135.852 166.48 136.02 166.575 136.204 166.617C136.389 166.658 136.581 166.644 136.759 166.578Z" fill="#201D67"/>
<path d="M49.5733 89.0019C49.9454 88.4887 50.1829 87.8913 50.264 87.2643C50.3451 86.6373 50.2674 86.0006 50.0378 85.4124C49.9321 85.1595 49.7317 84.9579 49.4789 84.85C49.2261 84.7421 48.9407 84.7365 48.6831 84.8343L47.202 85.3952" stroke="#151254" stroke-width="1.61235" stroke-linecap="round" stroke-linejoin="round"/>
<path d="M39.9985 92.7012C39.3701 92.5769 38.7834 92.2984 38.2913 91.8911C37.7991 91.4838 37.4171 90.9605 37.1798 90.3684C37.129 90.2426 37.1037 90.108 37.1055 89.9722C37.1073 89.8365 37.136 89.7024 37.1901 89.5776C37.2442 89.4528 37.3225 89.3398 37.4206 89.2451C37.5187 89.1505 37.6346 89.076 37.7615 89.0261L39.2503 88.4476" stroke="#151254" stroke-width="1.61235" stroke-linecap="round" stroke-linejoin="round"/>
<path d="M41.0816 83.6072C40.346 83.725 39.5927 83.6322 38.9096 83.3398C38.4484 83.1427 38.0313 82.8564 37.6825 82.4973C37.3337 82.1383 37.0601 81.7137 36.8776 81.2482C36.8483 81.1625 36.8521 81.069 36.8882 80.9858C36.9242 80.9025 36.99 80.8355 37.0728 80.7977C37.4913 80.6339 37.937 80.5506 38.3861 80.5522C38.7269 80.5245 39.0698 80.5507 39.4019 80.6298C39.5991 80.69 39.7891 80.7711 39.9688 80.8717C40.7612 81.3978 41.356 82.1704 41.661 83.0694C41.2869 82.1971 41.2068 81.2267 41.4326 80.3031C41.4961 80.1075 41.5782 79.9182 41.6776 79.7378C41.8719 79.4547 42.1085 79.2027 42.3792 78.9906C42.7248 78.6876 43.1256 78.4535 43.5596 78.3011C43.6457 78.2717 43.7396 78.2751 43.8231 78.3107C43.9065 78.3463 43.9736 78.4116 44.0113 78.4939C44.3729 79.4313 44.3506 80.4738 43.9491 81.3979C43.6509 82.0738 43.1641 82.6509 42.5466 83.0601" stroke="#151254" stroke-width="1.61235" stroke-linecap="round" stroke-linejoin="round"/>
<path d="M47.7915 98.4657C47.9569 98.4123 48.1154 98.3394 48.2635 98.2485C48.6531 97.9841 48.9861 97.6453 49.2431 97.2518C49.5002 96.8583 49.676 96.4181 49.7604 95.9567C50.04 94.9006 50.1279 93.8039 50.02 92.7184C49.936 90.728 49.2792 88.8057 48.1279 87.1803C46.9211 85.6598 45.3817 84.4338 43.6261 83.5953C43.5021 83.5424 42.6373 82.9955 42.5332 83.0662L41.0986 83.6158C40.9744 83.636 40.6737 84.5962 40.6644 84.7387C39.9346 86.551 39.6371 88.5057 39.7954 90.4487C40.0448 92.4158 40.8665 94.2652 42.1595 95.7695C43.4434 97.2384 45.638 99.2214 47.7915 98.4657Z" stroke="#151254" stroke-width="1.61235" stroke-linecap="round" stroke-linejoin="round"/>
<path d="M49.4336 91.8789C48.0697 91.7214 46.6866 91.8963 45.4032 92.3884C44.1203 92.8853 42.9791 93.6888 42.0804 94.728" stroke="#151254" stroke-width="1.61235" stroke-linecap="round" stroke-linejoin="round"/>
<path d="M47.7586 95.683C47.8799 95.6372 47.9909 95.5676 48.0847 95.4782C48.1786 95.3889 48.2535 95.2817 48.3049 95.163C48.3563 95.0444 48.3833 94.9167 48.384 94.7876C48.3848 94.6586 48.3595 94.5308 48.3095 94.4119C48.2365 94.2383 48.1138 94.0901 47.9567 93.9858C47.7995 93.8815 47.6148 93.8256 47.4256 93.8252C47.2364 93.8247 47.051 93.8797 46.8926 93.9833C46.7342 94.0868 46.6096 94.2344 46.5346 94.4076C46.4595 94.5808 46.4372 94.772 46.4704 94.9574C46.5036 95.1427 46.5909 95.314 46.7214 95.45C46.8519 95.586 47.0198 95.6806 47.2042 95.722C47.3886 95.7634 47.5814 95.7499 47.7586 95.683Z" fill="#201D67"/>
<path d="M11.0156 138.761L-0.578368 138.116L7.86812 146.024" stroke="#151254" stroke-width="1.61235" stroke-linecap="round" stroke-linejoin="round"/>
<path d="M7.54671 148.033C7.61161 147.883 7.66004 147.747 7.69583 147.616C7.95682 146.578 7.28994 146.136 7.81679 144.919C8.40854 143.552 9.31814 143.94 9.90226 142.591C10.494 141.224 9.58441 140.835 10.1685 139.485C10.6954 138.268 11.4641 138.45 12.0557 137.543C12.123 137.436 12.1929 137.298 12.2578 137.148" stroke="#151254" stroke-width="1.61235" stroke-linecap="round" stroke-linejoin="round"/>
<path d="M9.30408 147.715C8.82601 147.511 8.37856 147.237 8.00982 146.902C8.21405 145.995 7.53402 145.579 7.98564 144.537C8.49467 143.362 9.40655 143.751 9.90792 142.595C10.417 141.42 9.50508 141.031 10.0065 139.874C10.4581 138.832 11.2249 139.024 11.7529 138.265C12.248 138.309 12.7605 138.434 13.2385 138.638C15.7528 139.71 16.9088 142.61 15.8218 145.118C14.7349 147.626 11.8184 148.788 9.30408 147.715Z" stroke="#151254" stroke-width="1.61235" stroke-linecap="round" stroke-linejoin="round"/>
<path d="M6.5748 146.539L10.4961 137.473" stroke="#151254" stroke-width="1.61235" stroke-linecap="round" stroke-linejoin="round"/>
<path d="M89.0136 1.93438L91.8398 -4.59375L90.9031 -4.99389L88.0769 1.53424L89.0136 1.93438Z" stroke="#151254" stroke-width="1.61235" stroke-linecap="round" stroke-linejoin="round"/>
<path d="M94.7952 9.09163C94.5352 9.69175 93.7701 9.90898 93.2473 9.51853C90.0124 7.03979 88.7489 2.59995 90.4467 -1.31847C92.1444 -5.23688 96.2604 -7.38069 100.298 -6.75525C100.947 -6.65604 101.315 -5.95543 101.051 -5.34649L94.7952 9.09163V9.09163Z" stroke="#151254" stroke-width="1.61235" stroke-linecap="round" stroke-linejoin="round"/>
<path d="M99.4596 -1.63973C99.0137 -0.610759 99.4888 0.580348 100.521 1.0207C101.553 1.46105 102.751 0.983898 103.197 -0.0450729C103.642 -1.07404 103.167 -2.26518 102.135 -2.70553C101.104 -3.14588 99.9055 -2.6687 99.4596 -1.63973Z" stroke="#151254" stroke-width="1.61235" stroke-linecap="round" stroke-linejoin="round"/>
<path d="M96.5573 5.46083C96.1114 6.4898 96.5864 7.68094 97.6183 8.12129C98.6503 8.56164 99.8483 8.08446 100.294 7.05549C100.74 6.02652 100.265 4.83541 99.2331 4.39506C98.2012 3.9547 97.0032 4.43186 96.5573 5.46083Z" stroke="#151254" stroke-width="1.61235" stroke-linecap="round" stroke-linejoin="round"/>
<path d="M97.9428 2.22769C97.6068 3.00307 97.9648 3.90067 98.7424 4.2325C99.52 4.56433 100.423 4.20473 100.759 3.42935C101.095 2.65396 100.737 1.75639 99.9592 1.42456C99.1816 1.09273 98.2788 1.4523 97.9428 2.22769Z" stroke="#151254" stroke-width="1.61235" stroke-linecap="round" stroke-linejoin="round"/>
<path d="M103.512 -1.10388L107.723 -2.7793" stroke="#151254" stroke-width="1.61235" stroke-linecap="round" stroke-linejoin="round"/>
<path d="M98.1602 -6.29883L92.1184 7.66994" stroke="#151254" stroke-width="1.61235" stroke-linecap="round" stroke-linejoin="round"/>
<path d="M93.0352 183.397C91.8277 185.776 89.6978 187.76 86.8933 188.849C84.1141 189.929 81.1765 189.916 78.6242 189.013" stroke="#151254" stroke-width="1.61235" stroke-linecap="round" stroke-linejoin="round"/>
<path d="M77.6158 189.77L77.8189 188.571L79.8736 176.41C80.1508 174.773 82.0418 174.046 83.3893 175.061L86.2466 177.202L86.4277 177.342L88.91 179.208L89.1494 179.383L93.3099 182.52L94.3231 183.288C95.2996 184.019 95.5463 185.368 94.9037 186.368C93.3249 188.827 91.0254 190.791 88.1451 191.91C85.2863 193.029 82.2438 193.138 79.3695 192.421C78.1935 192.127 77.4166 190.959 77.6158 189.77Z" stroke="#151254" stroke-width="1.61235" stroke-linecap="round" stroke-linejoin="round"/>
<path d="M86.1275 179.346C85.8406 178.649 85.9823 177.884 86.4443 177.35L89.6811 179.779C89.4564 180.08 89.1595 180.329 88.779 180.48C87.7303 180.888 86.542 180.38 86.1275 179.346Z" stroke="#151254" stroke-width="1.61235" stroke-linecap="round" stroke-linejoin="round"/>
<path d="M80.5921 178.296C81.1637 178.384 81.674 178.759 81.9053 179.318C82.2528 180.166 81.841 181.118 80.9824 181.451C80.7034 181.562 80.4068 181.592 80.1229 181.544" stroke="#151254" stroke-width="1.61235" stroke-linecap="round" stroke-linejoin="round"/>
<path d="M65.7694 142.67L60.6147 129.757C60.066 128.383 58.5069 127.717 57.1244 128.267C55.742 128.817 55.0689 130.371 55.6176 131.746L60.7723 144.658C61.321 146.033 62.8801 146.698 64.2626 146.148C65.645 145.598 66.3181 144.044 65.7694 142.67Z" stroke="#151254" stroke-width="1.61235" stroke-linecap="round" stroke-linejoin="round"/>
<path d="M58.5864 131.14C59.1798 132.628 58.647 132.84 59.2366 134.337C59.83 135.825 60.3627 135.613 60.965 137.105C61.5584 138.593 61.0218 138.814 61.6152 140.303C62.2086 141.791 62.7502 141.582 63.3436 143.071" stroke="#151254" stroke-width="1.61235" stroke-linecap="round" stroke-linejoin="round"/>
<path d="M68.1664 139.998L64.1992 130.06C63.5397 128.408 61.6703 127.61 60.0086 128.271L66.3522 144.162C68.0189 143.513 68.8298 141.642 68.1664 139.998Z" stroke="#151254" stroke-width="1.61235" stroke-linecap="round" stroke-linejoin="round"/>
<path d="M53.2139 134.422L57.1812 144.36C57.8407 146.012 59.7101 146.81 61.3718 146.149L55.0282 130.258C53.3615 130.907 52.5506 132.779 53.2139 134.422Z" stroke="#151254" stroke-width="1.61235" stroke-linecap="round" stroke-linejoin="round"/>
<path d="M194.026 188.783L197.847 179.961C198.527 178.391 200.351 177.664 201.926 178.337L203.625 179.062L197.344 193.566L195.645 192.841C194.07 192.168 193.346 190.354 194.026 188.783Z" stroke="#151254" stroke-width="1.61235" stroke-linecap="round" stroke-linejoin="round"/>
<path d="M200.274 194.284L206.162 180.683C206.487 179.933 206.14 179.064 205.388 178.742C204.636 178.421 203.763 178.769 203.438 179.519L197.55 193.12C197.226 193.87 197.573 194.739 198.324 195.06C199.076 195.381 199.95 195.033 200.274 194.284Z" stroke="#151254" stroke-width="1.61235" stroke-linecap="round" stroke-linejoin="round"/>
<path d="M203.449 178.879C202.929 179.064 202.318 179.096 202.039 179.74C201.76 180.384 202.157 180.846 202.38 181.348" stroke="#151254" stroke-width="1.61235" stroke-linecap="round" stroke-linejoin="round"/>
<path d="M97.2762 108.755L101.097 99.9326C101.777 98.3623 103.601 97.636 105.176 98.3086L106.875 99.0342L100.594 113.538L98.8954 112.812C97.3203 112.14 96.5962 110.325 97.2762 108.755Z" stroke="#151254" stroke-width="1.61235" stroke-linecap="round" stroke-linejoin="round"/>
<path d="M103.524 114.256L109.412 100.655C109.737 99.9055 109.39 99.0362 108.638 98.7151C107.886 98.3939 107.013 98.7418 106.688 99.4916L100.8 113.093C100.476 113.842 100.823 114.712 101.574 115.033C102.326 115.354 103.2 115.006 103.524 114.256Z" stroke="#151254" stroke-width="1.61235" stroke-linecap="round" stroke-linejoin="round"/>
<path d="M113.554 111.039L113.959 110.103C115.584 106.353 113.853 102.017 110.091 100.411L109.621 100.21L103.338 114.718L103.807 114.918C107.569 116.524 111.93 114.789 113.554 111.039Z" stroke="#151254" stroke-width="1.61235" stroke-linecap="round" stroke-linejoin="round"/>
<path d="M106.699 98.8467C106.179 99.032 105.568 99.0637 105.289 99.7075C105.01 100.351 105.407 100.813 105.63 101.316" stroke="#151254" stroke-width="1.61235" stroke-linecap="round" stroke-linejoin="round"/>
<path d="M103.117 107.129C102.597 107.314 101.986 107.346 101.707 107.99C101.424 108.642 101.821 109.105 102.044 109.607" stroke="#151254" stroke-width="1.61235" stroke-linecap="round" stroke-linejoin="round"/>
<path d="M99.9167 112.15C100.196 111.506 100.807 111.474 101.328 111.289" stroke="#151254" stroke-width="1.61235" stroke-linecap="round" stroke-linejoin="round"/>
<path d="M104.902 102.994C104.382 103.179 103.771 103.211 103.492 103.855C103.213 104.499 103.61 104.961 103.833 105.464" stroke="#151254" stroke-width="1.61235" stroke-linecap="round" stroke-linejoin="round"/>
</g>
<g opacity="0.25">
<path d="M14.3569 5.45765C13.8924 2.95202 14.3559 0.193407 15.8589 -2.25885C17.3519 -4.69463 19.5996 -6.38924 22.0742 -7.17578" stroke="#151254" stroke-width="1.61235" stroke-linecap="round" stroke-linejoin="round"/>
<path d="M18.4299 -8.8165C16.285 -7.68567 14.4438 -6.0151 13.1233 -3.86602C11.579 -1.34612 10.971 1.48543 11.1972 4.27636C11.29 5.40755 12.272 6.29551 13.4405 6.29727L14.6653 6.29896L19.6755 6.27099C19.6755 6.27099 23.2391 6.25479 26.5991 6.2405C28.2228 6.23343 29.2446 4.57876 28.4984 3.17013L22.968 -7.2992L22.4215 -8.331C21.8784 -9.34963 20.6062 -9.79422 19.5396 -9.33174C19.1604 -9.18797 18.791 -9.0047 18.4299 -8.8165Z" stroke="#151254" stroke-width="1.61235" stroke-linecap="round" stroke-linejoin="round"/>
<path d="M18.901 -0.0335461C19.1031 -0.181952 19.2374 -0.40434 19.2741 -0.65129C19.2925 -0.774765 19.2894 -0.899855 19.2647 -1.02657C19.1972 -1.26844 19.0453 -1.48222 18.8304 -1.61033C18.6072 -1.74337 18.3591 -1.77926 18.1076 -1.71638C17.856 -1.6535 17.654 -1.50508 17.5196 -1.2827C17.3853 -1.06031 17.3486 -0.813363 17.4111 -0.563251C17.4736 -0.313139 17.6223 -0.112527 17.8454 0.0205078C18.0603 0.148615 18.3217 0.181205 18.5683 0.126563C18.6874 0.096779 18.795 0.0488935 18.901 -0.0335461Z" fill="#201D67"/>
<path d="M17.4182 3.87828C17.9081 3.75584 18.2364 3.21223 18.1147 2.72517C18.0472 2.4833 17.8952 2.26952 17.6803 2.14141C17.4572 2.00838 17.2091 1.97249 16.9575 2.03537C16.706 2.09824 16.5039 2.24664 16.3696 2.46903C16.3049 2.57611 16.265 2.69797 16.2517 2.81321C16.2333 2.93668 16.2364 3.06177 16.2611 3.18848C16.3236 3.43859 16.4722 3.63921 16.6954 3.77225C16.907 3.88719 17.1766 3.92469 17.4182 3.87828Z" fill="#201D67"/>
<path d="M21.2988 4.20802C21.4311 4.23089 21.5486 4.22249 21.676 4.19763C22.1659 4.07519 22.4942 3.53158 22.3725 3.04452C22.3346 2.92112 22.2868 2.81419 22.2042 2.70896C22.1299 2.60865 22.0373 2.51988 21.9382 2.46075C21.8307 2.3967 21.7083 2.35736 21.5925 2.34434C21.4685 2.3264 21.3427 2.32986 21.2153 2.35472C20.9638 2.41759 20.7617 2.566 20.6274 2.78839C20.5627 2.89546 20.5229 3.01732 20.5095 3.13255C20.4911 3.25603 20.4942 3.38112 20.5189 3.50783C20.5814 3.75794 20.73 3.95856 20.9532 4.0916C21.0524 4.15072 21.1748 4.19007 21.2988 4.20802Z" fill="#201D67"/>
<path d="M23.2598 0.957022C23.3838 0.974966 23.5096 0.971509 23.637 0.946653C24.1318 0.81597 24.4601 0.272364 24.3334 -0.206457C24.2955 -0.329857 24.2477 -0.436784 24.1651 -0.54202C24.0908 -0.642329 23.9983 -0.731098 23.8991 -0.790225C23.6759 -0.923259 23.4278 -0.959137 23.1763 -0.89626C23.0521 -0.858239 22.9396 -0.802135 22.8385 -0.727932C22.7375 -0.65373 22.6481 -0.561433 22.5834 -0.454358C22.4491 -0.231972 22.4123 0.0149708 22.4749 0.265081C22.5127 0.388482 22.5688 0.500343 22.6432 0.600652C22.7125 0.709197 22.81 0.789723 22.9092 0.848849C23.0133 0.899739 23.1307 0.947315 23.2598 0.957022Z" fill="#201D67"/>
<path d="M25.4566 2.67677C25.2051 2.73965 25.003 2.88805 24.8687 3.11043C24.8041 3.21751 24.7642 3.33936 24.7508 3.4546C24.7324 3.57808 24.7356 3.70317 24.7602 3.82988C24.7981 3.95328 24.8542 4.06515 24.9285 4.16545C25.0028 4.26576 25.0953 4.35453 25.1945 4.41365C25.4177 4.54669 25.6708 4.57433 25.9174 4.51969C26.2798 4.4221 26.5764 4.1172 26.6282 3.73361C26.6515 3.6019 26.6434 3.48504 26.6188 3.35833C26.5513 3.11646 26.3994 2.90268 26.1845 2.77457C26.077 2.71052 25.9546 2.67118 25.8388 2.65816C25.7098 2.64846 25.5841 2.65191 25.4566 2.67677Z" fill="#201D67"/>
<path d="M22.2577 57.5319L27.2296 49.2975C28.1146 47.8317 30.0205 47.3555 31.4915 48.2326L33.0781 49.1787L24.9043 62.7161L23.3176 61.77C21.8467 60.8929 21.3727 58.9976 22.2577 57.5319Z" stroke="#151254" stroke-width="1.61235" stroke-linecap="round" stroke-linejoin="round"/>
<path d="M27.7111 63.8175L35.3752 51.1224C35.7977 50.4226 35.5706 49.5146 34.8684 49.0958C34.1663 48.677 33.2533 48.9052 32.8308 49.605L25.1667 62.3001C24.7443 62.9999 24.9713 63.9079 25.6735 64.3267C26.3757 64.7454 27.2886 64.5173 27.7111 63.8175Z" stroke="#151254" stroke-width="1.61235" stroke-linecap="round" stroke-linejoin="round"/>
<path d="M38.0818 61.9624L38.609 61.0894C40.7227 57.5891 39.59 53.0605 36.0769 50.9659L35.6388 50.7047L27.4624 64.2447L27.9005 64.5059C31.4137 66.6005 35.9681 65.4627 38.0818 61.9624Z" stroke="#151254" stroke-width="1.61235" stroke-linecap="round" stroke-linejoin="round"/>
<path d="M32.9258 48.9678C32.385 49.0819 31.775 49.0317 31.4122 49.6326C31.0493 50.2334 31.381 50.7446 31.5341 51.2725" stroke="#151254" stroke-width="1.61235" stroke-linecap="round" stroke-linejoin="round"/>
<path d="M28.2617 56.6953C27.7209 56.8095 27.1109 56.7592 26.7481 57.3601C26.3803 57.9692 26.712 58.4804 26.8651 59.0083" stroke="#151254" stroke-width="1.61235" stroke-linecap="round" stroke-linejoin="round"/>
<path d="M24.4154 61.2402C24.7784 60.6391 25.3887 60.6894 25.9297 60.5752" stroke="#151254" stroke-width="1.61235" stroke-linecap="round" stroke-linejoin="round"/>
<path d="M30.5898 52.8359C30.0491 52.9501 29.4391 52.8998 29.0762 53.5007C28.7134 54.1016 29.0451 54.6128 29.1982 55.1407" stroke="#151254" stroke-width="1.61235" stroke-linecap="round" stroke-linejoin="round"/>
</g>
<g opacity="0.25">
<path d="M520.98 63.1396L510.261 67.5797L521.351 71.0277" stroke="#151254" stroke-width="1.61235" stroke-linecap="round" stroke-linejoin="round"/>
<path d="M521.927 72.9801C521.919 72.8171 521.903 72.6737 521.877 72.5403C521.655 71.4932 520.862 71.3851 520.8 70.0616C520.73 68.5751 521.718 68.5302 521.649 67.0628C521.579 65.5763 520.591 65.6212 520.522 64.1539C520.46 62.8304 521.231 62.6608 521.363 61.588C521.376 61.4624 521.379 61.3085 521.371 61.1455" stroke="#151254" stroke-width="1.61235" stroke-linecap="round" stroke-linejoin="round"/>
<path d="M523.367 71.9258C522.847 71.9493 522.323 71.8961 521.843 71.7544C521.627 70.8508 520.831 70.7714 520.778 69.6392C520.717 68.3631 521.71 68.3182 521.651 67.0612C521.591 65.7851 520.598 65.8301 520.539 64.5732C520.485 63.441 521.26 63.2809 521.401 62.3707C521.866 62.1958 522.382 62.0858 522.902 62.0623C525.639 61.9383 527.959 64.0447 528.088 66.7696C528.216 69.4946 526.104 71.8018 523.367 71.9258Z" stroke="#151254" stroke-width="1.61235" stroke-linecap="round" stroke-linejoin="round"/>
<path d="M520.403 72.0557L519.945 62.1973" stroke="#151254" stroke-width="1.61235" stroke-linecap="round" stroke-linejoin="round"/>
<path d="M524.297 164.662L523.965 157.565L522.945 157.612L523.278 164.709L524.297 164.662Z" stroke="#151254" stroke-width="1.61235" stroke-linecap="round" stroke-linejoin="round"/>
<path d="M532.656 168.586C532.686 169.238 532.093 169.765 531.45 169.641C527.443 168.814 524.346 165.37 524.146 161.111C523.947 156.853 526.708 153.143 530.62 151.955C531.248 151.763 531.888 152.234 531.919 152.896L532.656 168.586V168.586Z" stroke="#151254" stroke-width="1.61235" stroke-linecap="round" stroke-linejoin="round"/>
<path d="M532.117 156.91C532.17 158.028 533.123 158.893 534.246 158.842C535.369 158.79 536.237 157.843 536.185 156.725C536.132 155.607 535.179 154.743 534.056 154.794C532.933 154.845 532.065 155.792 532.117 156.91Z" stroke="#151254" stroke-width="1.61235" stroke-linecap="round" stroke-linejoin="round"/>
<path d="M532.625 164.557C532.678 165.674 533.631 166.539 534.754 166.488C535.877 166.437 536.745 165.489 536.693 164.372C536.64 163.254 535.687 162.389 534.564 162.44C533.441 162.491 532.573 163.439 532.625 164.557Z" stroke="#151254" stroke-width="1.61235" stroke-linecap="round" stroke-linejoin="round"/>
<path d="M532.452 161.048C532.491 161.891 533.21 162.542 534.056 162.504C534.902 162.465 535.556 161.751 535.517 160.909C535.477 160.067 534.759 159.415 533.913 159.454C533.066 159.492 532.412 160.206 532.452 161.048Z" stroke="#151254" stroke-width="1.61235" stroke-linecap="round" stroke-linejoin="round"/>
<path d="M535.999 155.628L539.051 152.298" stroke="#151254" stroke-width="1.61235" stroke-linecap="round" stroke-linejoin="round"/>
<path d="M528.902 153.282L529.608 168.473" stroke="#151254" stroke-width="1.61235" stroke-linecap="round" stroke-linejoin="round"/>
<path d="M459.545 180.123C457.761 178.292 456.61 175.739 456.494 172.871C456.38 170.022 457.307 167.375 458.93 165.359" stroke="#151254" stroke-width="1.61235" stroke-linecap="round" stroke-linejoin="round"/>
<path d="M454.976 165.995C453.819 168.114 453.217 170.516 453.316 173.031C453.435 175.977 454.508 178.668 456.253 180.867C456.962 181.757 458.275 181.957 459.25 181.317L460.271 180.646L464.43 177.87C464.43 177.87 467.39 175.899 470.181 174.042C471.53 173.144 471.459 171.206 470.051 170.443L459.603 164.765L458.572 164.206C457.551 163.657 456.243 163.985 455.613 164.956C455.377 165.284 455.171 165.64 454.976 165.995Z" stroke="#151254" stroke-width="1.61235" stroke-linecap="round" stroke-linejoin="round"/>
<path d="M461.036 169.23C461.122 168.996 461.11 168.737 461.003 168.511C460.948 168.388 460.877 168.296 460.785 168.204C460.594 168.039 460.348 167.945 460.098 167.956C459.838 167.968 459.611 168.075 459.436 168.265C459.262 168.456 459.176 168.69 459.189 168.949C459.201 169.208 459.308 169.434 459.499 169.607C459.691 169.781 459.936 169.866 460.187 169.855C460.437 169.843 460.673 169.727 460.848 169.546C460.941 169.455 461.003 169.347 461.036 169.23Z" fill="#201D67"/>
<path d="M460.267 173.052C460.352 172.818 460.34 172.559 460.233 172.333C460.179 172.22 460.107 172.118 460.016 172.026C459.825 171.862 459.579 171.767 459.328 171.779C459.068 171.79 458.841 171.897 458.667 172.087C458.492 172.278 458.407 172.512 458.419 172.771C458.431 173.03 458.538 173.256 458.73 173.43C458.922 173.604 459.157 173.689 459.417 173.677C459.668 173.666 459.904 173.549 460.079 173.368C460.161 173.278 460.224 173.179 460.267 173.052Z" fill="#201D67"/>
<path d="M461.211 177.123C461.551 176.752 461.521 176.119 461.148 175.78C460.957 175.616 460.711 175.522 460.461 175.533C460.2 175.545 459.974 175.651 459.799 175.842C459.625 176.032 459.539 176.267 459.551 176.526C459.557 176.65 459.592 176.774 459.645 176.877C459.699 176.99 459.771 177.092 459.862 177.184C460.054 177.358 460.289 177.444 460.55 177.432C460.79 177.411 461.036 177.294 461.211 177.123Z" fill="#201D67"/>
<path d="M464.621 175.263C464.744 175.209 464.837 175.137 464.93 175.047C465.27 174.676 465.24 174.043 464.867 173.704C464.766 173.622 464.667 173.56 464.539 173.517C464.422 173.475 464.295 173.452 464.179 173.457C464.054 173.463 463.93 173.497 463.826 173.55C463.713 173.603 463.61 173.675 463.518 173.766C463.343 173.956 463.258 174.191 463.27 174.45C463.276 174.574 463.311 174.698 463.364 174.801C463.417 174.914 463.49 175.016 463.581 175.108C463.772 175.282 464.008 175.367 464.268 175.356C464.384 175.35 464.508 175.316 464.621 175.263Z" fill="#201D67"/>
<path d="M464.446 171.477C464.559 171.424 464.662 171.352 464.754 171.262C465.093 170.881 465.064 170.248 464.691 169.919C464.591 169.837 464.491 169.774 464.364 169.732C464.246 169.69 464.119 169.666 464.003 169.672C463.743 169.684 463.517 169.79 463.342 169.981C463.26 170.08 463.197 170.189 463.155 170.306C463.112 170.423 463.089 170.549 463.095 170.674C463.107 170.933 463.214 171.159 463.406 171.333C463.506 171.414 463.615 171.477 463.733 171.519C463.851 171.572 463.977 171.585 464.093 171.58C464.208 171.565 464.333 171.54 464.446 171.477Z" fill="#201D67"/>
<path d="M467.232 171.701C467.058 171.892 466.972 172.126 466.984 172.385C466.99 172.51 467.025 172.633 467.078 172.737C467.131 172.85 467.204 172.952 467.295 173.044C467.396 173.126 467.505 173.188 467.623 173.231C467.74 173.273 467.867 173.297 467.983 173.291C468.243 173.279 468.469 173.163 468.644 172.983C468.892 172.702 468.969 172.286 468.798 171.938C468.744 171.815 468.672 171.722 468.581 171.63C468.389 171.466 468.144 171.372 467.893 171.383C467.768 171.389 467.644 171.423 467.54 171.476C467.427 171.539 467.324 171.611 467.232 171.701Z" fill="#201D67"/>
<path d="M505.194 118.016C502.67 116.969 500.847 114.554 500.713 111.658C500.527 107.659 503.645 104.258 507.668 104.073C511.246 103.908 514.346 106.342 515.121 109.708C512.956 109.923 511.245 111.587 510.946 113.677C510.684 113.65 510.412 113.634 510.142 113.646C507.615 113.763 505.585 115.634 505.194 118.016Z" stroke="#151254" stroke-width="1.61235" stroke-linecap="round" stroke-linejoin="round"/>
<path d="M511.835 108.137C511.808 107.553 511.303 107.095 510.715 107.122C510.128 107.149 509.668 107.65 509.695 108.235C509.723 108.82 510.227 109.277 510.815 109.25C511.412 109.223 511.862 108.722 511.835 108.137Z" fill="#201D67"/>
<path d="M517.308 105.538C517.28 104.953 516.776 104.496 516.188 104.523C515.6 104.549 515.141 105.051 515.168 105.636C515.195 106.22 515.7 106.678 516.287 106.651C516.885 106.614 517.335 106.123 517.308 105.538Z" fill="#201D67"/>
<path d="M508.69 111.385C508.663 110.801 508.159 110.343 507.571 110.37C506.983 110.397 506.524 110.898 506.551 111.483C506.578 112.068 507.082 112.525 507.67 112.498C508.268 112.471 508.718 111.97 508.69 111.385Z" fill="#201D67"/>
<path d="M504.445 112.506C504.445 112.506 504.32 112.31 504.154 112.058C503.998 111.816 503.863 111.611 503.863 111.611C503.863 111.611 503.988 111.807 504.154 112.058C504.32 112.301 504.445 112.506 504.445 112.506Z" stroke="#151254" stroke-width="1.61235" stroke-linecap="round" stroke-linejoin="round"/>
<path d="M506.984 107.497C506.984 107.497 506.898 107.722 506.795 107.996C506.692 108.269 506.606 108.494 506.606 108.494C506.606 108.494 506.692 108.269 506.795 107.996C506.898 107.722 506.984 107.497 506.984 107.497Z" stroke="#151254" stroke-width="1.61235" stroke-linecap="round" stroke-linejoin="round"/>
<path d="M512.829 102.459C512.829 102.459 513.001 102.625 513.214 102.826C513.426 103.028 513.598 103.194 513.598 103.194C513.598 103.194 513.426 103.028 513.214 102.826C513.001 102.625 512.829 102.459 512.829 102.459Z" stroke="#151254" stroke-width="1.61235" stroke-linecap="round" stroke-linejoin="round"/>
<path d="M507.413 101.74C508.505 100.691 509.962 100.018 511.592 99.9435C515.151 99.78 518.168 102.515 518.333 106.053C518.466 108.911 516.698 111.424 514.132 112.368" stroke="#151254" stroke-width="1.61235" stroke-linecap="round" stroke-linejoin="round"/>
<path d="M441.5 20.6582L430.78 25.0983L441.87 28.5462" stroke="#151254" stroke-width="1.61235" stroke-linecap="round" stroke-linejoin="round"/>
<path d="M442.446 30.4967C442.438 30.3337 442.422 30.1903 442.397 30.0569C442.174 29.0098 441.381 28.9017 441.319 27.5782C441.249 26.0917 442.237 26.0468 442.168 24.5794C442.099 23.0929 441.111 23.1378 441.042 21.6705C440.98 20.347 441.75 20.1774 441.883 19.1046C441.896 18.979 441.898 18.8251 441.891 18.6621" stroke="#151254" stroke-width="1.61235" stroke-linecap="round" stroke-linejoin="round"/>
<path d="M443.891 29.4414C443.37 29.465 442.846 29.4118 442.366 29.2701C442.15 28.3664 441.354 28.2871 441.301 27.1549C441.241 25.8787 442.233 25.8338 442.174 24.5769C442.114 23.3007 441.121 23.3457 441.062 22.0888C441.009 20.9566 441.783 20.7965 441.924 19.8863C442.389 19.7114 442.905 19.6015 443.426 19.5779C446.162 19.4539 448.483 21.5603 448.611 24.2853C448.74 27.0102 446.627 29.3174 443.891 29.4414Z" stroke="#151254" stroke-width="1.61235" stroke-linecap="round" stroke-linejoin="round"/>
<path d="M440.927 29.5742L440.469 19.7158" stroke="#151254" stroke-width="1.61235" stroke-linecap="round" stroke-linejoin="round"/>
<path d="M440.532 122.382L440.199 115.285L439.18 115.332L439.512 122.429L440.532 122.382Z" stroke="#151254" stroke-width="1.61235" stroke-linecap="round" stroke-linejoin="round"/>
<path d="M448.886 126.307C448.917 126.959 448.324 127.486 447.68 127.361C443.673 126.535 440.577 123.09 440.377 118.832C440.177 114.574 442.938 110.863 446.851 109.676C447.479 109.484 448.119 109.955 448.15 110.616L448.886 126.307V126.307Z" stroke="#151254" stroke-width="1.61235" stroke-linecap="round" stroke-linejoin="round"/>
<path d="M448.352 114.632C448.404 115.75 449.357 116.614 450.48 116.563C451.604 116.512 452.472 115.565 452.419 114.447C452.367 113.329 451.414 112.464 450.291 112.515C449.167 112.566 448.299 113.514 448.352 114.632Z" stroke="#151254" stroke-width="1.61235" stroke-linecap="round" stroke-linejoin="round"/>
<path d="M448.86 122.278C448.912 123.396 449.865 124.261 450.988 124.21C452.111 124.159 452.979 123.211 452.927 122.093C452.875 120.975 451.922 120.111 450.798 120.162C449.675 120.213 448.807 121.161 448.86 122.278Z" stroke="#151254" stroke-width="1.61235" stroke-linecap="round" stroke-linejoin="round"/>
<path d="M448.69 118.768C448.73 119.61 449.448 120.262 450.294 120.224C451.141 120.185 451.795 119.471 451.755 118.629C451.716 117.786 450.997 117.135 450.151 117.173C449.305 117.212 448.651 117.926 448.69 118.768Z" stroke="#151254" stroke-width="1.61235" stroke-linecap="round" stroke-linejoin="round"/>
<path d="M452.237 113.35L455.289 110.02" stroke="#151254" stroke-width="1.61235" stroke-linecap="round" stroke-linejoin="round"/>
<path d="M445.137 111.005L445.843 126.195" stroke="#151254" stroke-width="1.61235" stroke-linecap="round" stroke-linejoin="round"/>
<path d="M473.38 79.8443L472.574 62.584C470.975 62.6571 469.745 64.0011 469.819 65.5929L470.356 77.0998C470.43 78.6915 471.781 79.9175 473.38 79.8443Z" stroke="#151254" stroke-width="1.61235" stroke-linecap="round" stroke-linejoin="round"/>
<path d="M481.659 70.8156C481.461 66.5768 477.85 63.3013 473.589 63.496L472.625 63.5401L473.342 78.8842L474.306 78.8401C478.567 78.6454 481.857 75.0544 481.659 70.8156Z" stroke="#151254" stroke-width="1.61235" stroke-linecap="round" stroke-linejoin="round"/>
<path d="M480.935 70.8452C480.978 71.772 481.768 72.4889 482.7 72.4463C483.632 72.4037 484.352 71.6178 484.309 70.6909C484.266 69.7641 483.475 69.0472 482.543 69.0898C481.612 69.1324 480.891 69.9183 480.935 70.8452Z" fill="#201D67"/>
<path d="M505.016 7.27148C504.975 9.93542 503.931 12.6454 501.888 14.844C499.863 17.0225 497.215 18.2877 494.522 18.5844" stroke="#151254" stroke-width="1.61235" stroke-linecap="round" stroke-linejoin="round"/>
<path d="M493.946 19.7036L493.601 18.5375L490.104 6.70598C489.634 5.11325 491.015 3.63727 492.673 3.96467L496.184 4.64895L496.408 4.69629L499.461 5.29594L499.754 5.34977L504.875 6.36367L506.124 6.6138C507.323 6.84697 508.138 7.95302 508 9.1317C507.661 12.03 506.456 14.7951 504.357 17.0536C502.277 19.3016 499.589 20.7223 496.688 21.3264C495.502 21.5732 494.289 20.8601 493.946 19.7036Z" stroke="#151254" stroke-width="1.61235" stroke-linecap="round" stroke-linejoin="round"/>
<path d="M496.697 12.3309C496.736 13.1781 497.468 13.8328 498.33 13.7931C499.193 13.7535 499.861 13.0345 499.821 12.1873C499.782 11.3401 499.051 10.6855 498.188 10.7251C497.325 10.7647 496.658 11.4837 496.697 12.3309Z" stroke="#151254" stroke-width="1.61235" stroke-linecap="round" stroke-linejoin="round"/>
<path d="M497.021 6.63019C496.457 6.12768 496.248 5.37823 496.429 4.69735L500.408 5.47536C500.338 5.84367 500.18 6.19681 499.905 6.49773C499.141 7.32068 497.849 7.38004 497.021 6.63019Z" stroke="#151254" stroke-width="1.61235" stroke-linecap="round" stroke-linejoin="round"/>
<path d="M491.58 8.09011C492.133 7.9206 492.756 8.03607 493.21 8.43798C493.896 9.05023 493.944 10.0857 493.318 10.7582C493.116 10.9788 492.862 11.1346 492.585 11.2146" stroke="#151254" stroke-width="1.61235" stroke-linecap="round" stroke-linejoin="round"/>
</g>
</g>
</svg>
