<svg width="46" height="27" viewBox="0 0 46 27" fill="none" xmlns="http://www.w3.org/2000/svg">
<g clip-path="url(#clip0_1_14628)">
<path d="M22.9972 14.9251C14.5418 14.9251 8.29268 10.7832 7.60832 10.3125C6.55704 9.58505 5.8453 8.49584 5.61526 7.23773C5.38522 5.97914 5.65368 4.70424 6.38175 3.65389C7.27454 2.35692 8.75325 1.58008 10.3304 1.58008C11.2996 1.58008 12.2308 1.87037 13.0357 2.41738C13.2052 2.53206 17.406 5.32274 22.9203 5.32274C26.1678 5.32274 29.229 4.34869 32.0168 2.42841C32.8217 1.87565 33.7582 1.58008 34.7332 1.58008C36.3103 1.58008 37.789 2.35164 38.6818 3.64862C39.4104 4.69896 39.6784 5.97386 39.4483 7.23245C39.2183 8.49104 38.5065 9.58553 37.4548 10.3077C33.0134 13.3714 28.1508 14.9251 22.9972 14.9251Z" fill="#F4A360"/>
<path d="M22.9973 16.046C14.5308 16.046 8.15976 12.0438 6.96824 11.2415C5.67107 10.3461 4.79701 8.99638 4.51029 7.44269C4.2231 5.88613 4.55832 4.31422 5.45592 3.01676C6.5581 1.4151 8.38019 0.458798 10.3305 0.458798C11.5235 0.458798 12.6746 0.809073 13.6596 1.47172C13.6909 1.49475 17.6981 4.1909 22.9204 4.1909C25.9316 4.1909 28.7776 3.28307 31.3792 1.49235C32.3709 0.809073 33.5307 0.448242 34.7337 0.448242C36.6841 0.448242 38.5062 1.40454 39.6079 3.00572C40.504 4.30942 40.8402 5.88181 40.5535 7.43214C40.2668 8.98582 39.3927 10.3356 38.0927 11.2324C33.4596 14.4266 28.3809 16.046 22.9973 16.046ZM10.3305 2.70103C9.12891 2.70103 7.99743 3.29266 7.30346 4.28351C6.15421 5.94659 6.57491 8.23297 8.24044 9.38168C8.4993 9.56113 14.6879 13.7985 22.992 13.7985C27.9045 13.7985 32.5543 12.3125 36.8118 9.38168C37.6182 8.82844 38.1609 7.99306 38.3385 7.03052C38.5162 6.06703 38.3073 5.09154 37.7502 4.28447C37.0654 3.29266 35.9358 2.70055 34.7275 2.70055C33.9797 2.70055 33.2608 2.92415 32.6485 3.34736C29.6675 5.40103 26.3927 6.44273 22.9151 6.44273C17.2207 6.44273 12.8715 3.65685 12.3942 3.33921C11.7886 2.92271 11.0739 2.70103 10.3305 2.70103Z" fill="#4C2F1B"/>
<path d="M23.4298 19.8107C15.9873 19.8107 9.17487 16.8233 5.27567 14.0273C4.23544 13.2831 3.55059 12.178 3.34216 10.9142C3.13421 9.65031 3.43005 8.38644 4.18021 7.34665C5.07829 6.0991 6.5349 5.34961 8.07412 5.34961C9.07642 5.34961 10.0403 5.65622 10.8562 6.24161C10.922 6.28527 12.5539 7.43974 15.0897 8.49584C17.9266 9.67766 20.725 10.2798 23.4082 10.2798C27.2964 10.2798 30.8455 8.98814 33.9503 6.43882C34.8047 5.73827 35.8838 5.34961 36.9898 5.34961C38.4301 5.34961 39.783 5.9897 40.6974 7.1005C41.5081 8.08511 41.8913 9.33266 41.7655 10.6076C41.6397 11.8825 41.0264 13.0259 40.0404 13.8411C35.2043 17.8031 29.6179 19.8107 23.4298 19.8107Z" fill="#FF6C4A"/>
<path d="M23.4283 20.9437C15.7274 20.9437 8.66283 17.845 4.61908 14.9454C3.33487 14.0222 2.48674 12.6561 2.23125 11.0981C1.97623 9.54492 2.34411 7.9802 3.2662 6.69235C4.37175 5.15018 6.16886 4.22939 8.0726 4.22939C9.31214 4.22939 10.4988 4.60845 11.5045 5.32532C11.518 5.33491 13.0788 6.44236 15.5199 7.46247C18.2223 8.58815 20.8757 9.15914 23.4067 9.15914C27.024 9.15914 30.3296 7.9519 33.2318 5.57051C34.2835 4.70202 35.6172 4.22363 36.9883 4.22363C38.772 4.22363 40.438 5.01487 41.5584 6.39437C42.5607 7.6093 43.028 9.14619 42.8763 10.7234C42.725 12.2958 41.9676 13.7137 40.7449 14.716C35.7084 18.8483 29.8825 20.9437 23.4283 20.9437ZM8.0726 6.47642C6.89453 6.47642 5.78034 7.04646 5.09165 8.00084C3.91118 9.64281 4.28722 11.9373 5.92874 13.1163C9.68482 15.811 16.2542 18.6904 23.4283 18.6904C29.3508 18.6904 34.698 16.7654 39.3214 12.968C40.0773 12.3476 40.547 11.47 40.6426 10.4969C40.7386 9.52237 40.449 8.56895 39.8262 7.81179C39.1221 6.95961 38.0876 6.47115 36.9878 6.47115C36.1402 6.47115 35.3132 6.76816 34.6591 7.30797C31.3496 10.0276 27.5638 11.4062 23.4062 11.4062C20.5751 11.4062 17.6311 10.7766 14.6555 9.53485C11.9401 8.40053 10.2222 7.1717 10.2054 7.15922C9.58012 6.7125 8.84245 6.47642 8.0726 6.47642Z" fill="#4C2F1B"/>
<path d="M13.8926 13.7053C12.6992 13.7053 12.2665 12.5561 11.9759 11.7956C11.6748 10.9967 11.4832 10.6138 11.2258 10.6138C10.6014 10.6138 10.0977 10.1104 10.0977 9.48664C10.0977 8.86287 10.6014 8.35953 11.2258 8.35953C13.0493 8.35953 13.7063 9.99574 14.0626 10.9314C14.5443 10.2587 15.3276 9.26784 16.6695 9.26784C18.0219 9.26784 18.8489 10.2582 19.4021 10.9093C19.5006 11.0298 19.6322 11.1881 19.7417 11.3033C19.9275 11.1392 20.1797 10.8546 20.3439 10.6689C20.9298 10.0068 21.5979 9.25729 22.5291 9.25729C23.4982 9.25729 24.2325 10.0778 24.8785 10.8057C24.9553 10.893 25.0427 10.9914 25.1359 11.0902C25.1522 11.0682 25.1633 11.0518 25.1743 11.0298C25.656 10.3239 26.3903 9.25729 27.6385 9.25729C28.6187 9.25729 29.3036 10.0394 29.9 10.7347C29.9606 10.8004 30.0316 10.8825 30.1027 10.9645C30.1027 10.9535 30.1085 10.9482 30.1085 10.9424C30.4259 9.96311 31.0118 8.14648 32.819 8.14648C33.4434 8.14648 33.9472 8.64982 33.9472 9.2736C33.9472 9.89738 33.4434 10.4007 32.819 10.4007C32.6164 10.5101 32.37 11.2706 32.2552 11.6372C31.9815 12.4904 31.6035 13.6616 30.4043 13.6616C29.4457 13.6616 28.7777 12.8958 28.1918 12.2169C28.0275 12.0254 27.7701 11.7303 27.5948 11.5768C27.4195 11.7356 27.1732 12.0964 27.0252 12.31C26.5925 12.9443 26.0998 13.6611 25.2127 13.6611C24.3857 13.6611 23.8056 13.0047 23.1866 12.31C23.006 12.1075 22.7375 11.8061 22.5348 11.6262C22.3706 11.7793 22.1679 12.0144 22.0253 12.1732C21.4067 12.8733 20.7003 13.6611 19.7033 13.6611C18.7504 13.6611 18.1477 12.9443 17.6607 12.3642C17.3154 11.9539 16.9596 11.5274 16.6584 11.5274C16.4173 11.5274 16.1546 11.8719 15.8041 12.3589C15.415 12.9232 14.8565 13.7053 13.8926 13.7053Z" fill="#F9AF38"/>
<path d="M22.8703 25.0193C15.0009 25.0193 8.79596 21.9114 7.67888 21.1456C6.62712 20.4177 5.90962 19.4984 5.6085 18.4864C5.26368 17.332 5.48267 16.1007 6.22707 15.023C7.11987 13.7261 8.59857 12.9492 10.1757 12.9492C11.1449 12.9492 12.0761 13.239 12.8815 13.786C13.051 13.9007 17.2518 16.6914 22.7666 16.6914C26.0141 16.6914 29.0752 15.7173 31.8631 13.7971C32.668 13.2448 33.6045 12.9492 34.5795 12.9492C36.1571 12.9492 37.6353 13.7203 38.5281 15.0173C39.2677 16.0897 39.5362 17.2499 39.3061 18.366C39.0814 19.4494 38.4023 20.412 37.3347 21.1456C32.3828 24.5486 27.4592 25.0193 22.8703 25.0193Z" fill="#F4A360"/>
<path d="M22.8632 26.1461C13.575 26.1461 7.08917 22.1059 7.02481 22.0652C5.76606 21.1986 4.89728 20.0695 4.5222 18.8052C4.08084 17.3105 4.35459 15.7391 5.29349 14.3807C6.39568 12.779 8.21777 11.8227 10.1681 11.8227C11.3663 11.8227 12.517 12.1764 13.4953 12.8453C13.5299 12.8702 17.5736 15.5649 22.758 15.5649C25.7692 15.5649 28.6147 14.6571 31.2167 12.8664C32.2085 12.1836 33.3678 11.8223 34.5709 11.8223C36.5212 11.8223 38.3433 12.7786 39.445 14.3797C40.3637 15.7098 40.6932 17.1666 40.3973 18.5922C40.1116 19.9693 39.2697 21.1717 37.9629 22.07C32.768 25.6523 27.6355 26.1461 22.8632 26.1461ZM10.1686 14.0703C8.96553 14.0703 7.83212 14.6619 7.13671 15.6527C6.05278 17.2237 6.50037 18.9712 8.30325 20.2154C8.35752 20.2524 14.3521 23.8933 22.8574 23.8933C27.2633 23.8933 31.9871 23.4475 36.683 20.2154C37.5263 19.6363 38.0527 18.8973 38.2035 18.0787C38.3495 17.2865 38.1367 16.4488 37.5883 15.6542C36.903 14.6624 35.7734 14.0703 34.5656 14.0703C33.8183 14.0703 33.0993 14.2939 32.4865 14.7171C29.5056 16.7707 26.2302 17.8124 22.7532 17.8124C17.0545 17.8124 12.7091 15.0266 12.2322 14.7089C11.6266 14.2919 10.9115 14.0703 10.1686 14.0703Z" fill="#4C2F1B"/>
<path d="M13.879 21.4477C13.72 21.4477 13.5611 21.3819 13.4516 21.2509C13.2494 21.0158 13.2763 20.6598 13.5173 20.4573C14.7444 19.4122 14.3554 17.9238 14.3386 17.8638C14.2565 17.5625 14.4318 17.2564 14.7329 17.169C15.034 17.087 15.3409 17.2568 15.4283 17.5572C15.4557 17.6503 16.0416 19.7951 14.2507 21.3162C14.1364 21.404 14.0101 21.4477 13.879 21.4477ZM23.0682 22.8704C22.9697 22.8704 22.8713 22.843 22.7781 22.7936C22.5097 22.6348 22.4222 22.2902 22.5812 22.0225C23.4298 20.5998 22.4933 19.5437 22.488 19.5327C22.2801 19.3028 22.2964 18.9473 22.5265 18.7395C22.7565 18.5313 23.1124 18.5481 23.3203 18.7779C23.8404 19.3523 24.5637 20.8954 23.5504 22.5969C23.4462 22.7715 23.2598 22.8704 23.0682 22.8704Z" fill="#4C2F1B"/>
<path d="M32.5183 21.3047C32.4304 21.3047 32.343 21.2826 32.2609 21.2442C31.9819 21.1022 31.8777 20.7629 32.0198 20.4837C32.7099 19.1488 31.5487 18.1033 31.4997 18.0596C31.2697 17.8518 31.2423 17.5016 31.4449 17.266C31.6471 17.0308 32.0035 17.0088 32.2388 17.2113C32.8963 17.7803 33.9039 19.3014 33.0221 21.0029C32.9184 21.1948 32.721 21.3047 32.5183 21.3047Z" fill="#4C2F1B"/>
<path d="M43.9117 11.0676C43.7695 11.0676 43.6269 11.0292 43.5011 10.9582L42.2635 10.2471C41.8855 10.0278 41.7429 9.55233 41.9402 9.16367L42.5703 7.92715C42.7125 7.64837 42.992 7.47852 43.3042 7.47852C43.6658 7.47852 43.9833 7.70835 44.0875 8.05287L44.6955 10.001C44.7723 10.2529 44.7286 10.5206 44.5749 10.7341C44.4208 10.9419 44.1744 11.0676 43.9117 11.0676Z" fill="#FF6C4A"/>
<path d="M43.3024 8.0363C43.4067 8.0363 43.5104 8.09627 43.5488 8.21671L44.1568 10.1643C44.2116 10.3447 44.0747 10.5036 43.9104 10.5036C43.8667 10.5036 43.823 10.4925 43.7793 10.4709L42.5417 9.75984C42.4212 9.68882 42.3775 9.54104 42.4375 9.4206L43.0729 8.17832C43.1219 8.08524 43.2093 8.0363 43.3024 8.0363ZM43.3024 6.90918C42.7766 6.90918 42.3059 7.199 42.0648 7.66395L41.4352 8.90047C41.1014 9.55687 41.342 10.3611 41.9827 10.7277L43.2203 11.4388C43.4336 11.5592 43.6694 11.6249 43.9104 11.6249C44.3489 11.6249 44.7706 11.4114 45.0275 11.0559C45.2849 10.7056 45.3613 10.2406 45.2302 9.82461L44.6222 7.87651C44.4416 7.30264 43.9104 6.90918 43.3024 6.90918Z" fill="#4C2F1B"/>
<path d="M1.70679 9.50307C1.44409 9.50307 1.19772 9.37736 1.04403 9.16383C0.890833 8.95031 0.847129 8.68785 0.92349 8.43066L1.53149 6.48256C1.64099 6.13804 1.95316 5.9082 2.32007 5.9082C2.63224 5.9082 2.91175 6.07758 3.0539 6.35684L3.684 7.59336C3.8809 7.98154 3.73875 8.45801 3.36079 8.67681L2.12317 9.38791C1.99158 9.46469 1.84942 9.50307 1.70679 9.50307Z" fill="#FF6C4A"/>
<path d="M2.31682 6.47673C2.40999 6.47673 2.4974 6.52039 2.54686 6.61875L3.17648 7.85527C3.23651 7.97571 3.19281 8.12877 3.07226 8.19451L1.83465 8.90561C1.79094 8.92769 1.74724 8.93824 1.70354 8.93824C1.53929 8.93824 1.40242 8.77942 1.45716 8.599L2.06517 6.6509C2.10839 6.5367 2.21261 6.47673 2.31682 6.47673ZM2.31682 5.34961C1.70882 5.34961 1.17189 5.73827 0.991316 6.32318L0.383313 8.27128C0.252203 8.69257 0.328563 9.15225 0.58598 9.50252C0.84868 9.85855 1.26506 10.0716 1.70306 10.0716C1.94414 10.0716 2.18475 10.0063 2.39318 9.88542L3.6308 9.17432C4.27146 8.80725 4.51255 8.00354 4.17301 7.34665L3.5434 6.11014C3.31335 5.63943 2.8427 5.34961 2.31682 5.34961Z" fill="#4C2F1B"/>
</g>
<defs>
<clipPath id="clip0_1_14628">
<rect width="44.9726" height="25.6986" fill="white" transform="translate(0.320312 0.448242)"/>
</clipPath>
</defs>
</svg>
