<svg width="18" height="16" viewBox="0 0 18 16" fill="none" xmlns="http://www.w3.org/2000/svg">
<path d="M8.74509 10.6756C7.00337 10.6756 5.5896 9.40736 5.5896 7.8449C5.5896 6.28244 7.00337 5.01416 8.74509 5.01416C10.4868 5.01416 11.9006 6.28244 11.9006 7.8449C11.9006 9.40736 10.4868 10.6756 8.74509 10.6756ZM8.74509 5.99479C7.60824 5.99479 6.68272 6.82505 6.68272 7.8449C6.68272 8.86475 7.60824 9.69501 8.74509 9.69501C9.88194 9.69501 10.8074 8.86475 10.8074 7.8449C10.8074 6.82505 9.88194 5.99479 8.74509 5.99479Z" fill="#292D32"/>
<path d="M8.74497 13.7419C6.00487 13.7419 3.41781 12.3036 1.63966 9.80632C0.867184 8.72763 0.867184 6.96904 1.63966 5.88382C3.4251 3.38649 6.01216 1.94824 8.74497 1.94824C11.4778 1.94824 14.0648 3.38649 15.843 5.88382C16.6155 6.9625 16.6155 8.72109 15.843 9.80632C14.0648 12.3036 11.4778 13.7419 8.74497 13.7419ZM8.74497 2.92887C6.39111 2.92887 4.13927 4.19714 2.56517 6.41335C2.01861 7.17824 2.01861 8.51189 2.56517 9.27678C4.13927 11.493 6.39111 12.7613 8.74497 12.7613C11.0988 12.7613 13.3507 11.493 14.9248 9.27678C15.4713 8.51189 15.4713 7.17824 14.9248 6.41335C13.3507 4.19714 11.0988 2.92887 8.74497 2.92887Z" fill="#292D32"/>
</svg>
