<svg width="18" height="16" viewBox="0 0 18 16" fill="none" xmlns="http://www.w3.org/2000/svg">
<path d="M6.90135 9.9892C6.76289 9.9892 6.62442 9.94344 6.51511 9.84537C5.91754 9.3093 5.5896 8.59671 5.5896 7.8449C5.5896 6.28244 7.00337 5.01416 8.74509 5.01416C9.58315 5.01416 10.3775 5.30835 10.9751 5.84442C11.0771 5.93595 11.1354 6.06016 11.1354 6.19091C11.1354 6.32166 11.0771 6.44587 10.9751 6.5374L7.28759 9.84537C7.17827 9.94344 7.03981 9.9892 6.90135 9.9892ZM8.74509 5.99479C7.60824 5.99479 6.68272 6.82505 6.68272 7.8449C6.68272 8.17177 6.77746 8.48557 6.95236 8.76015L9.76534 6.23667C9.45926 6.07977 9.10946 5.99479 8.74509 5.99479Z" fill="#292D32"/>
<path d="M4.08101 12.101C3.95712 12.101 3.82595 12.0618 3.72392 11.9833C2.94416 11.3884 2.24456 10.6562 1.64698 9.80632C0.874508 8.72763 0.874508 6.96904 1.64698 5.88382C3.42513 3.38649 6.0122 1.94824 8.74501 1.94824C10.3483 1.94824 11.9296 2.44509 13.3143 3.37995C13.5548 3.54339 13.6058 3.85065 13.4236 4.06639C13.2414 4.28213 12.8989 4.32789 12.6584 4.16445C11.4632 3.3538 10.1078 2.92887 8.74501 2.92887C6.39115 2.92887 4.13931 4.19714 2.56521 6.41336C2.01865 7.17824 2.01865 8.51189 2.56521 9.27678C3.11177 10.0417 3.7385 10.702 4.43081 11.238C4.65672 11.4145 4.68587 11.7218 4.48911 11.931C4.38708 12.0421 4.23405 12.101 4.08101 12.101Z" fill="#292D32"/>
<path d="M8.74489 13.7416C7.77565 13.7416 6.82828 13.5651 5.91734 13.2186C5.64042 13.114 5.50924 12.8264 5.62584 12.578C5.74244 12.3295 6.06309 12.2119 6.34002 12.3165C7.11249 12.6106 7.9214 12.761 8.7376 12.761C11.0915 12.761 13.3433 11.4927 14.9174 9.27652C15.464 8.51163 15.464 7.17798 14.9174 6.41309C14.6915 6.09276 14.4437 5.78549 14.1814 5.49784C13.9919 5.28864 14.0283 4.98138 14.2615 4.80487C14.4947 4.63489 14.8372 4.66104 15.034 4.87678C15.3182 5.19058 15.5951 5.53053 15.8429 5.88356C16.6154 6.96224 16.6154 8.72083 15.8429 9.80606C14.0648 12.3034 11.4777 13.7416 8.74489 13.7416Z" fill="#292D32"/>
<path d="M9.24775 10.6364C8.99269 10.6364 8.75949 10.473 8.70848 10.2376C8.65018 9.9696 8.84694 9.71464 9.14573 9.66887C9.94735 9.53812 10.6178 8.93667 10.7636 8.21755C10.8219 7.94951 11.1061 7.77954 11.4049 7.8253C11.7036 7.8776 11.9004 8.13256 11.8421 8.4006C11.6089 9.53159 10.6032 10.4272 9.34978 10.6364C9.31334 10.6299 9.28419 10.6364 9.24775 10.6364Z" fill="#292D32"/>
<path d="M1.45758 14.8728C1.31912 14.8728 1.18066 14.827 1.07134 14.7289C0.860007 14.5393 0.860007 14.2255 1.07134 14.036L6.51511 9.15244C6.72644 8.96286 7.07625 8.96286 7.28758 9.15244C7.49892 9.34203 7.49892 9.65583 7.28758 9.84542L1.84382 14.7289C1.73451 14.827 1.59604 14.8728 1.45758 14.8728Z" fill="#292D32"/>
<path d="M10.5887 6.68135C10.4502 6.68135 10.3118 6.63559 10.2024 6.53753C9.99111 6.34794 9.99111 6.03414 10.2024 5.84455L15.6462 0.961038C15.8575 0.771451 16.2073 0.771451 16.4187 0.961038C16.63 1.15063 16.63 1.46443 16.4187 1.65401L10.9749 6.53753C10.8656 6.63559 10.7271 6.68135 10.5887 6.68135Z" fill="#292D32"/>
</svg>
