<svg width="46" height="30" viewBox="0 0 46 30" fill="none" xmlns="http://www.w3.org/2000/svg">
<path fill-rule="evenodd" clip-rule="evenodd" d="M45.2207 15.0003C45.2207 15.9208 44.4745 16.667 43.554 16.667L3.55263 16.667C2.63215 16.667 1.88596 15.9208 1.88596 15.0003C1.88596 14.0799 2.63215 13.3337 3.55263 13.3337L43.554 13.3337C44.4745 13.3337 45.2207 14.0799 45.2207 15.0003Z" fill="#605E5E"/>
<path fill-rule="evenodd" clip-rule="evenodd" d="M13.5097 29.6136C12.8026 30.2029 11.7516 30.1074 11.1623 29.4003L0.643618 16.7783C-0.214865 15.7482 -0.214862 14.2518 0.643619 13.2217L11.1623 0.59971C11.7516 -0.107406 12.8026 -0.202926 13.5097 0.386361C14.2168 0.975645 14.3123 2.02658 13.723 2.7337L3.50071 15L13.723 27.2663C14.3123 27.9734 14.2168 29.0244 13.5097 29.6136Z" fill="#605E5E"/>
</svg>
