<svg width="1214" height="280" viewBox="0 0 1214 280" fill="none" xmlns="http://www.w3.org/2000/svg">
<mask id="mask0_1_15899" style="mask-type:alpha" maskUnits="userSpaceOnUse" x="0" y="0" width="1214" height="280">
<rect opacity="0.8" width="1214" height="280" rx="30" fill="#6C5FBC"/>
</mask>
<g mask="url(#mask0_1_15899)">
<g opacity="0.25">
<path d="M468.321 140.951C464.437 144.718 459.148 147.008 453.313 146.965C447.516 146.923 442.227 144.59 438.285 140.78" stroke="#1C186C" stroke-width="4.63957" stroke-linecap="round" stroke-linejoin="round"/>
<path d="M439.222 149.618C443.418 152.401 448.238 153.984 453.351 154.027C459.343 154.07 464.905 151.973 469.53 148.334C471.404 146.858 471.931 143.968 470.721 141.743L469.452 139.41L464.202 129.908C464.202 129.908 460.475 123.145 456.962 116.767C455.264 113.685 451.322 113.642 449.643 116.681L437.153 139.239L435.923 141.464C434.713 143.669 435.26 146.601 437.172 148.099C437.816 148.655 438.519 149.148 439.222 149.618Z" stroke="#1C186C" stroke-width="4.63957" stroke-linecap="round" stroke-linejoin="round"/>
<path d="M446.346 136.521C445.877 136.307 445.35 136.307 444.882 136.521C444.628 136.628 444.433 136.778 444.238 136.97C443.887 137.377 443.672 137.912 443.672 138.468C443.672 139.046 443.867 139.56 444.238 139.966C444.609 140.373 445.077 140.587 445.604 140.587C446.131 140.587 446.599 140.373 446.97 139.966C447.341 139.56 447.536 139.025 447.536 138.468C447.536 137.912 447.321 137.377 446.97 136.97C446.794 136.756 446.58 136.606 446.346 136.521Z" fill="#201D67"/>
<path d="M454.033 138.619C453.565 138.405 453.038 138.405 452.569 138.619C452.335 138.726 452.12 138.875 451.925 139.068C451.574 139.475 451.359 140.01 451.359 140.566C451.359 141.144 451.555 141.658 451.925 142.064C452.296 142.471 452.765 142.685 453.291 142.685C453.818 142.685 454.287 142.471 454.658 142.064C455.028 141.658 455.224 141.144 455.224 140.566C455.224 140.01 455.009 139.475 454.658 139.068C454.482 138.875 454.287 138.726 454.033 138.619Z" fill="#201D67"/>
<path d="M462.388 136.949C461.666 136.158 460.378 136.158 459.656 136.949C459.305 137.356 459.09 137.891 459.09 138.447C459.09 139.025 459.285 139.539 459.656 139.946C460.027 140.352 460.495 140.566 461.022 140.566C461.276 140.566 461.529 140.502 461.744 140.395C461.978 140.288 462.193 140.138 462.388 139.946C462.759 139.539 462.954 139.025 462.954 138.447C462.935 137.912 462.72 137.356 462.388 136.949Z" fill="#201D67"/>
<path d="M458.935 129.201C458.837 128.923 458.7 128.709 458.525 128.495C457.803 127.703 456.515 127.703 455.793 128.495C455.617 128.709 455.48 128.923 455.383 129.201C455.285 129.458 455.227 129.737 455.227 129.993C455.227 130.272 455.285 130.55 455.383 130.785C455.48 131.042 455.617 131.277 455.793 131.491C456.163 131.898 456.632 132.112 457.159 132.112C457.412 132.112 457.666 132.048 457.881 131.941C458.115 131.834 458.33 131.684 458.525 131.491C458.896 131.085 459.091 130.571 459.091 129.993C459.091 129.737 459.032 129.458 458.935 129.201Z" fill="#201D67"/>
<path d="M451.224 129.201C451.126 128.945 450.99 128.709 450.814 128.495C450.072 127.703 448.784 127.703 448.082 128.495C447.906 128.709 447.769 128.923 447.672 129.201C447.574 129.458 447.516 129.737 447.516 129.993C447.516 130.571 447.711 131.085 448.082 131.491C448.277 131.684 448.491 131.834 448.726 131.941C448.96 132.048 449.214 132.112 449.467 132.112C449.994 132.112 450.463 131.898 450.833 131.491C451.009 131.277 451.146 131.042 451.243 130.785C451.36 130.528 451.399 130.25 451.399 129.993C451.38 129.737 451.341 129.458 451.224 129.201Z" fill="#201D67"/>
<path d="M451.945 123.06C452.316 123.467 452.784 123.681 453.311 123.681C453.565 123.681 453.818 123.616 454.033 123.509C454.267 123.402 454.482 123.253 454.677 123.06C454.853 122.846 454.989 122.611 455.087 122.354C455.185 122.097 455.243 121.819 455.243 121.562C455.243 120.984 455.028 120.47 454.677 120.064C454.131 119.486 453.291 119.272 452.569 119.614C452.316 119.721 452.12 119.871 451.925 120.064C451.574 120.47 451.359 121.005 451.359 121.562C451.359 121.84 451.418 122.118 451.516 122.354C451.633 122.611 451.769 122.846 451.945 123.06Z" fill="#201D67"/>
<path d="M933.857 46.3139C931.496 51.7927 926.422 55.5808 920.528 55.5808C912.389 55.5808 905.773 48.3257 905.773 39.4012C905.773 31.4613 911.004 24.8482 917.913 23.4785C918.147 28.2939 921.367 32.2531 925.582 33.1306C925.504 33.7084 925.446 34.3077 925.446 34.9069C925.446 40.5141 929.056 45.201 933.857 46.3139Z" stroke="#1C186C" stroke-width="4.63957" stroke-linecap="round" stroke-linejoin="round"/>
<path d="M914.416 30.584C913.226 30.584 912.25 31.6541 912.25 32.9596C912.25 34.265 913.226 35.3351 914.416 35.3351C915.607 35.3351 916.583 34.265 916.583 32.9596C916.583 31.6327 915.607 30.584 914.416 30.584Z" fill="#201D67"/>
<path d="M909.635 18.1924C908.445 18.1924 907.469 19.2625 907.469 20.568C907.469 21.8734 908.445 22.9435 909.635 22.9435C910.826 22.9435 911.801 21.8734 911.801 20.568C911.782 19.2411 910.826 18.1924 909.635 18.1924Z" fill="#201D67"/>
<path d="M920.721 37.8809C919.53 37.8809 918.555 38.9509 918.555 40.2564C918.555 41.5619 919.53 42.632 920.721 42.632C921.911 42.632 922.887 41.5619 922.887 40.2564C922.887 38.9295 921.911 37.8809 920.721 37.8809Z" fill="#201D67"/>
<path d="M922.596 47.4053C922.596 47.4053 922.186 47.6621 921.659 48.0045C921.152 48.3255 920.723 48.6038 920.723 48.6038C920.723 48.6038 921.133 48.3469 921.659 48.0045C922.167 47.6621 922.596 47.4053 922.596 47.4053Z" stroke="#1C186C" stroke-width="4.63957" stroke-linecap="round" stroke-linejoin="round"/>
<path d="M912.66 41.2637C912.66 41.2637 913.109 41.4777 913.655 41.7345C914.202 41.9913 914.651 42.2053 914.651 42.2053C914.651 42.2053 914.202 41.9913 913.655 41.7345C913.109 41.4777 912.66 41.2637 912.66 41.2637Z" stroke="#1C186C" stroke-width="4.63957" stroke-linecap="round" stroke-linejoin="round"/>
<path d="M902.98 27.8013C902.98 27.8013 903.332 27.4375 903.761 26.9881C904.19 26.5386 904.542 26.1748 904.542 26.1748C904.542 26.1748 904.19 26.5386 903.761 26.9881C903.332 27.4375 902.98 27.8013 902.98 27.8013Z" stroke="#1C186C" stroke-width="4.63957" stroke-linecap="round" stroke-linejoin="round"/>
<path d="M901.009 39.7225C898.98 37.1972 897.75 33.9013 897.75 30.2845C897.75 22.3873 903.585 15.9883 910.787 15.9883C916.603 15.9883 921.54 20.1616 923.219 25.94" stroke="#1C186C" stroke-width="4.63957" stroke-linecap="round" stroke-linejoin="round"/>
<path d="M532.544 204.577C531.291 204.271 529.987 204.315 528.753 204.704C527.519 205.093 526.394 205.814 525.479 206.802C525.092 207.241 524.875 207.829 524.875 208.44C524.875 209.051 525.092 209.638 525.479 210.077L527.704 212.602" stroke="#1C186C" stroke-width="4.63957" stroke-linecap="round" stroke-linejoin="round"/>
<path d="M547.104 220.82C547.372 222.212 547.319 223.655 546.951 225.019C546.583 226.382 545.911 227.624 544.996 228.632C544.802 228.847 544.571 229.017 544.316 229.134C544.062 229.25 543.789 229.31 543.513 229.31C543.237 229.31 542.964 229.25 542.709 229.134C542.455 229.017 542.224 228.847 542.03 228.632L539.766 226.106" stroke="#1C186C" stroke-width="4.63957" stroke-linecap="round" stroke-linejoin="round"/>
<path d="M529.245 226.621C530.05 228.017 530.476 229.635 530.475 231.286C530.474 232.401 530.272 233.505 529.88 234.533C529.488 235.562 528.914 236.495 528.191 237.279C528.055 237.414 527.878 237.489 527.694 237.489C527.51 237.489 527.332 237.414 527.196 237.279C526.558 236.57 526.048 235.735 525.693 234.817C525.37 234.147 525.147 233.425 525.03 232.677C524.985 232.222 524.985 231.763 525.03 231.308C525.38 229.227 526.348 227.331 527.781 225.914C526.452 227.448 524.707 228.469 522.805 228.825C522.389 228.868 521.971 228.868 521.556 228.825C520.873 228.679 520.215 228.419 519.604 228.055C518.764 227.618 518.009 227.007 517.379 226.257C517.256 226.107 517.188 225.913 517.188 225.711C517.188 225.509 517.256 225.315 517.379 225.165C518.84 223.6 520.801 222.724 522.844 222.726C524.342 222.736 525.805 223.219 527.059 224.117" stroke="#1C186C" stroke-width="4.63957" stroke-linecap="round" stroke-linejoin="round"/>
<path d="M551.631 199.847C551.4 199.557 551.138 199.298 550.851 199.077C550.048 198.516 549.151 198.136 548.213 197.96C547.275 197.783 546.314 197.814 545.386 198.049C543.194 198.413 541.079 199.203 539.141 200.382C535.496 202.312 532.435 205.351 530.32 209.135C528.445 212.94 527.383 217.163 527.217 221.484C527.217 221.784 526.885 224.031 527.1 224.181L529.266 226.62C529.403 226.856 531.432 226.62 531.705 226.513C535.665 226.4 539.547 225.279 543.044 223.239C546.514 220.992 549.309 217.681 551.085 213.715C552.802 209.799 554.754 203.571 551.631 199.847Z" stroke="#1C186C" stroke-width="4.63957" stroke-linecap="round" stroke-linejoin="round"/>
<path d="M538.047 202.33C538.838 205.251 540.265 207.917 542.204 210.099C544.151 212.276 546.557 213.893 549.21 214.807" stroke="#1C186C" stroke-width="4.63957" stroke-linecap="round" stroke-linejoin="round"/>
<path d="M546.478 202.394C546.296 202.187 546.078 202.022 545.836 201.91C545.595 201.797 545.335 201.739 545.073 201.739C544.81 201.739 544.551 201.797 544.309 201.91C544.068 202.022 543.85 202.187 543.668 202.394C543.402 202.697 543.223 203.078 543.154 203.491C543.084 203.904 543.127 204.33 543.277 204.717C543.426 205.103 543.677 205.433 543.996 205.664C544.315 205.896 544.69 206.02 545.073 206.02C545.456 206.02 545.83 205.896 546.149 205.664C546.469 205.433 546.719 205.103 546.869 204.717C547.019 204.33 547.061 203.904 546.992 203.491C546.922 203.078 546.744 202.697 546.478 202.394Z" fill="#201D67"/>
<path d="M730.18 215.429L738.201 239.634L746.222 215.429" stroke="#1C186C" stroke-width="4.63957" stroke-linecap="round" stroke-linejoin="round"/>
<path d="M750.243 214.337C749.911 214.337 749.619 214.358 749.345 214.401C747.199 214.786 746.906 216.541 744.213 216.541C741.188 216.541 741.188 214.337 738.202 214.337C735.177 214.337 735.177 216.541 732.191 216.541C729.497 216.541 729.224 214.808 727.058 214.401C726.804 214.358 726.492 214.337 726.16 214.337" stroke="#1C186C" stroke-width="4.63957" stroke-linecap="round" stroke-linejoin="round"/>
<path d="M748.235 211.041C748.235 212.197 748.078 213.353 747.747 214.401C745.893 214.787 745.658 216.542 743.355 216.542C740.76 216.542 740.76 214.337 738.203 214.337C735.608 214.337 735.608 216.542 733.051 216.542C730.748 216.542 730.494 214.808 728.66 214.401C728.348 213.353 728.172 212.197 728.172 211.041C728.172 204.963 732.661 200.041 738.203 200.041C743.746 200.041 748.235 204.963 748.235 211.041Z" stroke="#1C186C" stroke-width="4.63957" stroke-linecap="round" stroke-linejoin="round"/>
<path d="M748.235 217.634H728.172" stroke="#1C186C" stroke-width="4.63957" stroke-linecap="round" stroke-linejoin="round"/>
<path d="M936.684 218.551H922.242V220.819H936.684V218.551Z" stroke="#1C186C" stroke-width="4.63957" stroke-linecap="round" stroke-linejoin="round"/>
<path d="M945.428 200.446C946.755 200.446 947.77 201.816 947.457 203.228C945.408 212.025 938.129 218.531 929.464 218.531C920.798 218.531 913.519 212.025 911.47 203.228C911.138 201.816 912.153 200.446 913.499 200.446H945.428V200.446Z" stroke="#1C186C" stroke-width="4.63957" stroke-linecap="round" stroke-linejoin="round"/>
<path d="M921.677 200.445C923.951 200.445 925.794 198.424 925.794 195.93C925.794 193.436 923.951 191.414 921.677 191.414C919.402 191.414 917.559 193.436 917.559 195.93C917.559 198.424 919.402 200.445 921.677 200.445Z" stroke="#1C186C" stroke-width="4.63957" stroke-linecap="round" stroke-linejoin="round"/>
<path d="M937.251 200.105C939.525 200.105 941.369 198.083 941.369 195.589C941.369 193.095 939.525 191.073 937.251 191.073C934.976 191.073 933.133 193.095 933.133 195.589C933.133 198.083 934.976 200.105 937.251 200.105Z" stroke="#1C186C" stroke-width="4.63957" stroke-linecap="round" stroke-linejoin="round"/>
<path d="M930.107 200.126C931.821 200.126 933.21 198.602 933.21 196.723C933.21 194.844 931.821 193.32 930.107 193.32C928.393 193.32 927.004 194.844 927.004 196.723C927.004 198.602 928.393 200.126 930.107 200.126Z" stroke="#1C186C" stroke-width="4.63957" stroke-linecap="round" stroke-linejoin="round"/>
<path d="M919.432 191.715L912.953 184.609" stroke="#1C186C" stroke-width="4.63957" stroke-linecap="round" stroke-linejoin="round"/>
<path d="M914.008 207.189H944.922" stroke="#1C186C" stroke-width="4.63957" stroke-linecap="round" stroke-linejoin="round"/>
<path d="M853.348 112.83H818.219C818.219 116.383 820.834 119.251 824.074 119.251H847.493C850.733 119.251 853.348 116.383 853.348 112.83Z" stroke="#1C186C" stroke-width="4.63957" stroke-linecap="round" stroke-linejoin="round"/>
<path d="M835.785 93.5684C827.159 93.5684 820.172 101.23 820.172 110.69V112.83H851.398V110.69C851.398 101.23 844.411 93.5684 835.785 93.5684Z" stroke="#1C186C" stroke-width="4.63957" stroke-linecap="round" stroke-linejoin="round"/>
<path d="M835.783 95.1741C837.669 95.1741 839.198 93.4973 839.198 91.4289C839.198 89.3604 837.669 87.6836 835.783 87.6836C833.896 87.6836 832.367 89.3604 832.367 91.4289C832.367 93.4973 833.896 95.1741 835.783 95.1741Z" fill="#201D67"/>
<path d="M713.258 82.9697C718.664 83.3336 724.07 85.9231 728.344 90.6743C732.579 95.3826 734.901 101.375 735.253 107.367" stroke="#1C186C" stroke-width="4.63957" stroke-linecap="round" stroke-linejoin="round"/>
<path d="M737.476 108.758L735.076 109.4L710.719 115.927C707.441 116.805 704.572 113.595 705.391 109.956L707.109 102.252L707.226 101.76L708.729 95.0608L708.865 94.4188L711.402 83.183L712.027 80.4436C712.612 77.8112 714.935 76.1205 717.316 76.5485C723.171 77.5972 728.674 80.5506 733.065 85.4302C737.437 90.2669 740.072 96.3663 741.028 102.851C741.418 105.505 739.857 108.116 737.476 108.758Z" stroke="#1C186C" stroke-width="4.63957" stroke-linecap="round" stroke-linejoin="round"/>
<path d="M722.759 101.91C724.484 101.91 725.882 100.357 725.882 98.4426C725.882 96.5278 724.484 94.9756 722.759 94.9756C721.035 94.9756 719.637 96.5278 719.637 98.4426C719.637 100.357 721.035 101.91 722.759 101.91Z" stroke="#1C186C" stroke-width="4.63957" stroke-linecap="round" stroke-linejoin="round"/>
<path d="M711.204 100.605C710.131 101.804 708.589 102.189 707.223 101.718L709.174 92.9863C709.916 93.1789 710.618 93.5642 711.204 94.2062C712.804 95.9825 712.804 98.8503 711.204 100.605Z" stroke="#1C186C" stroke-width="4.63957" stroke-linecap="round" stroke-linejoin="round"/>
<path d="M713.665 112.803C713.372 111.562 713.665 110.192 714.523 109.229C715.831 107.774 717.939 107.774 719.246 109.229C719.676 109.7 719.969 110.278 720.105 110.898" stroke="#1C186C" stroke-width="4.63957" stroke-linecap="round" stroke-linejoin="round"/>
<path d="M635.06 114.776L615.076 136.691C612.949 139.024 612.949 142.791 615.076 145.123C617.203 147.456 620.638 147.456 622.765 145.123L642.75 123.208C644.877 120.875 644.877 117.109 642.75 114.776C640.623 112.443 637.188 112.443 635.06 114.776Z" stroke="#1C186C" stroke-width="4.63957" stroke-linecap="round" stroke-linejoin="round"/>
<path d="M619.273 139.602C621.576 137.077 622.396 137.976 624.718 135.45C627.021 132.925 626.202 132.026 628.505 129.479C630.808 126.954 631.647 127.853 633.95 125.327C636.253 122.802 635.433 121.882 637.736 119.356" stroke="#1C186C" stroke-width="4.63957" stroke-linecap="round" stroke-linejoin="round"/>
<path d="M628.152 112.251L612.773 129.116C610.216 131.919 610.216 136.435 612.773 139.239L637.363 112.273C634.826 109.448 630.689 109.448 628.152 112.251Z" stroke="#1C186C" stroke-width="4.63957" stroke-linecap="round" stroke-linejoin="round"/>
<path d="M629.673 147.648L645.051 130.784C647.608 127.98 647.608 123.465 645.051 120.661L620.461 147.627C622.998 150.452 627.135 150.452 629.673 147.648Z" stroke="#1C186C" stroke-width="4.63957" stroke-linecap="round" stroke-linejoin="round"/>
<path d="M531.336 66.2172H511.819C508.345 66.2172 505.535 63.1354 505.535 59.3259V55.2168H537.62V59.3259C537.62 63.1354 534.809 66.2172 531.336 66.2172Z" stroke="#1C186C" stroke-width="4.63957" stroke-linecap="round" stroke-linejoin="round"/>
<path d="M536.623 48.625H506.529C504.87 48.625 503.523 50.1017 503.523 51.9208C503.523 53.74 504.87 55.2167 506.529 55.2167H536.623C538.282 55.2167 539.628 53.74 539.628 51.9208C539.628 50.1017 538.282 48.625 536.623 48.625Z" stroke="#1C186C" stroke-width="4.63957" stroke-linecap="round" stroke-linejoin="round"/>
<path d="M522.612 31.0332H520.543C512.249 31.0332 505.535 38.3953 505.535 47.491V48.6252H537.62V47.491C537.62 38.3953 530.906 31.0332 522.612 31.0332Z" stroke="#1C186C" stroke-width="4.63957" stroke-linecap="round" stroke-linejoin="round"/>
<path d="M505.32 55.752C506.081 56.6508 506.628 57.8707 508.053 57.8707C509.477 57.8707 510.024 56.6508 510.785 55.752" stroke="#1C186C" stroke-width="4.63957" stroke-linecap="round" stroke-linejoin="round"/>
<path d="M523.645 55.752C524.406 56.6508 524.952 57.8707 526.377 57.8707C527.821 57.8707 528.367 56.6508 529.129 55.752" stroke="#1C186C" stroke-width="4.63957" stroke-linecap="round" stroke-linejoin="round"/>
<path d="M535.568 57.8492C534.144 57.8492 533.597 56.6293 532.836 55.7305" stroke="#1C186C" stroke-width="4.63957" stroke-linecap="round" stroke-linejoin="round"/>
<path d="M514.492 55.752C515.253 56.6508 515.8 57.8707 517.224 57.8707C518.649 57.8707 519.196 56.6508 519.957 55.752" stroke="#1C186C" stroke-width="4.63957" stroke-linecap="round" stroke-linejoin="round"/>
<path d="M1025.55 96.0091C1021.67 99.7758 1016.38 102.066 1010.55 102.023C1004.75 101.98 999.462 99.6474 995.52 95.8379" stroke="#1C186C" stroke-width="4.63957" stroke-linecap="round" stroke-linejoin="round"/>
<path d="M996.456 104.676C1000.65 107.458 1005.47 109.042 1010.59 109.085C1016.58 109.128 1022.14 107.03 1026.76 103.392C1028.64 101.915 1029.17 99.026 1027.96 96.8002L1026.69 94.4675L1021.44 84.9652C1021.44 84.9652 1017.71 78.2023 1014.2 71.8247C1012.5 68.7429 1008.56 68.7001 1006.88 71.7391L994.387 94.2963L993.158 96.522C991.948 98.7264 992.494 101.658 994.407 103.156C995.051 103.713 995.753 104.205 996.456 104.676Z" stroke="#1C186C" stroke-width="4.63957" stroke-linecap="round" stroke-linejoin="round"/>
<path d="M1003.58 91.5775C1003.11 91.3635 1002.58 91.3635 1002.12 91.5775C1001.86 91.6845 1001.67 91.8343 1001.47 92.0269C1001.12 92.4335 1000.91 92.9686 1000.91 93.525C1000.91 94.1029 1001.1 94.6165 1001.47 95.0231C1001.84 95.4297 1002.31 95.6438 1002.84 95.6438C1003.37 95.6438 1003.83 95.4297 1004.2 95.0231C1004.58 94.6165 1004.77 94.0815 1004.77 93.525C1004.77 92.9686 1004.56 92.4335 1004.2 92.0269C1004.03 91.8129 1003.81 91.6631 1003.58 91.5775Z" fill="#201D67"/>
<path d="M1011.27 93.6771C1010.8 93.4631 1010.27 93.4631 1009.8 93.6771C1009.57 93.7841 1009.35 93.9339 1009.16 94.1265C1008.81 94.5332 1008.59 95.0682 1008.59 95.6247C1008.59 96.2025 1008.79 96.7161 1009.16 97.1228C1009.53 97.5294 1010 97.7434 1010.53 97.7434C1011.05 97.7434 1011.52 97.5294 1011.89 97.1228C1012.26 96.7161 1012.46 96.2025 1012.46 95.6247C1012.46 95.0682 1012.24 94.5332 1011.89 94.1265C1011.72 93.9339 1011.52 93.7841 1011.27 93.6771Z" fill="#201D67"/>
<path d="M1019.62 92.006C1018.9 91.2141 1017.61 91.2141 1016.89 92.006C1016.54 92.4126 1016.32 92.9477 1016.32 93.5041C1016.32 94.0819 1016.52 94.5956 1016.89 95.0022C1017.26 95.4088 1017.73 95.6229 1018.26 95.6229C1018.51 95.6229 1018.76 95.5587 1018.98 95.4516C1019.21 95.3446 1019.43 95.1948 1019.62 95.0022C1019.99 94.5956 1020.19 94.0819 1020.19 93.5041C1020.17 92.9691 1019.95 92.4126 1019.62 92.006Z" fill="#201D67"/>
<path d="M1016.17 84.2601C1016.07 83.9819 1015.93 83.7679 1015.76 83.5539C1015.04 82.762 1013.75 82.762 1013.03 83.5539C1012.85 83.7679 1012.71 83.9819 1012.62 84.2601C1012.52 84.5169 1012.46 84.7951 1012.46 85.052C1012.46 85.3302 1012.52 85.6084 1012.62 85.8438C1012.71 86.1006 1012.85 86.336 1013.03 86.55C1013.4 86.9567 1013.87 87.1707 1014.39 87.1707C1014.65 87.1707 1014.9 87.1065 1015.12 86.9995C1015.35 86.8925 1015.56 86.7427 1015.76 86.55C1016.13 86.1434 1016.33 85.6298 1016.33 85.052C1016.33 84.7951 1016.27 84.5169 1016.17 84.2601Z" fill="#201D67"/>
<path d="M1008.46 84.2601C1008.36 84.0033 1008.22 83.7679 1008.05 83.5539C1007.31 82.762 1006.02 82.762 1005.32 83.5539C1005.14 83.7679 1005 83.9819 1004.91 84.2601C1004.81 84.5169 1004.75 84.7951 1004.75 85.052C1004.75 85.6298 1004.95 86.1434 1005.32 86.55C1005.51 86.7427 1005.73 86.8925 1005.96 86.9995C1006.19 87.1065 1006.45 87.1707 1006.7 87.1707C1007.23 87.1707 1007.7 86.9567 1008.07 86.55C1008.24 86.336 1008.38 86.1006 1008.48 85.8438C1008.59 85.587 1008.63 85.3088 1008.63 85.052C1008.61 84.7951 1008.58 84.5169 1008.46 84.2601Z" fill="#201D67"/>
<path d="M1009.18 78.1166C1009.55 78.5233 1010.02 78.7373 1010.55 78.7373C1010.8 78.7373 1011.05 78.6731 1011.27 78.5661C1011.5 78.4591 1011.72 78.3092 1011.91 78.1166C1012.09 77.9026 1012.22 77.6672 1012.32 77.4104C1012.42 77.1536 1012.48 76.8753 1012.48 76.6185C1012.48 76.0407 1012.26 75.5271 1011.91 75.1204C1011.37 74.5426 1010.53 74.3286 1009.8 74.671C1009.55 74.778 1009.35 74.9278 1009.16 75.1204C1008.81 75.5271 1008.59 76.0621 1008.59 76.6185C1008.59 76.8968 1008.65 77.175 1008.75 77.4104C1008.87 77.6672 1009 77.9026 1009.18 78.1166Z" fill="#201D67"/>
<path d="M840.174 256.048C837.812 261.527 832.738 265.315 826.844 265.315C818.706 265.315 812.09 258.06 812.09 249.136C812.09 241.196 817.32 234.583 824.229 233.213C824.463 238.028 827.683 241.988 831.899 242.865C831.821 243.443 831.762 244.042 831.762 244.641C831.762 250.248 835.373 254.935 840.174 256.048Z" stroke="#1C186C" stroke-width="4.63957" stroke-linecap="round" stroke-linejoin="round"/>
<path d="M820.737 240.319C819.546 240.319 818.57 241.389 818.57 242.695C818.57 244 819.546 245.07 820.737 245.07C821.927 245.07 822.903 244 822.903 242.695C822.903 241.368 821.927 240.319 820.737 240.319Z" fill="#201D67"/>
<path d="M815.955 227.927C814.765 227.927 813.789 228.997 813.789 230.302C813.789 231.608 814.765 232.678 815.955 232.678C817.146 232.678 818.122 231.608 818.122 230.302C818.102 228.975 817.146 227.927 815.955 227.927Z" fill="#201D67"/>
<path d="M827.041 247.617C825.851 247.617 824.875 248.687 824.875 249.993C824.875 251.298 825.851 252.368 827.041 252.368C828.232 252.368 829.208 251.298 829.208 249.993C829.208 248.666 828.232 247.617 827.041 247.617Z" fill="#201D67"/>
<path d="M828.913 257.139C828.913 257.139 828.503 257.395 827.976 257.738C827.468 258.059 827.039 258.337 827.039 258.337C827.039 258.337 827.449 258.08 827.976 257.738C828.483 257.395 828.913 257.139 828.913 257.139Z" stroke="#1C186C" stroke-width="4.63957" stroke-linecap="round" stroke-linejoin="round"/>
<path d="M818.98 250.998C818.98 250.998 819.429 251.212 819.976 251.469C820.522 251.726 820.971 251.94 820.971 251.94C820.971 251.94 820.522 251.726 819.976 251.469C819.429 251.212 818.98 250.998 818.98 250.998Z" stroke="#1C186C" stroke-width="4.63957" stroke-linecap="round" stroke-linejoin="round"/>
<path d="M809.301 237.537C809.301 237.537 809.652 237.173 810.081 236.723C810.511 236.274 810.862 235.91 810.862 235.91C810.862 235.91 810.511 236.274 810.081 236.723C809.652 237.173 809.301 237.537 809.301 237.537Z" stroke="#1C186C" stroke-width="4.63957" stroke-linecap="round" stroke-linejoin="round"/>
<path d="M807.33 249.458C805.3 246.933 804.07 243.637 804.07 240.02C804.07 232.123 809.906 225.724 817.107 225.724C822.923 225.724 827.861 229.897 829.539 235.675" stroke="#1C186C" stroke-width="4.63957" stroke-linecap="round" stroke-linejoin="round"/>
<path d="M1098.47 159.637C1097.22 159.332 1095.92 159.376 1094.68 159.764C1093.45 160.153 1092.32 160.875 1091.41 161.863C1091.02 162.302 1090.8 162.889 1090.8 163.5C1090.8 164.111 1091.02 164.698 1091.41 165.137L1093.63 167.663" stroke="#1C186C" stroke-width="4.63957" stroke-linecap="round" stroke-linejoin="round"/>
<path d="M1113.03 175.88C1113.3 177.271 1113.25 178.714 1112.88 180.078C1112.51 181.442 1111.84 182.684 1110.93 183.691C1110.73 183.906 1110.5 184.077 1110.25 184.193C1109.99 184.31 1109.72 184.369 1109.44 184.369C1109.17 184.369 1108.89 184.31 1108.64 184.193C1108.38 184.077 1108.15 183.906 1107.96 183.691L1105.7 181.166" stroke="#1C186C" stroke-width="4.63957" stroke-linecap="round" stroke-linejoin="round"/>
<path d="M1095.17 181.68C1095.98 183.076 1096.41 184.694 1096.4 186.346C1096.4 187.461 1096.2 188.564 1095.81 189.593C1095.42 190.621 1094.84 191.554 1094.12 192.338C1093.98 192.474 1093.81 192.548 1093.62 192.548C1093.44 192.548 1093.26 192.474 1093.13 192.338C1092.49 191.629 1091.98 190.794 1091.62 189.877C1091.3 189.206 1091.08 188.484 1090.96 187.737C1090.91 187.282 1090.91 186.822 1090.96 186.367C1091.31 184.286 1092.28 182.39 1093.71 180.974C1092.38 182.508 1090.64 183.529 1088.73 183.885C1088.32 183.928 1087.9 183.928 1087.49 183.885C1086.8 183.739 1086.14 183.479 1085.53 183.114C1084.69 182.677 1083.94 182.067 1083.31 181.316C1083.19 181.167 1083.12 180.972 1083.12 180.771C1083.12 180.569 1083.19 180.374 1083.31 180.225C1084.77 178.659 1086.73 177.783 1088.77 177.785C1090.27 177.796 1091.73 178.279 1092.99 179.176" stroke="#1C186C" stroke-width="4.63957" stroke-linecap="round" stroke-linejoin="round"/>
<path d="M1117.56 154.907C1117.33 154.616 1117.07 154.358 1116.78 154.136C1115.98 153.575 1115.08 153.196 1114.14 153.019C1113.2 152.843 1112.24 152.873 1111.32 153.109C1109.12 153.472 1107.01 154.262 1105.07 155.442C1101.43 157.372 1098.36 160.41 1096.25 164.195C1094.37 168 1093.31 172.222 1093.15 176.544C1093.15 176.843 1092.81 179.09 1093.03 179.24L1095.2 181.68C1095.33 181.915 1097.36 181.68 1097.64 181.573C1101.6 181.459 1105.48 180.338 1108.97 178.298C1112.44 176.051 1115.24 172.741 1117.01 168.775C1118.73 164.858 1120.68 158.63 1117.56 154.907Z" stroke="#1C186C" stroke-width="4.63957" stroke-linecap="round" stroke-linejoin="round"/>
<path d="M1103.98 157.39C1104.77 160.31 1106.19 162.976 1108.13 165.158C1110.08 167.335 1112.49 168.952 1115.14 169.867" stroke="#1C186C" stroke-width="4.63957" stroke-linecap="round" stroke-linejoin="round"/>
<path d="M1112.41 157.454C1112.23 157.247 1112.01 157.082 1111.77 156.969C1111.52 156.857 1111.26 156.799 1111 156.799C1110.74 156.799 1110.48 156.857 1110.24 156.969C1110 157.082 1109.78 157.247 1109.6 157.454C1109.33 157.756 1109.15 158.138 1109.08 158.55C1109.01 158.963 1109.06 159.39 1109.21 159.776C1109.36 160.163 1109.61 160.492 1109.93 160.724C1110.24 160.956 1110.62 161.079 1111 161.079C1111.39 161.079 1111.76 160.956 1112.08 160.724C1112.4 160.492 1112.65 160.163 1112.8 159.776C1112.95 159.39 1112.99 158.963 1112.92 158.55C1112.85 158.138 1112.67 157.756 1112.41 157.454Z" fill="#201D67"/>
<path d="M615.234 245.048C620.64 245.412 626.046 248.001 630.32 252.752C634.555 257.461 636.878 263.453 637.229 269.446" stroke="#1C186C" stroke-width="4.63957" stroke-linecap="round" stroke-linejoin="round"/>
<path d="M639.449 270.836L637.048 271.478L612.692 278.005C609.413 278.883 606.544 275.673 607.364 272.034L609.082 264.33L609.199 263.838L610.701 257.139L610.838 256.497L613.375 245.261L614 242.522C614.585 239.889 616.908 238.199 619.289 238.627C625.143 239.675 630.647 242.629 635.038 247.508C639.41 252.345 642.044 258.444 643.001 264.929C643.391 267.583 641.83 270.194 639.449 270.836Z" stroke="#1C186C" stroke-width="4.63957" stroke-linecap="round" stroke-linejoin="round"/>
<path d="M624.736 263.989C626.46 263.989 627.858 262.437 627.858 260.522C627.858 258.607 626.46 257.055 624.736 257.055C623.011 257.055 621.613 258.607 621.613 260.522C621.613 262.437 623.011 263.989 624.736 263.989Z" stroke="#1C186C" stroke-width="4.63957" stroke-linecap="round" stroke-linejoin="round"/>
<path d="M613.184 262.682C612.111 263.881 610.569 264.266 609.203 263.795L611.155 255.063C611.896 255.256 612.599 255.641 613.184 256.283C614.785 258.06 614.785 260.927 613.184 262.682Z" stroke="#1C186C" stroke-width="4.63957" stroke-linecap="round" stroke-linejoin="round"/>
<path d="M615.641 274.882C615.349 273.641 615.641 272.271 616.5 271.308C617.808 269.853 619.915 269.853 621.223 271.308C621.652 271.779 621.945 272.357 622.082 272.978" stroke="#1C186C" stroke-width="4.63957" stroke-linecap="round" stroke-linejoin="round"/>
<path d="M1178.73 231.677C1184.13 232.041 1189.54 234.63 1193.81 239.381C1198.05 244.09 1200.37 250.082 1200.72 256.074" stroke="#1C186C" stroke-width="4.63957" stroke-linecap="round" stroke-linejoin="round"/>
<path d="M1202.95 257.466L1200.55 258.108L1176.19 264.635C1172.91 265.513 1170.04 262.303 1170.86 258.664L1172.58 250.96L1172.7 250.468L1174.2 243.769L1174.34 243.127L1176.88 231.891L1177.5 229.152C1178.09 226.519 1180.41 224.829 1182.79 225.257C1188.64 226.305 1194.15 229.259 1198.54 234.138C1202.91 238.975 1205.54 245.074 1206.5 251.559C1206.89 254.213 1205.33 256.824 1202.95 257.466Z" stroke="#1C186C" stroke-width="4.63957" stroke-linecap="round" stroke-linejoin="round"/>
<path d="M1188.23 250.617C1189.96 250.617 1191.35 249.064 1191.35 247.15C1191.35 245.235 1189.96 243.683 1188.23 243.683C1186.51 243.683 1185.11 245.235 1185.11 247.15C1185.11 249.064 1186.51 250.617 1188.23 250.617Z" stroke="#1C186C" stroke-width="4.63957" stroke-linecap="round" stroke-linejoin="round"/>
<path d="M1176.68 249.312C1175.6 250.511 1174.06 250.896 1172.7 250.425L1174.65 241.693C1175.39 241.886 1176.09 242.271 1176.68 242.913C1178.28 244.69 1178.28 247.557 1176.68 249.312Z" stroke="#1C186C" stroke-width="4.63957" stroke-linecap="round" stroke-linejoin="round"/>
<path d="M1179.14 261.511C1178.84 260.27 1179.14 258.9 1180 257.937C1181.3 256.482 1183.41 256.482 1184.72 257.937C1185.15 258.408 1185.44 258.986 1185.58 259.606" stroke="#1C186C" stroke-width="4.63957" stroke-linecap="round" stroke-linejoin="round"/>
<path d="M1196.65 69.8345L1176.66 91.7497C1174.53 94.0824 1174.53 97.8491 1176.66 100.182C1178.79 102.515 1182.22 102.515 1184.35 100.182L1204.34 78.2667C1206.46 75.934 1206.46 72.1673 1204.34 69.8345C1202.21 67.5018 1198.77 67.5018 1196.65 69.8345Z" stroke="#1C186C" stroke-width="4.63957" stroke-linecap="round" stroke-linejoin="round"/>
<path d="M1180.86 94.6599C1183.16 92.1345 1183.98 93.0334 1186.3 90.508C1188.61 87.9826 1187.79 87.0838 1190.09 84.537C1192.39 82.0116 1193.23 82.9105 1195.54 80.3851C1197.84 77.8597 1197.02 76.9394 1199.32 74.4141" stroke="#1C186C" stroke-width="4.63957" stroke-linecap="round" stroke-linejoin="round"/>
<path d="M1189.74 67.309L1174.36 84.1734C1171.8 86.977 1171.8 91.4927 1174.36 94.2963L1198.95 67.3304C1196.41 64.5054 1192.27 64.5054 1189.74 67.309Z" stroke="#1C186C" stroke-width="4.63957" stroke-linecap="round" stroke-linejoin="round"/>
<path d="M1191.26 102.706L1206.64 85.8417C1209.19 83.0381 1209.19 78.5223 1206.64 75.7188L1182.05 102.685C1184.58 105.51 1188.72 105.51 1191.26 102.706Z" stroke="#1C186C" stroke-width="4.63957" stroke-linecap="round" stroke-linejoin="round"/>
<path d="M437.656 275.953H418.14C414.666 275.953 411.855 272.871 411.855 269.061V264.952H443.94V269.061C443.94 272.871 441.13 275.953 437.656 275.953Z" stroke="#1C186C" stroke-width="4.63957" stroke-linecap="round" stroke-linejoin="round"/>
<path d="M442.943 258.359H412.849C411.19 258.359 409.844 259.836 409.844 261.655C409.844 263.474 411.19 264.951 412.849 264.951H442.943C444.602 264.951 445.949 263.474 445.949 261.655C445.949 259.836 444.602 258.359 442.943 258.359Z" stroke="#1C186C" stroke-width="4.63957" stroke-linecap="round" stroke-linejoin="round"/>
<path d="M428.932 240.768H426.863C418.569 240.768 411.855 248.13 411.855 257.225V258.36H443.94V257.225C443.94 248.13 437.227 240.768 428.932 240.768Z" stroke="#1C186C" stroke-width="4.63957" stroke-linecap="round" stroke-linejoin="round"/>
<path d="M411.641 265.486C412.402 266.385 412.948 267.605 414.373 267.605C415.798 267.605 416.344 266.385 417.105 265.486" stroke="#1C186C" stroke-width="4.63957" stroke-linecap="round" stroke-linejoin="round"/>
<path d="M429.969 265.486C430.73 266.385 431.276 267.605 432.701 267.605C434.145 267.605 434.692 266.385 435.453 265.486" stroke="#1C186C" stroke-width="4.63957" stroke-linecap="round" stroke-linejoin="round"/>
<path d="M441.892 267.584C440.468 267.584 439.921 266.364 439.16 265.465" stroke="#1C186C" stroke-width="4.63957" stroke-linecap="round" stroke-linejoin="round"/>
<path d="M420.812 265.486C421.574 266.385 422.12 267.605 423.545 267.605C424.969 267.605 425.516 266.385 426.277 265.486" stroke="#1C186C" stroke-width="4.63957" stroke-linecap="round" stroke-linejoin="round"/>
<path d="M1108.13 21.2748H1088.61C1085.14 21.2748 1082.33 18.193 1082.33 14.3835V10.2744H1114.41V14.3835C1114.41 18.193 1111.6 21.2748 1108.13 21.2748Z" stroke="#1C186C" stroke-width="4.63957" stroke-linecap="round" stroke-linejoin="round"/>
<path d="M1113.42 3.68164H1083.32C1081.66 3.68164 1080.32 5.15834 1080.32 6.97747C1080.32 8.7966 1081.66 10.2733 1083.32 10.2733H1113.42C1115.07 10.2733 1116.42 8.7966 1116.42 6.97747C1116.42 5.15834 1115.07 3.68164 1113.42 3.68164Z" stroke="#1C186C" stroke-width="4.63957" stroke-linecap="round" stroke-linejoin="round"/>
<path d="M1099.4 -13.9102H1097.34C1089.04 -13.9102 1082.33 -6.54804 1082.33 2.5476V3.68188H1114.41V2.5476C1114.41 -6.54804 1107.7 -13.9102 1099.4 -13.9102Z" stroke="#1C186C" stroke-width="4.63957" stroke-linecap="round" stroke-linejoin="round"/>
<path d="M1082.11 10.8076C1082.87 11.7065 1083.42 12.9264 1084.85 12.9264C1086.27 12.9264 1086.82 11.7065 1087.58 10.8076" stroke="#1C186C" stroke-width="4.63957" stroke-linecap="round" stroke-linejoin="round"/>
<path d="M1100.44 10.8076C1101.2 11.7065 1101.75 12.9264 1103.17 12.9264C1104.61 12.9264 1105.16 11.7065 1105.92 10.8076" stroke="#1C186C" stroke-width="4.63957" stroke-linecap="round" stroke-linejoin="round"/>
<path d="M1112.36 12.9059C1110.94 12.9059 1110.39 11.686 1109.63 10.7871" stroke="#1C186C" stroke-width="4.63957" stroke-linecap="round" stroke-linejoin="round"/>
<path d="M1091.29 10.8076C1092.05 11.7065 1092.59 12.9264 1094.02 12.9264C1095.44 12.9264 1095.99 11.7065 1096.75 10.8076" stroke="#1C186C" stroke-width="4.63957" stroke-linecap="round" stroke-linejoin="round"/>
<path d="M1035.92 288.792H1016.4C1012.93 288.792 1010.12 285.711 1010.12 281.901V277.792H1042.2V281.901C1042.2 285.711 1039.39 288.792 1035.92 288.792Z" stroke="#1C186C" stroke-width="4.63957" stroke-linecap="round" stroke-linejoin="round"/>
<path d="M1041.2 271.201H1011.11C1009.45 271.201 1008.11 272.678 1008.11 274.497C1008.11 276.316 1009.45 277.793 1011.11 277.793H1041.2C1042.86 277.793 1044.21 276.316 1044.21 274.497C1044.21 272.678 1042.86 271.201 1041.2 271.201Z" stroke="#1C186C" stroke-width="4.63957" stroke-linecap="round" stroke-linejoin="round"/>
<path d="M1027.19 253.608H1025.13C1016.83 253.608 1010.12 260.971 1010.12 270.066V271.2H1042.2V270.066C1042.2 260.971 1035.49 253.608 1027.19 253.608Z" stroke="#1C186C" stroke-width="4.63957" stroke-linecap="round" stroke-linejoin="round"/>
<path d="M1009.9 278.327C1010.66 279.226 1011.21 280.446 1012.63 280.446C1014.06 280.446 1014.61 279.226 1015.37 278.327" stroke="#1C186C" stroke-width="4.63957" stroke-linecap="round" stroke-linejoin="round"/>
<path d="M1028.23 278.327C1028.99 279.226 1029.53 280.446 1030.96 280.446C1032.4 280.446 1032.95 279.226 1033.71 278.327" stroke="#1C186C" stroke-width="4.63957" stroke-linecap="round" stroke-linejoin="round"/>
<path d="M1040.15 280.424C1038.73 280.424 1038.18 279.205 1037.42 278.306" stroke="#1C186C" stroke-width="4.63957" stroke-linecap="round" stroke-linejoin="round"/>
<path d="M1019.07 278.327C1019.84 279.226 1020.38 280.446 1021.81 280.446C1023.23 280.446 1023.78 279.226 1024.54 278.327" stroke="#1C186C" stroke-width="4.63957" stroke-linecap="round" stroke-linejoin="round"/>
</g>
<g opacity="0.25">
<path d="M248.773 270.944C252.661 267.181 257.953 264.897 263.788 264.946C269.584 264.995 274.87 267.334 278.809 271.147" stroke="#1C186C" stroke-width="4.63957" stroke-linecap="round" stroke-linejoin="round"/>
<path d="M277.883 262.308C273.69 259.521 268.871 257.932 263.758 257.884C257.766 257.835 252.202 259.926 247.573 263.56C245.697 265.034 245.167 267.923 246.375 270.15L247.641 272.484L252.881 281.992C252.881 281.992 256.601 288.759 260.107 295.14C261.802 298.224 265.744 298.271 267.426 295.234L279.94 272.69L281.172 270.466C282.384 268.263 281.841 265.33 279.93 263.83C279.287 263.273 278.585 262.78 277.883 262.308Z" stroke="#1C186C" stroke-width="4.63957" stroke-linecap="round" stroke-linejoin="round"/>
<path d="M270.744 275.398C271.213 275.613 271.74 275.613 272.208 275.4C272.462 275.293 272.657 275.143 272.853 274.951C273.204 274.545 273.42 274.01 273.42 273.454C273.421 272.876 273.226 272.362 272.856 271.955C272.485 271.548 272.017 271.333 271.49 271.333C270.963 271.332 270.495 271.546 270.124 271.952C269.752 272.358 269.557 272.893 269.556 273.449C269.555 274.006 269.77 274.541 270.12 274.948C270.296 275.162 270.51 275.312 270.744 275.398Z" fill="#201D67"/>
<path d="M263.057 273.293C263.525 273.507 264.052 273.508 264.521 273.294C264.755 273.187 264.97 273.038 265.165 272.846C265.517 272.439 265.732 271.904 265.733 271.348C265.733 270.77 265.539 270.256 265.168 269.849C264.798 269.442 264.33 269.228 263.803 269.227C263.276 269.227 262.807 269.44 262.436 269.846C262.065 270.253 261.869 270.766 261.869 271.344C261.868 271.9 262.082 272.436 262.433 272.843C262.608 273.035 262.803 273.185 263.057 273.293Z" fill="#201D67"/>
<path d="M254.699 274.952C255.42 275.745 256.708 275.746 257.431 274.955C257.783 274.549 257.998 274.014 257.998 273.458C257.999 272.88 257.804 272.366 257.434 271.959C257.064 271.552 256.595 271.338 256.069 271.337C255.815 271.337 255.561 271.401 255.346 271.507C255.112 271.614 254.897 271.764 254.702 271.956C254.33 272.362 254.135 272.876 254.134 273.454C254.153 273.989 254.367 274.545 254.699 274.952Z" fill="#201D67"/>
<path d="M258.145 282.704C258.242 282.982 258.379 283.196 258.554 283.41C259.275 284.203 260.563 284.204 261.286 283.413C261.462 283.199 261.599 282.986 261.697 282.708C261.795 282.451 261.854 282.173 261.854 281.916C261.854 281.638 261.796 281.359 261.699 281.124C261.601 280.867 261.465 280.631 261.289 280.417C260.919 280.01 260.451 279.796 259.924 279.795C259.67 279.795 259.416 279.859 259.202 279.965C258.967 280.072 258.753 280.222 258.557 280.414C258.186 280.82 257.99 281.334 257.99 281.912C257.989 282.168 258.048 282.447 258.145 282.704Z" fill="#201D67"/>
<path d="M265.856 282.713C265.953 282.969 266.089 283.205 266.265 283.419C267.006 284.212 268.294 284.213 268.997 283.422C269.173 283.208 269.31 282.994 269.408 282.716C269.506 282.46 269.564 282.181 269.565 281.925C269.565 281.347 269.371 280.833 269 280.426C268.805 280.233 268.591 280.083 268.357 279.976C268.123 279.869 267.869 279.804 267.615 279.804C267.088 279.803 266.62 280.017 266.249 280.423C266.073 280.637 265.936 280.872 265.838 281.129C265.721 281.385 265.681 281.664 265.681 281.92C265.7 282.177 265.739 282.456 265.856 282.713Z" fill="#201D67"/>
<path d="M184.62 207.249C185.873 207.556 187.177 207.513 188.411 207.126C189.646 206.739 190.772 206.018 191.688 205.031C192.075 204.592 192.293 204.005 192.293 203.394C192.294 202.783 192.078 202.196 191.691 201.757L189.469 199.229" stroke="#1C186C" stroke-width="4.63957" stroke-linecap="round" stroke-linejoin="round"/>
<path d="M170.08 190.99C169.813 189.598 169.867 188.155 170.237 186.792C170.606 185.429 171.28 184.187 172.196 183.181C172.39 182.966 172.622 182.796 172.876 182.68C173.131 182.564 173.404 182.504 173.68 182.504C173.956 182.505 174.229 182.565 174.483 182.682C174.738 182.798 174.969 182.969 175.162 183.184L177.424 185.712" stroke="#1C186C" stroke-width="4.63957" stroke-linecap="round" stroke-linejoin="round"/>
<path d="M187.943 185.209C187.139 183.812 186.715 182.194 186.718 180.542C186.72 179.428 186.923 178.324 187.316 177.296C187.709 176.268 188.284 175.335 189.008 174.552C189.145 174.417 189.322 174.342 189.506 174.343C189.69 174.343 189.867 174.418 190.003 174.553C190.641 175.263 191.15 176.099 191.503 177.016C191.825 177.687 192.049 178.41 192.165 179.157C192.209 179.612 192.208 180.072 192.163 180.527C191.81 182.607 190.841 184.502 189.406 185.917C190.736 184.385 192.483 183.365 194.385 183.012C194.801 182.969 195.219 182.969 195.634 183.013C196.317 183.16 196.975 183.42 197.585 183.786C198.425 184.224 199.179 184.835 199.808 185.586C199.931 185.735 200 185.93 199.999 186.132C199.999 186.333 199.931 186.528 199.807 186.677C198.345 188.241 196.382 189.115 194.34 189.111C192.842 189.099 191.379 188.614 190.126 187.715" stroke="#1C186C" stroke-width="4.63957" stroke-linecap="round" stroke-linejoin="round"/>
<path d="M165.527 211.959C165.758 212.249 166.02 212.508 166.307 212.73C167.109 213.292 168.005 213.672 168.943 213.85C169.882 214.027 170.843 213.998 171.77 213.763C173.962 213.402 176.078 212.614 178.018 211.437C181.665 209.511 184.73 206.475 186.849 202.693C188.728 198.89 189.794 194.669 189.965 190.348C189.965 190.048 190.299 187.801 190.085 187.651L187.921 185.209C187.785 184.974 185.755 185.207 185.482 185.314C181.522 185.423 177.639 186.54 174.139 188.576C170.667 190.819 167.869 194.127 166.088 198.091C164.367 202.006 162.408 208.231 165.527 211.959Z" stroke="#1C186C" stroke-width="4.63957" stroke-linecap="round" stroke-linejoin="round"/>
<path d="M179.117 209.49C178.329 206.569 176.905 203.901 174.969 201.717C173.024 199.538 170.619 197.918 167.967 197.001" stroke="#1C186C" stroke-width="4.63957" stroke-linecap="round" stroke-linejoin="round"/>
<path d="M170.683 209.418C170.865 209.625 171.083 209.79 171.324 209.903C171.566 210.016 171.825 210.074 172.087 210.074C172.35 210.074 172.609 210.017 172.851 209.904C173.093 209.792 173.311 209.628 173.493 209.421C173.759 209.119 173.939 208.737 174.009 208.324C174.078 207.912 174.036 207.485 173.887 207.099C173.737 206.712 173.488 206.382 173.168 206.15C172.849 205.918 172.475 205.794 172.092 205.794C171.709 205.793 171.335 205.917 171.015 206.148C170.695 206.379 170.445 206.709 170.295 207.095C170.144 207.481 170.101 207.907 170.17 208.32C170.239 208.733 170.418 209.115 170.683 209.418Z" fill="#201D67"/>
<path d="M82.0039 296.941L102.012 275.047C104.142 272.717 104.146 268.95 102.021 266.615C99.8963 264.28 96.4615 264.277 94.3317 266.607L74.3236 288.501C72.1938 290.831 72.1898 294.598 74.3145 296.933C76.4393 299.268 79.8741 299.272 82.0039 296.941Z" stroke="#1C186C" stroke-width="4.63957" stroke-linecap="round" stroke-linejoin="round"/>
<path d="M97.8186 272.132C95.513 274.655 94.6943 273.755 92.3692 276.278C90.0635 278.801 90.8823 279.701 88.5766 282.245C86.271 284.768 85.4328 283.868 83.1271 286.391C80.8215 288.914 81.6402 289.835 79.3346 292.358" stroke="#1C186C" stroke-width="4.63957" stroke-linecap="round" stroke-linejoin="round"/>
<path d="M88.9092 299.473L104.306 282.625C106.866 279.824 106.871 275.309 104.317 272.502L79.6976 299.442C82.2316 302.27 86.3691 302.274 88.9092 299.473Z" stroke="#1C186C" stroke-width="4.63957" stroke-linecap="round" stroke-linejoin="round"/>
<path d="M87.4228 264.074L72.026 280.922C69.4663 283.723 69.4615 288.239 72.0151 291.045L96.6345 264.105C94.1004 261.278 89.963 261.273 87.4228 264.074Z" stroke="#1C186C" stroke-width="4.63957" stroke-linecap="round" stroke-linejoin="round"/>
<path d="M357.887 61.3258C361.774 57.5633 367.066 55.279 372.901 55.3281C378.697 55.3772 383.984 57.7156 387.922 61.5293" stroke="#1C186C" stroke-width="4.63957" stroke-linecap="round" stroke-linejoin="round"/>
<path d="M386.996 52.6899C382.803 49.9032 377.984 48.3143 372.871 48.266C366.88 48.2168 361.315 50.3082 356.686 53.9414C354.811 55.4161 354.281 58.3048 355.488 60.5318L356.754 62.8659L361.994 72.3738C361.994 72.3738 365.714 79.1407 369.22 85.5221C370.915 88.6058 374.857 88.6528 376.539 85.6156L389.053 63.0719L390.285 60.8474C391.498 58.6444 390.954 55.7118 389.043 54.2116C388.4 53.6545 387.698 53.1615 386.996 52.6899Z" stroke="#1C186C" stroke-width="4.63957" stroke-linecap="round" stroke-linejoin="round"/>
<path d="M379.862 65.7829C380.33 65.9974 380.857 65.998 381.325 65.7845C381.579 65.6777 381.774 65.5282 381.97 65.3358C382.322 64.9295 382.537 64.3947 382.537 63.8383C382.538 63.2604 382.343 62.7466 381.973 62.3396C381.603 61.9325 381.135 61.718 380.608 61.7174C380.081 61.7169 379.612 61.9304 379.241 62.3366C378.87 62.7429 378.674 63.2777 378.673 63.8341C378.673 64.3906 378.887 64.9258 379.238 65.3328C379.413 65.547 379.628 65.697 379.862 65.7829Z" fill="#201D67"/>
<path d="M372.174 63.6755C372.642 63.89 373.169 63.8906 373.638 63.6771C373.872 63.5703 374.087 63.4207 374.282 63.2283C374.634 62.8221 374.849 62.2873 374.85 61.7308C374.851 61.153 374.656 60.6391 374.286 60.2321C373.915 59.8251 373.447 59.6106 372.92 59.61C372.393 59.6094 371.925 59.8229 371.553 60.2292C371.182 60.6354 370.986 61.1488 370.986 61.7267C370.985 62.2831 371.199 62.8184 371.55 63.2254C371.726 63.4182 371.921 63.5682 372.174 63.6755Z" fill="#201D67"/>
<path d="M363.82 65.3371C364.541 66.1298 365.829 66.1311 366.552 65.3401C366.904 64.9338 367.119 64.399 367.119 63.8426C367.12 63.2647 366.925 62.7509 366.555 62.3439C366.185 61.9368 365.717 61.7223 365.19 61.7217C364.936 61.7215 364.682 61.7854 364.467 61.8922C364.233 61.9989 364.018 62.1485 363.823 62.3409C363.452 62.7472 363.256 63.2606 363.255 63.8384C363.274 64.3735 363.488 64.9301 363.82 65.3371Z" fill="#201D67"/>
<path d="M367.266 73.0865C367.363 73.3649 367.5 73.579 367.675 73.7932C368.396 74.5858 369.684 74.5872 370.407 73.7961C370.583 73.5823 370.72 73.3685 370.818 73.0903C370.916 72.8336 370.975 72.5555 370.975 72.2986C370.975 72.0204 370.917 71.7421 370.82 71.5066C370.722 71.2497 370.586 71.0141 370.411 70.7999C370.04 70.3929 369.572 70.1784 369.045 70.1778C368.791 70.1776 368.538 70.2415 368.323 70.3483C368.088 70.455 367.874 70.6046 367.678 70.797C367.307 71.2032 367.111 71.7166 367.111 72.2945C367.11 72.5513 367.169 72.8296 367.266 73.0865Z" fill="#201D67"/>
<path d="M374.973 73.0953C375.07 73.3522 375.207 73.5878 375.382 73.802C376.123 74.5946 377.411 74.596 378.114 73.8049C378.29 73.5911 378.427 73.3772 378.525 73.0991C378.623 72.8424 378.682 72.5642 378.682 72.3074C378.683 71.7296 378.488 71.2157 378.118 70.8087C377.923 70.6159 377.708 70.4659 377.474 70.3586C377.24 70.2514 376.986 70.1869 376.733 70.1866C376.206 70.186 375.737 70.3995 375.366 70.8058C375.19 71.0196 375.053 71.2549 374.955 71.5116C374.838 71.7683 374.798 72.0464 374.798 72.3033C374.817 72.5601 374.856 72.8384 374.973 73.0953Z" fill="#201D67"/>
<path d="M374.247 79.2382C373.876 78.8312 373.408 78.6166 372.881 78.6161C372.627 78.6158 372.374 78.6797 372.159 78.7865C371.924 78.8933 371.71 79.0429 371.514 79.2353C371.338 79.4491 371.202 79.6844 371.104 79.9411C371.006 80.1978 370.947 80.4759 370.947 80.7328C370.946 81.3106 371.16 81.8245 371.511 82.2315C372.057 82.8099 372.896 83.0248 373.618 82.6832C373.872 82.5764 374.067 82.4268 374.263 82.2344C374.615 81.8282 374.83 81.2934 374.83 80.7369C374.831 80.4587 374.772 80.1804 374.675 79.9449C374.558 79.688 374.422 79.4524 374.247 79.2382Z" fill="#201D67"/>
<path d="M278.491 28.5919C279.744 28.8986 281.048 28.8562 282.282 28.4688C283.517 28.0813 284.643 27.3611 285.559 26.3737C285.947 25.9351 286.164 25.3482 286.165 24.7372C286.165 24.1261 285.949 23.5388 285.562 23.0993L283.34 20.5715" stroke="#1C186C" stroke-width="4.63957" stroke-linecap="round" stroke-linejoin="round"/>
<path d="M263.951 12.3339C263.684 10.942 263.738 9.49919 264.108 8.13575C264.477 6.7723 265.151 5.53121 266.067 4.52464C266.262 4.31002 266.493 4.13974 266.747 4.02364C267.002 3.90754 267.275 3.84792 267.551 3.84822C267.827 3.84851 268.1 3.90872 268.354 4.02537C268.609 4.14201 268.84 4.31279 269.034 4.52782L271.295 7.05563" stroke="#1C186C" stroke-width="4.63957" stroke-linecap="round" stroke-linejoin="round"/>
<path d="M281.814 6.5529C281.01 5.15614 280.586 3.5376 280.589 1.88606C280.591 0.771289 280.794 -0.332091 281.187 -1.36025C281.58 -2.38841 282.155 -3.32095 282.879 -4.1039C283.016 -4.23911 283.193 -4.31387 283.377 -4.31367C283.561 -4.31347 283.738 -4.23833 283.874 -4.10283C284.512 -3.39336 285.021 -2.55766 285.375 -1.64005C285.696 -0.969141 285.92 -0.246595 286.036 0.500814C286.08 0.956121 286.079 1.4153 286.034 1.87051C285.681 3.95109 284.712 5.84586 283.277 7.26073C284.607 5.7284 286.354 4.70923 288.256 4.35547C288.672 4.3126 289.09 4.31305 289.506 4.35682C290.188 4.5036 290.846 4.76414 291.456 5.12937C292.296 5.56731 293.051 6.17848 293.679 6.92948C293.802 7.07916 293.871 7.27373 293.87 7.47543C293.87 7.67712 293.802 7.87155 293.678 8.02096C292.216 9.58524 290.253 10.459 288.211 10.4549C286.713 10.4426 285.25 9.95814 283.997 9.05923" stroke="#1C186C" stroke-width="4.63957" stroke-linecap="round" stroke-linejoin="round"/>
<path d="M259.398 33.3013C259.629 33.5917 259.891 33.8507 260.178 34.0726C260.98 34.6343 261.877 35.015 262.815 35.1924C263.753 35.3698 264.714 35.3404 265.641 35.1058C267.834 34.7449 269.949 33.9571 271.889 32.7797C275.536 30.8533 278.601 27.8182 280.72 24.036C282.599 20.2332 283.665 16.0115 283.836 11.6907C283.836 11.391 284.171 9.14425 283.956 8.99421L281.792 6.55211C281.656 6.31655 279.626 6.54978 279.353 6.65649C275.393 6.76568 271.51 7.88246 268.01 9.91873C264.538 12.1621 261.74 15.4694 259.959 19.4338C258.238 23.3484 256.279 29.5741 259.398 33.3013Z" stroke="#1C186C" stroke-width="4.63957" stroke-linecap="round" stroke-linejoin="round"/>
<path d="M272.984 30.833C272.196 27.9116 270.772 25.2441 268.836 23.0598C266.891 20.8808 264.486 19.2611 261.835 18.3439" stroke="#1C186C" stroke-width="4.63957" stroke-linecap="round" stroke-linejoin="round"/>
<path d="M264.554 30.7604C264.736 30.9677 264.954 31.1327 265.195 31.2455C265.437 31.3583 265.696 31.4166 265.959 31.4168C266.221 31.4171 266.481 31.3594 266.722 31.2471C266.964 31.1349 267.182 30.9703 267.364 30.7634C267.63 30.4614 267.81 30.0801 267.88 29.6673C267.95 29.2544 267.907 28.8281 267.758 28.4415C267.608 28.0548 267.359 27.725 267.04 27.4929C266.72 27.2609 266.346 27.137 265.963 27.1366C265.58 27.1361 265.206 27.2593 264.886 27.4906C264.566 27.722 264.316 28.0513 264.166 28.4376C264.015 28.8239 263.972 29.2501 264.041 29.6631C264.11 30.0762 264.289 30.4578 264.554 30.7604Z" fill="#201D67"/>
<path d="M80.8516 24.6768L72.8564 0.463059L64.8093 24.6595" stroke="#1C186C" stroke-width="4.63957" stroke-linecap="round" stroke-linejoin="round"/>
<path d="M60.7881 25.7476C61.1199 25.7479 61.4127 25.7268 61.686 25.6843C63.8331 25.3014 64.1278 23.5468 66.821 23.5497C69.846 23.5529 69.8436 25.7573 72.8296 25.7605C75.8546 25.7637 75.857 23.5594 78.843 23.5626C81.5362 23.5655 81.8076 25.2993 83.9734 25.7083C84.2271 25.7513 84.5393 25.7731 84.8711 25.7734" stroke="#1C186C" stroke-width="4.63957" stroke-linecap="round" stroke-linejoin="round"/>
<path d="M62.7929 29.0455C62.7942 27.8898 62.9516 26.7343 63.2845 25.6859C65.1389 25.3027 65.375 23.548 67.6779 23.5505C70.2736 23.5533 70.2712 25.7577 72.8278 25.7604C75.4235 25.7632 75.4258 23.5588 77.9824 23.5616C80.2854 23.5641 80.5372 25.2979 82.3713 25.7065C82.6824 26.7555 82.8568 27.9113 82.8556 29.067C82.849 35.145 78.355 40.0626 72.8124 40.0566C67.2698 40.0506 62.7864 35.1235 62.7929 29.0455Z" stroke="#1C186C" stroke-width="4.63957" stroke-linecap="round" stroke-linejoin="round"/>
<path d="M62.8007 22.454L82.8633 22.4756" stroke="#1C186C" stroke-width="4.63957" stroke-linecap="round" stroke-linejoin="round"/>
<path d="M101.969 166.69C96.5632 166.321 91.16 163.725 86.891 158.97C82.6611 154.257 80.3451 148.262 80.0003 142.269" stroke="#1C186C" stroke-width="4.63957" stroke-linecap="round" stroke-linejoin="round"/>
<path d="M77.7774 140.876L80.1786 140.236L104.542 133.735C107.821 132.861 110.687 136.074 109.863 139.712L108.138 147.414L108.02 147.906L106.51 154.603L106.373 155.245L103.824 166.478L103.196 169.217C102.608 171.849 100.283 173.537 97.903 173.106C92.0492 172.051 86.5489 169.092 82.163 164.208C77.7965 159.366 75.1684 153.264 74.2191 146.779C73.8316 144.124 75.3957 141.515 77.7774 140.876Z" stroke="#1C186C" stroke-width="4.63957" stroke-linecap="round" stroke-linejoin="round"/>
<path d="M92.4864 147.739C90.7619 147.737 89.3621 149.288 89.3601 151.203C89.358 153.118 90.7544 154.672 92.479 154.673C94.2035 154.675 95.6032 153.125 95.6053 151.21C95.6073 149.295 94.211 147.741 92.4864 147.739Z" stroke="#1C186C" stroke-width="4.63957" stroke-linecap="round" stroke-linejoin="round"/>
<path d="M104.039 149.058C105.113 147.861 106.655 147.478 108.021 147.95L106.06 156.68C105.319 156.486 104.617 156.1 104.032 155.457C102.433 153.679 102.436 150.812 104.039 149.058Z" stroke="#1C186C" stroke-width="4.63957" stroke-linecap="round" stroke-linejoin="round"/>
<path d="M101.59 136.856C101.882 138.097 101.587 139.467 100.728 140.429C99.4185 141.883 97.3108 141.881 96.0048 140.424C95.5759 139.953 95.2838 139.374 95.1479 138.754" stroke="#1C186C" stroke-width="4.63957" stroke-linecap="round" stroke-linejoin="round"/>
<path d="M175.906 87.3063L195.914 65.4127C198.044 63.0822 198.048 59.3156 195.923 56.9805C193.799 54.6455 190.364 54.6418 188.234 56.9722L168.226 78.8659C166.096 81.1964 166.092 84.963 168.217 87.2981C170.342 89.6331 173.776 89.6368 175.906 87.3063Z" stroke="#1C186C" stroke-width="4.63957" stroke-linecap="round" stroke-linejoin="round"/>
<path d="M191.721 62.4974C189.415 65.0203 188.597 64.1205 186.272 66.6434C183.966 69.1663 184.785 70.066 182.479 72.6103C180.173 75.1332 179.335 74.2335 177.029 76.7564C174.724 79.2793 175.543 80.2004 173.237 82.7233" stroke="#1C186C" stroke-width="4.63957" stroke-linecap="round" stroke-linejoin="round"/>
<path d="M182.812 89.8394L198.208 72.9915C200.768 70.1907 200.773 65.675 198.219 62.8686L173.6 89.8081C176.134 92.6358 180.271 92.6403 182.812 89.8394Z" stroke="#1C186C" stroke-width="4.63957" stroke-linecap="round" stroke-linejoin="round"/>
<path d="M181.329 54.4393L165.932 71.2872C163.373 74.088 163.368 78.6037 165.921 81.4101L190.541 54.4706C188.007 51.6429 183.869 51.6385 181.329 54.4393Z" stroke="#1C186C" stroke-width="4.63957" stroke-linecap="round" stroke-linejoin="round"/>
<path d="M279.583 135.976L299.099 135.997C302.573 136.001 305.38 139.085 305.376 142.895L305.371 147.004L273.287 146.969L273.291 142.86C273.295 139.051 276.109 135.972 279.583 135.976Z" stroke="#1C186C" stroke-width="4.63957" stroke-linecap="round" stroke-linejoin="round"/>
<path d="M274.276 153.563L304.37 153.595C306.028 153.597 307.377 152.122 307.379 150.303C307.38 148.484 306.035 147.006 304.377 147.004L274.283 146.971C272.624 146.97 271.276 148.445 271.274 150.264C271.272 152.083 272.617 153.561 274.276 153.563Z" stroke="#1C186C" stroke-width="4.63957" stroke-linecap="round" stroke-linejoin="round"/>
<path d="M288.267 171.17L290.336 171.172C298.63 171.181 305.352 163.826 305.361 154.731L305.363 153.596L273.278 153.562L273.277 154.696C273.267 163.792 279.973 171.161 288.267 171.17Z" stroke="#1C186C" stroke-width="4.63957" stroke-linecap="round" stroke-linejoin="round"/>
<path d="M305.586 146.47C304.826 145.57 304.281 144.35 302.856 144.348C301.431 144.347 300.884 145.566 300.121 146.464" stroke="#1C186C" stroke-width="4.63957" stroke-linecap="round" stroke-linejoin="round"/>
<path d="M287.258 146.45C286.498 145.551 285.953 144.33 284.528 144.329C283.084 144.327 282.536 145.546 281.774 146.444" stroke="#1C186C" stroke-width="4.63957" stroke-linecap="round" stroke-linejoin="round"/>
<path d="M275.336 144.34C276.761 144.342 277.306 145.562 278.066 146.462" stroke="#1C186C" stroke-width="4.63957" stroke-linecap="round" stroke-linejoin="round"/>
<path d="M296.414 146.46C295.654 145.56 295.109 144.34 293.684 144.338C292.259 144.337 291.712 145.556 290.95 146.454" stroke="#1C186C" stroke-width="4.63957" stroke-linecap="round" stroke-linejoin="round"/>
</g>
</g>
</svg>
