<svg width="16" height="21" viewBox="0 0 16 21" fill="none" xmlns="http://www.w3.org/2000/svg">
<path d="M12.6191 0.88436C9.71751 0.397922 6.73958 0.397922 3.83801 0.88436C2.77797 1.06207 1.93378 1.87587 1.72124 2.93105C0.747525 7.76505 0.694397 12.7393 1.56464 17.593L1.91894 19.5691C2.02819 20.1785 2.77103 20.422 3.21984 19.9957L7.4965 15.9328C7.90673 15.5431 8.55036 15.5431 8.96059 15.9328L13.2373 19.9957C13.6861 20.422 14.4289 20.1785 14.5381 19.5691L14.8925 17.593C15.7627 12.7393 15.7096 7.76505 14.7359 2.93105C14.5233 1.87587 13.6791 1.06207 12.6191 0.88436Z" fill="#98989A"/>
</svg>
