<svg width="20" height="24" viewBox="0 0 20 24" fill="none" xmlns="http://www.w3.org/2000/svg">
<path d="M6.20127 9.96243C6.20127 7.91396 7.86189 6.25334 9.91037 6.25334C11.9588 6.25334 13.6195 7.91396 13.6195 9.96243C13.6195 12.0109 11.9588 13.6715 9.91037 13.6715C7.86189 13.6715 6.20127 12.0109 6.20127 9.96243Z" fill="#6C5FBC"/>
<path fill-rule="evenodd" clip-rule="evenodd" d="M0.521837 8.68124C0.914018 3.92339 4.88994 0.261719 9.66392 0.261719H10.1569C14.9309 0.261719 18.9068 3.92339 19.299 8.68124C19.5101 11.2429 18.7188 13.7866 17.0918 15.7764L11.6217 22.4662C10.7372 23.5479 9.0836 23.5479 8.19915 22.4662L2.72902 15.7764C1.10197 13.7866 0.310683 11.2429 0.521837 8.68124ZM9.91037 4.54145C6.91644 4.54145 4.48938 6.96851 4.48938 9.96243C4.48938 12.9564 6.91644 15.3834 9.91037 15.3834C12.9043 15.3834 15.3314 12.9564 15.3314 9.96243C15.3314 6.96851 12.9043 4.54145 9.91037 4.54145Z" fill="#6C5FBC"/>
</svg>
