<svg width="23" height="23" viewBox="0 0 23 23" fill="none" xmlns="http://www.w3.org/2000/svg">
<path fill-rule="evenodd" clip-rule="evenodd" d="M0.175781 11.6963C0.175781 5.53704 5.16887 0.543945 11.3282 0.543945C17.4875 0.543945 22.4805 5.53704 22.4805 11.6963C22.4805 17.8556 17.4875 22.8487 11.3282 22.8487C5.16887 22.8487 0.175781 17.8556 0.175781 11.6963ZM12.3122 5.1361C12.3122 4.59264 11.8716 4.15207 11.3282 4.15207C10.7847 4.15207 10.3441 4.59264 10.3441 5.1361V11.6963C10.3441 12.0356 10.5189 12.351 10.8066 12.5308L14.7428 14.9909C15.2036 15.2789 15.8107 15.1388 16.0988 14.6779C16.3868 14.2171 16.2467 13.61 15.7858 13.322L12.3122 11.1509V5.1361Z" fill="#6C5FBC"/>
</svg>
