<svg width="26" height="26" viewBox="0 0 26 26" fill="none" xmlns="http://www.w3.org/2000/svg">
<circle cx="12.7335" cy="13.2442" r="12.4444" fill="#EB3F5E"/>
<path d="M8.58905 18.582C8.28692 18.582 7.98478 18.4706 7.74626 18.2321C7.2851 17.771 7.2851 17.0077 7.74626 16.5465L16.7467 7.54606C17.2079 7.08491 17.9711 7.08491 18.4323 7.54606C18.8935 8.00721 18.8935 8.7705 18.4323 9.23166L9.43185 18.2321C9.20923 18.4706 8.89119 18.582 8.58905 18.582Z" fill="#F9F9F9"/>
<path d="M17.5895 18.582C17.2874 18.582 16.9852 18.4706 16.7467 18.2321L7.74626 9.23166C7.2851 8.7705 7.2851 8.00721 7.74626 7.54606C8.20741 7.08491 8.9707 7.08491 9.43185 7.54606L18.4323 16.5465C18.8935 17.0077 18.8935 17.771 18.4323 18.2321C18.1938 18.4706 17.8916 18.582 17.5895 18.582Z" fill="#F9F9F9"/>
</svg>
