<svg width="110" height="43" viewBox="0 0 110 43" fill="none" xmlns="http://www.w3.org/2000/svg">
<rect x="3.9081" y="5.21083" width="41.8027" height="36.872" rx="6.73719" fill="#6C5FBC" stroke="#6C5FBC" stroke-width="0.464634"/>
<rect x="1.0075" y="1.0075" width="40.2524" height="35.3217" rx="5.96201" fill="#DBD9EE" stroke="#6C5FBC" stroke-width="2.01499"/>
<path d="M35.2647 35.5309L6.9115 35.4056L7.01671 1.06394L35.3699 1.18931L35.2647 35.5309Z" stroke="#6C5FBC" stroke-width="1.38955"/>
<path d="M32.6211 12.0508L9.7195 11.9495" stroke="#6C5FBC" stroke-width="2.08432" stroke-linecap="round" stroke-linejoin="round"/>
<path d="M32.6086 16.6358L27.5152 16.6133C25.4085 16.604 23.7046 14.5419 23.7124 12.0109C23.7201 9.47998 25.4366 7.43301 27.5433 7.44232L32.6367 7.46484" stroke="#6C5FBC" stroke-width="2.08432" stroke-linecap="round" stroke-linejoin="round"/>
<path d="M17.362 26.724L10.7077 26.65C10.1624 26.6475 9.70556 26.1096 9.69517 25.4545L9.65089 23.7274C9.6406 23.0425 10.1009 22.4639 10.6709 22.4665L17.2509 22.5402L17.362 26.724Z" stroke="#6C5FBC" stroke-width="2.08432" stroke-linecap="round" stroke-linejoin="round"/>
<path d="M27.8134 29.2108L18.4076 29.0948C17.8624 29.0924 17.4055 28.5544 17.3951 27.8993L17.2752 22.5242L32.555 22.7108L32.5653 23.3957C32.6421 26.6417 30.5025 29.2525 27.8134 29.2108Z" stroke="#6C5FBC" stroke-width="2.08432" stroke-linecap="round" stroke-linejoin="round"/>
<path d="M69.1598 21.5188C69.1598 21.8858 69.1387 22.274 69.0963 22.6834H59.8213C59.8919 23.8269 60.2801 24.7234 60.986 25.3728C61.706 26.008 62.5742 26.3257 63.5906 26.3257C64.4235 26.3257 65.1153 26.1351 65.6658 25.7539C66.2305 25.3586 66.6258 24.8363 66.8517 24.1869H68.9269C68.6163 25.3022 67.9952 26.2127 67.0634 26.9186C66.1317 27.6103 64.9741 27.9562 63.5906 27.9562C62.4895 27.9562 61.5013 27.7092 60.626 27.2151C59.7648 26.721 59.0872 26.0222 58.5931 25.1187C58.099 24.201 57.852 23.1422 57.852 21.9423C57.852 20.7423 58.092 19.6906 58.5719 18.7871C59.0519 17.8836 59.7225 17.1918 60.5836 16.7119C61.4589 16.2178 62.4612 15.9707 63.5906 15.9707C64.6917 15.9707 65.6658 16.2107 66.5129 16.6907C67.3599 17.1707 68.0093 17.8342 68.461 18.6812C68.9269 19.5141 69.1598 20.46 69.1598 21.5188ZM67.1693 21.1164C67.1693 20.3823 67.007 19.7541 66.6823 19.2318C66.3576 18.6953 65.9129 18.293 65.3482 18.0248C64.7976 17.7424 64.1835 17.6012 63.5059 17.6012C62.5318 17.6012 61.6989 17.9118 61.0072 18.533C60.3295 19.1541 59.9413 20.0153 59.8425 21.1164H67.1693ZM70.9834 21.9211C70.9834 20.7353 71.2234 19.6976 71.7034 18.8083C72.1834 17.9048 72.8398 17.206 73.6728 16.7119C74.5198 16.2178 75.4586 15.9707 76.4891 15.9707C77.5056 15.9707 78.3879 16.1895 79.1361 16.6272C79.8843 17.0648 80.442 17.6154 80.809 18.2789V16.1613H82.7572V27.7656H80.809V25.6057C80.4278 26.2833 79.8561 26.848 79.0938 27.2998C78.3456 27.7374 77.4703 27.9562 76.468 27.9562C75.4374 27.9562 74.5057 27.7021 73.6728 27.1939C72.8398 26.6857 72.1834 25.9727 71.7034 25.0551C71.2234 24.1375 70.9834 23.0928 70.9834 21.9211ZM80.809 21.9423C80.809 21.067 80.6325 20.3047 80.2796 19.6553C79.9267 19.0059 79.4467 18.5118 78.8397 18.173C78.2467 17.8201 77.5903 17.6436 76.8703 17.6436C76.1503 17.6436 75.4939 17.813 74.901 18.1518C74.308 18.4906 73.8351 18.9847 73.4822 19.6341C73.1292 20.2835 72.9528 21.0458 72.9528 21.9211C72.9528 22.8105 73.1292 23.5869 73.4822 24.2504C73.8351 24.8998 74.308 25.401 74.901 25.7539C75.4939 26.0927 76.1503 26.2621 76.8703 26.2621C77.5903 26.2621 78.2467 26.0927 78.8397 25.7539C79.4467 25.401 79.9267 24.8998 80.2796 24.2504C80.6325 23.5869 80.809 22.8175 80.809 21.9423ZM88.3641 17.7495V24.5893C88.3641 25.1539 88.4841 25.5563 88.7241 25.7963C88.9641 26.0222 89.3806 26.1351 89.9735 26.1351H91.3923V27.7656H89.6558C88.5829 27.7656 87.7783 27.5186 87.2418 27.0245C86.7054 26.5304 86.4371 25.7186 86.4371 24.5893V17.7495H84.9336V16.1613H86.4371V13.239H88.3641V16.1613H91.3923V17.7495H88.3641ZM95.6541 12.0955V27.7656H93.7271V12.0955H95.6541ZM108.933 16.1613L101.945 33.229H99.9547L102.242 27.6386L97.5619 16.1613H99.7006L103.343 25.5633L106.943 16.1613H108.933Z" fill="#6C5FBC"/>
</svg>
